<?xml version="1.0" encoding="UTF-8" standalone="no"?><!DOCTYPE svg PUBLIC "-//W3C//DTD SVG 1.1//EN" "http://www.w3.org/Graphics/SVG/1.1/DTD/svg11.dtd"><svg width="100%" height="100%" viewBox="0 0 60 60" version="1.1" xmlns="http://www.w3.org/2000/svg" xmlns:xlink="http://www.w3.org/1999/xlink" xml:space="preserve" style="fill-rule:evenodd;clip-rule:evenodd;stroke-linejoin:round;stroke-miterlimit:1.41421;"><g><rect x="0" y="0" width="60" height="60"/><rect x="5.7" y="48.75" width="39.96" height="3.75" style="fill:#fff;"/><path d="M5.252,25.178c-0.003,-0.143 -0.005,-0.286 -0.005,-0.43c0,-10.587 8.712,-19.299 19.299,-19.299c0.143,0 0.286,0.002 0.429,0.006c7.11,0 11.468,2.293 14.907,5.962l-5.275,6.193c-2.981,-2.753 -5.962,-4.358 -9.632,-4.358c-6.422,0 -11.009,5.275 -11.009,11.926c0,6.422 4.587,11.926 11.009,11.926c4.357,0 7.11,-1.835 10.091,-4.358l5.275,5.275c-3.898,4.128 -8.256,6.88 -15.596,6.88c0,0 0,0 -0.001,0c-10.694,0 -19.494,-8.8 -19.494,-19.494c0,-0.077 0.001,-0.153 0.001,-0.229" style="fill:#fff;fill-rule:nonzero;"/></g></svg>