<?xml version="1.0" encoding="UTF-8" standalone="no"?><!DOCTYPE svg PUBLIC "-//W3C//DTD SVG 1.1//EN" "http://www.w3.org/Graphics/SVG/1.1/DTD/svg11.dtd"><svg width="100%" height="100%" viewBox="0 0 315 230" version="1.1" xmlns="http://www.w3.org/2000/svg" xmlns:xlink="http://www.w3.org/1999/xlink" xml:space="preserve" style="fill-rule:evenodd;clip-rule:evenodd;stroke-linejoin:round;stroke-miterlimit:1.41421;"><path d="M145.208,113.797c4.08,-5.872 8.099,-11.789 12.202,-17.647c-0.015,7.913 0.067,15.818 -0.045,23.73c-4.553,-0.675 -9.15,-2.46 -12.157,-6.083Zm-1.111,14.078c2.888,-4.5 8.108,-6.907 13.276,-7.553c0.15,8.55 -0.083,17.108 0.127,25.665c-2.932,-3.36 -4.988,-7.335 -7.65,-10.882c-1.883,-2.438 -3.202,-5.377 -5.753,-7.23Z" style="fill:#f89090;fill-rule:nonzero;"/><path d="M157.41,96.15c5.828,8.272 11.535,16.627 17.22,24.99c-5.97,8.1 -11.265,16.672 -17.13,24.847c-0.21,-8.557 0.023,-17.115 -0.127,-25.665c0,-0.112 -0.008,-0.33 -0.008,-0.442c0.112,-7.912 0.03,-15.818 0.045,-23.73Z" style="fill:#e95353;fill-rule:nonzero;"/><path d="M157.5,145.987c5.865,-8.174 11.16,-16.747 17.13,-24.847c5.648,8.437 11.648,16.642 17.122,25.192c-11.512,0 -23.025,0.03 -34.53,-0.006l0.278,-0.339Z" style="fill:#e53535;fill-rule:nonzero;"/><path d="M136.635,126.39c2.52,3.12 3.6,7.057 4.282,10.927c0.585,-3.285 1.441,-6.562 3.18,-9.442c2.551,1.853 3.87,4.792 5.753,7.23c2.662,3.547 4.718,7.522 7.65,10.882l-0.278,0.339c-11.43,0.036 -22.852,0.006 -34.282,0.014c4.53,-6.675 9.112,-13.313 13.695,-19.95Z" style="fill:#f77d7d;fill-rule:nonzero;"/><path d="M122.94,146.34c11.43,-0.008 22.852,0.022 34.282,-0.014l0.21,0.42c-6.007,8.061 -11.234,16.686 -17.265,24.734c-5.73,-8.393 -11.519,-16.732 -17.227,-25.14Z" style="fill:#f25555;fill-rule:nonzero;"/><path d="M157.222,146.326c11.505,0.036 23.018,0.006 34.53,0.006l0.121,0.204c-5.948,8.391 -11.686,16.926 -17.505,25.401c-2.783,-5.445 -6.705,-10.169 -10.05,-15.255c-2.235,-3.36 -4.426,-6.742 -6.886,-9.936l-0.21,-0.42Z" style="fill:#b50b0b;fill-rule:nonzero;"/><path d="M140.167,171.48c6.031,-8.048 11.258,-16.673 17.265,-24.734c-0.029,16.454 -0.007,32.909 -0.015,49.364l-0.217,0.247c-5.587,-8.347 -11.4,-16.552 -17.033,-24.877Z" style="fill:#df4e4e;fill-rule:nonzero;"/><path d="M157.432,146.746c2.46,3.194 4.651,6.576 6.886,9.936c3.345,5.086 7.267,9.81 10.05,15.255c-4.201,6.173 -8.46,12.3 -12.675,18.458c-1.381,1.935 -2.558,4.042 -4.276,5.715c0.008,-16.455 -0.014,-32.91 0.015,-49.364Z" style="fill:#a70a0a;fill-rule:nonzero;"/><path d="M269.235,229.583c-6.757,0.014 -186.398,0.014 -223.688,0c-13.747,-51.983 -27.472,-103.973 -41.205,-155.956c-1.395,-5.64 -3.142,-11.205 -4.342,-16.882c1.148,0.532 2.28,1.086 3.399,1.674l0.478,0.253c28.096,13.08 56.138,26.28 84.248,39.338c1.778,0.803 3.495,1.755 5.37,2.317l0.047,-0.129c0.497,-1.331 1.372,-2.459 2.121,-3.643c5.146,-8.046 56.6,-88.509 61.747,-96.555l60.277,94.252c1.216,2.025 2.7,3.9 3.676,6.068l2.908,-1.333c30.042,-13.798 59.852,-28.139 89.867,-42.002l0.24,-0.382l0.502,0.389c-15.142,57.548 -30.427,115.065 -45.645,172.591Z" style="fill:#ffba00;"/></svg>