<?xml version="1.0" encoding="UTF-8" standalone="no"?><!DOCTYPE svg PUBLIC "-//W3C//DTD SVG 1.1//EN" "http://www.w3.org/Graphics/SVG/1.1/DTD/svg11.dtd"><svg width="100%" height="100%" viewBox="0 0 82 77" version="1.1" xmlns="http://www.w3.org/2000/svg" xmlns:xlink="http://www.w3.org/1999/xlink" xml:space="preserve" style="fill-rule:evenodd;clip-rule:evenodd;stroke-linejoin:round;stroke-miterlimit:1.41421;"><path d="M22.54,48.908l-12.557,-0.001c1.662,5.704 4.748,10.816 9.265,15.334c7.202,7.203 15.861,10.799 25.987,10.799c2.025,0 3.986,-0.151 5.891,-0.438c7.627,-1.151 14.306,-4.6 20.027,-10.361c4.547,-4.516 7.654,-9.63 9.33,-15.333l-5.097,0l-7.452,0l-45.394,0Z" style="fill:#2c2255;fill-rule:nonzero;"/><path d="M15.616,31.851l-6.56,0c-0.24,1.442 -0.404,2.913 -0.478,4.422l73.318,0c-0.075,-1.509 -0.239,-2.98 -0.481,-4.422" style="fill:#2c2255;fill-rule:nonzero;"/><path d="M8.578,40.379c0.074,1.51 0.237,2.982 0.478,4.422l72.36,0c0.242,-1.44 0.407,-2.912 0.482,-4.422" style="fill:#2c2255;fill-rule:nonzero;"/><path d="M80.484,27.744c-1.674,-5.719 -4.782,-10.856 -9.331,-15.405c-5.706,-5.707 -12.366,-9.13 -19.968,-10.282c-1.923,-0.292 -3.904,-0.445 -5.949,-0.445c-10.127,0 -18.787,3.577 -25.988,10.727c-4.519,4.549 -7.606,9.685 -9.268,15.405" style="fill:#2c2255;fill-rule:nonzero;"/><path d="M6.398,38.327c0,-19.368 14.546,-35.46 33.469,-38.291c-0.47,-0.017 -0.941,-0.036 -1.415,-0.036c-21.236,0 -38.452,17.16 -38.452,38.327c0,21.168 17.216,38.328 38.452,38.328c0.475,0 0.947,-0.018 1.418,-0.036c-18.926,-2.83 -33.473,-18.923 -33.473,-38.292Z" style="fill:#f7941e;fill-rule:nonzero;"/><path d="M70.187,36.272c-0.123,-1.516 -0.378,-2.994 -0.759,-4.422l-48.382,0c-0.381,1.428 -0.637,2.906 -0.76,4.422l49.901,0Z" style="fill:url(#_Linear1);fill-rule:nonzero;"/><path d="M70.187,40.379l-49.9,0c0.123,1.516 0.377,2.994 0.759,4.422l48.383,0c0.381,-1.428 0.635,-2.906 0.758,-4.422Z" style="fill:url(#_Linear2);fill-rule:nonzero;"/><path d="M45.237,63.368c10.048,0 18.709,-5.92 22.697,-14.461l-45.394,0c3.988,8.541 12.649,14.461 22.697,14.461Z" style="fill:url(#_Linear3);fill-rule:nonzero;"/><path d="M16.589,40.379l65.257,0c0.035,-0.653 0.054,-1.311 0.054,-1.973c0,-0.716 -0.026,-1.426 -0.067,-2.134l-4.98,0l-6.573,0l-50.029,0l-3.922,0l-7.751,0c-0.041,0.707 -0.067,1.418 -0.067,2.134c0,0.662 0.02,1.32 0.054,1.973l8.024,0Z" style="fill:#fff;fill-rule:nonzero;"/><path d="M22.394,27.744l-12.414,0c-0.408,1.337 -0.672,2.709 -0.924,4.107l72.127,0c-0.253,-1.397 -0.58,-2.769 -0.987,-4.107" style="fill:#fff;fill-rule:nonzero;"/><path d="M76.467,44.8l-6.87,0l-48.508,0l-5.184,0l-6.85,0c0.246,1.398 0.526,2.769 0.927,4.107l70.454,0c0.4,-1.338 0.724,-2.709 0.971,-4.107l-4.94,0Z" style="fill:#fff;fill-rule:nonzero;"/><defs><linearGradient id="_Linear1" x1="0" y1="0" x2="1" y2="0" gradientUnits="userSpaceOnUse" gradientTransform="matrix(3.38163e-15,-55.2262,55.2262,3.38163e-15,45.2365,80.0234)"><stop offset="0%" style="stop-color:#473788;stop-opacity:1"/><stop offset="30%" style="stop-color:#473788;stop-opacity:1"/><stop offset="87%" style="stop-color:#2c2255;stop-opacity:1"/><stop offset="100%" style="stop-color:#2c2255;stop-opacity:1"/></linearGradient><linearGradient id="_Linear2" x1="0" y1="0" x2="1" y2="0" gradientUnits="userSpaceOnUse" gradientTransform="matrix(3.38163e-15,-55.2262,55.2262,3.38163e-15,45.2365,80.0241)"><stop offset="0%" style="stop-color:#473788;stop-opacity:1"/><stop offset="30%" style="stop-color:#473788;stop-opacity:1"/><stop offset="87%" style="stop-color:#2c2255;stop-opacity:1"/><stop offset="100%" style="stop-color:#2c2255;stop-opacity:1"/></linearGradient><linearGradient id="_Linear3" x1="0" y1="0" x2="1" y2="0" gradientUnits="userSpaceOnUse" gradientTransform="matrix(3.38146e-15,-55.2235,55.2235,3.38146e-15,45.2365,80.0227)"><stop offset="0%" style="stop-color:#473788;stop-opacity:1"/><stop offset="30%" style="stop-color:#473788;stop-opacity:1"/><stop offset="86%" style="stop-color:#2c2255;stop-opacity:1"/><stop offset="100%" style="stop-color:#2c2255;stop-opacity:1"/></linearGradient></defs></svg>