<?xml version="1.0" encoding="UTF-8" standalone="no"?><!DOCTYPE svg PUBLIC "-//W3C//DTD SVG 1.1//EN" "http://www.w3.org/Graphics/SVG/1.1/DTD/svg11.dtd"><svg width="100%" height="100%" viewBox="0 0 251 340" version="1.1" xmlns="http://www.w3.org/2000/svg" xmlns:xlink="http://www.w3.org/1999/xlink" xml:space="preserve" style="fill-rule:evenodd;clip-rule:evenodd;stroke-linejoin:round;stroke-miterlimit:1.41421;"><path d="M80.528,262.194c0,0 -12.949,7.537 9.225,10.08c26.868,3.067 40.598,2.626 70.197,-2.969c0,0 7.798,4.878 18.669,9.103c-66.375,28.437 -150.222,-1.648 -98.091,-16.214Z" style="fill:#0074bd;"/><path d="M72.413,225.078c0,0 -14.526,10.754 7.665,13.048c28.704,2.963 51.363,3.206 90.594,-4.344c0,0 5.414,5.499 13.939,8.504c-80.239,23.471 -169.61,1.847 -112.198,-17.208Z" style="fill:#0074bd;"/><path d="M140.785,162.109c16.363,18.836 -4.291,35.773 -4.291,35.773c0,0 41.525,-21.433 22.459,-48.285c-17.814,-25.03 -31.472,-37.464 42.467,-80.344c0.001,0.001 -116.065,28.981 -60.635,92.856Z" style="fill:#ea2d2e;"/><path d="M228.571,289.652c0,0 9.586,7.902 -10.558,14.013c-38.303,11.601 -159.453,15.101 -193.102,0.464c-12.088,-5.265 10.59,-12.563 17.726,-14.104c7.44,-1.609 11.688,-1.315 11.688,-1.315c-13.453,-9.474 -86.951,18.605 -37.329,26.658c135.322,21.934 246.671,-9.88 211.575,-25.716Z" style="fill:#0074bd;"/><path d="M86.759,186.617c0,0 -61.616,14.639 -21.819,19.959c16.809,2.25 50.298,1.732 81.514,-0.887c25.505,-2.14 51.1,-6.718 51.1,-6.718c0,0 -8.987,3.855 -15.493,8.295c-62.583,16.46 -183.459,8.794 -148.655,-8.034c29.42,-14.233 53.353,-12.615 53.353,-12.615Z" style="fill:#0074bd;"/><path d="M197.299,248.399c63.613,-33.048 34.198,-64.809 13.667,-60.531c-5.02,1.047 -7.273,1.955 -7.273,1.955c0,0 1.871,-2.93 5.433,-4.191c40.616,-14.273 71.845,42.109 -13.098,64.439c-0.001,0 0.976,-0.885 1.271,-1.673Z" style="fill:#0074bd;"/><path d="M158.954,0c0,0 35.222,35.243 -33.418,89.42c-55.045,43.477 -12.551,68.257 -0.02,96.584c-32.133,-28.99 -55.703,-54.513 -39.894,-78.264c23.216,-34.86 87.54,-51.766 73.332,-107.74Z" style="fill:#ea2d2e;"/><path d="M93.014,337.978c61.047,3.903 154.819,-2.172 157.038,-31.061c0,0 -4.266,10.951 -50.457,19.64c-52.11,9.811 -116.397,8.669 -154.512,2.376c0,0 7.809,6.463 47.931,9.045Z" style="fill:#0074bd;"/></svg>