<?xml version="1.0" encoding="UTF-8" standalone="no"?><!DOCTYPE svg PUBLIC "-//W3C//DTD SVG 1.1//EN" "http://www.w3.org/Graphics/SVG/1.1/DTD/svg11.dtd"><svg width="100%" height="100%" viewBox="0 0 161 155" version="1.1" xmlns="http://www.w3.org/2000/svg" xmlns:xlink="http://www.w3.org/1999/xlink" xml:space="preserve" style="fill-rule:evenodd;clip-rule:evenodd;stroke-linejoin:round;stroke-miterlimit:1.41421;"><path d="M10.218,36.384c-14.241,20.46 -12.478,47.078 -1.587,68.819c0.243,0.531 0.525,1.031 0.793,1.544c0.15,0.334 0.325,0.665 0.513,0.994c0.081,0.178 0.209,0.378 0.315,0.553c0.175,0.356 0.36,0.681 0.547,1.022c0.35,0.587 0.7,1.187 1.05,1.771c0.197,0.329 0.388,0.654 0.607,0.982c0.371,0.628 0.806,1.25 1.19,1.881c0.175,0.269 0.338,0.531 0.525,0.794c0.56,0.853 1.122,1.693 1.738,2.518c0,0.025 0.025,0.047 0.047,0.06c0.093,0.14 0.196,0.275 0.29,0.403c0.525,0.716 1.05,1.416 1.6,2.109c0.188,0.257 0.394,0.513 0.581,0.766c0.504,0.606 0.994,1.212 1.482,1.812c0.187,0.216 0.375,0.444 0.572,0.666c0.653,0.788 1.34,1.569 2.043,2.341c0,0.009 0.022,0.025 0.035,0.043c0.022,0.029 0.043,0.06 0.093,0.088c0.675,0.741 1.363,1.469 2.063,2.194c0.222,0.222 0.444,0.437 0.687,0.672c0.538,0.54 1.075,1.09 1.647,1.625c0.232,0.221 0.466,0.437 0.688,0.653c0.747,0.7 1.494,1.4 2.275,2.072c0.009,0.012 0.022,0.018 0.034,0.028c0.128,0.112 0.269,0.222 0.385,0.331c0.687,0.591 1.378,1.172 2.075,1.75c0.281,0.234 0.562,0.456 0.84,0.684c0.585,0.46 1.166,0.903 1.75,1.347c0.303,0.228 0.606,0.46 0.922,0.7c0.631,0.472 1.284,0.931 1.925,1.388c0.231,0.168 0.466,0.337 0.713,0.493c0.056,0.054 0.128,0.1 0.184,0.147c0.641,0.422 1.25,0.828 1.878,1.244c0.281,0.178 0.55,0.356 0.819,0.534c0.978,0.625 1.956,1.225 2.928,1.81c0.278,0.147 0.556,0.303 0.825,0.459c0.725,0.422 1.459,0.835 2.206,1.231c0.406,0.229 0.816,0.429 1.235,0.635c0.503,0.275 1.028,0.556 1.565,0.831c0.128,0.05 0.256,0.097 0.372,0.163c0.222,0.1 0.431,0.209 0.641,0.312c0.818,0.403 1.656,0.784 2.522,1.169c0.162,0.075 0.337,0.144 0.512,0.234c0.966,0.419 1.934,0.822 2.928,1.213c0.231,0.087 0.466,0.19 0.71,0.272c0.9,0.353 1.831,0.693 2.753,1.028c0.118,0.047 0.222,0.081 0.337,0.122c1.028,0.35 2.041,0.681 3.081,1.003c0.244,0.072 0.491,0.159 0.747,0.222c1.06,0.321 2.088,0.693 3.172,0.9c68.85,12.55 88.856,-41.382 88.856,-41.382c-16.809,21.875 -46.634,27.657 -74.884,21.228c-1.05,-0.237 -2.087,-0.568 -3.147,-0.884c-0.247,-0.072 -0.525,-0.153 -0.772,-0.237c-1.025,-0.313 -2.04,-0.644 -3.031,-0.982c-0.141,-0.047 -0.291,-0.1 -0.431,-0.159c-0.897,-0.306 -1.785,-0.647 -2.672,-0.991c-0.244,-0.103 -0.5,-0.193 -0.747,-0.284c-0.981,-0.384 -1.947,-0.8 -2.891,-1.216c-0.212,-0.075 -0.387,-0.162 -0.584,-0.243c-0.828,-0.379 -1.622,-0.75 -2.428,-1.138c-0.244,-0.103 -0.466,-0.222 -0.709,-0.344c-0.632,-0.297 -1.26,-0.631 -1.879,-0.956c-0.431,-0.222 -0.853,-0.425 -1.259,-0.653c-0.759,-0.406 -1.519,-0.841 -2.275,-1.259c-0.234,-0.16 -0.491,-0.294 -0.759,-0.438c-0.978,-0.581 -1.972,-1.184 -2.938,-1.803c-0.281,-0.175 -0.537,-0.35 -0.794,-0.531c-0.712,-0.447 -1.412,-0.919 -2.1,-1.388c-0.221,-0.156 -0.443,-0.319 -0.675,-0.484c-0.665,-0.466 -1.318,-0.938 -1.984,-1.422c-0.281,-0.222 -0.572,-0.444 -0.875,-0.666c-0.594,-0.459 -1.191,-0.915 -1.784,-1.393c-0.257,-0.216 -0.525,-0.425 -0.782,-0.635c-0.768,-0.619 -1.493,-1.237 -2.228,-1.878c-0.072,-0.078 -0.175,-0.141 -0.256,-0.206c-0.781,-0.697 -1.562,-1.416 -2.334,-2.128c-0.235,-0.222 -0.428,-0.425 -0.663,-0.635c-0.559,-0.55 -1.122,-1.084 -1.669,-1.64c-0.234,-0.232 -0.443,-0.447 -0.665,-0.669c-0.7,-0.706 -1.388,-1.434 -2.063,-2.181c-0.037,-0.032 -0.072,-0.063 -0.106,-0.107c-0.712,-0.781 -1.4,-1.571 -2.087,-2.378c-0.188,-0.215 -0.363,-0.437 -0.547,-0.647c-0.503,-0.618 -1.007,-1.243 -1.519,-1.862c-0.163,-0.238 -0.35,-0.466 -0.538,-0.7c-0.593,-0.763 -1.165,-1.525 -1.737,-2.313c-15.675,-21.387 -21.331,-50.903 -8.794,-75.121" style="fill:#0e69ae;fill-rule:nonzero;"/><path d="M54.424,19.141c-10.325,14.812 -9.753,34.646 -1.715,50.321c1.331,2.625 2.847,5.175 4.55,7.594c1.537,2.216 3.24,4.841 5.306,6.622c0.722,0.816 1.503,1.609 2.309,2.406c0.2,0.2 0.397,0.394 0.607,0.603c0.771,0.738 1.553,1.469 2.356,2.179c0.025,0.031 0.069,0.059 0.094,0.09c0.012,0.006 0.025,0.016 0.025,0.016c0.896,0.794 1.806,1.547 2.753,2.281c0.218,0.156 0.418,0.331 0.64,0.491c0.932,0.728 1.891,1.428 2.857,2.115c0.034,0.013 0.059,0.035 0.106,0.053c0.419,0.304 0.862,0.585 1.319,0.875c0.196,0.129 0.406,0.279 0.606,0.404c0.709,0.459 1.409,0.89 2.134,1.318c0.103,0.05 0.21,0.11 0.313,0.16c0.609,0.368 1.25,0.731 1.89,1.056c0.222,0.134 0.444,0.241 0.666,0.362c0.444,0.222 0.884,0.454 1.316,0.682c0.059,0.031 0.14,0.065 0.212,0.093c0.909,0.45 1.831,0.863 2.741,1.279c0.222,0.087 0.409,0.162 0.618,0.25c0.747,0.321 1.504,0.637 2.25,0.921c0.338,0.113 0.654,0.244 0.969,0.357c0.688,0.243 1.388,0.484 2.075,0.709c0.338,0.113 0.641,0.206 0.947,0.306c0.978,0.31 1.972,0.707 3.009,0.866c53.141,8.816 65.435,-32.122 65.435,-32.122c-11.069,15.947 -32.497,23.538 -55.356,17.603c-1.029,-0.262 -2.032,-0.556 -3.013,-0.875c-0.312,-0.081 -0.594,-0.181 -0.897,-0.287c-0.709,-0.225 -1.422,-0.466 -2.112,-0.722c-0.313,-0.116 -0.641,-0.235 -0.953,-0.356c-0.76,-0.297 -1.519,-0.588 -2.254,-0.916c-0.221,-0.088 -0.431,-0.163 -0.606,-0.256c-0.944,-0.41 -1.878,-0.847 -2.787,-1.282c-0.466,-0.24 -0.922,-0.475 -1.388,-0.718c-0.281,-0.141 -0.55,-0.275 -0.794,-0.403c-0.618,-0.319 -1.19,-0.66 -1.775,-1.004c-0.137,-0.075 -0.278,-0.146 -0.418,-0.228c-0.71,-0.431 -1.447,-0.862 -2.122,-1.312c-0.235,-0.131 -0.431,-0.285 -0.653,-0.425c-0.466,-0.297 -0.922,-0.594 -1.4,-0.916c-0.969,-0.669 -1.913,-1.381 -2.857,-2.094c-0.225,-0.181 -0.434,-0.343 -0.643,-0.518c-10.032,-7.897 -17.963,-18.697 -21.719,-30.925c-3.966,-12.703 -3.091,-26.963 3.747,-38.528" style="fill:#0e69ae;fill-rule:nonzero;"/><path d="M91.587,6.256c-6.091,8.935 -6.675,20.035 -2.475,29.891c4.456,10.475 13.565,18.69 24.181,22.581c0.431,0.169 0.863,0.309 1.306,0.459c0.197,0.06 0.385,0.122 0.594,0.188c0.619,0.191 1.238,0.425 1.878,0.55c29.356,5.669 37.313,-15.066 39.447,-18.116c-6.984,10.044 -18.706,12.45 -33.091,8.957c-1.131,-0.275 -2.368,-0.682 -3.462,-1.079c-1.4,-0.496 -2.788,-1.071 -4.141,-1.709c-2.531,-1.228 -4.981,-2.709 -7.243,-4.425c-12.879,-9.762 -20.857,-28.384 -12.46,-43.553" style="fill:#0e69ae;fill-rule:nonzero;"/></svg>