<?xml version="1.0" encoding="UTF-8" standalone="no"?><!DOCTYPE svg PUBLIC "-//W3C//DTD SVG 1.1//EN" "http://www.w3.org/Graphics/SVG/1.1/DTD/svg11.dtd"><svg width="100%" height="100%" viewBox="0 0 252 285" version="1.1" xmlns="http://www.w3.org/2000/svg" xmlns:xlink="http://www.w3.org/1999/xlink" xml:space="preserve" style="fill-rule:evenodd;clip-rule:evenodd;stroke-linejoin:round;stroke-miterlimit:1.41421;"><path d="M251.722,0l-125.86,0l-125.862,0l23.588,255.891l102.274,28.996l102.235,-28.996l23.625,-255.891Z" style="fill:#e6a32a;fill-rule:nonzero;"/><path d="M125.861,20.845l0,242.372l82.819,-23.478l20.169,-218.894l-102.988,0Z" style="fill:#f1bf22;fill-rule:nonzero;"/><path d="M191.752,52.244l-127.385,0l-8.853,95.813l0.188,-0.6l108.206,0l-3.531,40.528l-34.516,9.95l-35.044,-10.1l-2.103,-24.528l-31.812,0l4.547,49.015l64.412,18.291l64.413,-18.291l8.865,-96.19l-114.818,0l1.462,-32.075l79.697,0l1.172,18.359l32.097,0l-6.997,-50.172Z" style="fill:#fff;fill-rule:nonzero;"/><path d="M88.715,163.307l-31.812,0l4.544,49.016l64.415,18.25l0,-32.638l-35.044,-10.1l-2.103,-24.528Zm37.147,-111.062l-61.497,0l-8.853,95.812l0.191,-0.6l70.159,0l0,-31.325l-37.112,0l1.462,-32.075l35.65,0l0,-31.812Z" style="fill:#ebebec;fill-rule:nonzero;"/></svg>