<?xml version="1.0" encoding="UTF-8" standalone="no"?><!DOCTYPE svg PUBLIC "-//W3C//DTD SVG 1.1//EN" "http://www.w3.org/Graphics/SVG/1.1/DTD/svg11.dtd"><svg width="100%" height="100%" viewBox="0 0 196 195" version="1.1" xmlns="http://www.w3.org/2000/svg" xmlns:xlink="http://www.w3.org/1999/xlink" xml:space="preserve" style="fill-rule:evenodd;clip-rule:evenodd;stroke-linejoin:round;stroke-miterlimit:1.41421;"><g id="Group-Copy-4"><path id="Fill-9" d="M98.27,153.955c-31.942,0 -59.757,-11.483 -74.238,-28.45c10.958,30.416 40.058,52.162 74.238,52.162c34.181,0 63.281,-21.746 74.239,-52.162c-14.481,16.967 -42.296,28.45 -74.239,28.45" style="fill:#e46e2e;"/><path id="Fill-10" d="M98.27,43.53c31.943,0 59.758,11.484 74.239,28.45c-10.958,-30.415 -40.058,-52.161 -74.239,-52.161c-34.18,0 -63.28,21.746 -74.238,52.161c14.481,-16.966 42.296,-28.45 74.238,-28.45" style="fill:#e46e2e;"/><path id="Fill-11" d="M38.42,194.898c-6.849,0.294 -12.639,-5.02 -12.932,-11.869c-0.294,-6.849 5.021,-12.639 11.869,-12.932c6.849,-0.294 12.639,5.02 12.932,11.869c0.294,6.849 -5.02,12.639 -11.869,12.932Z" style="fill:#767474;"/><path id="Fill-12" d="M28.895,33.274c-4.28,0.183 -7.899,-3.138 -8.082,-7.419c-0.184,-4.281 3.138,-7.9 7.418,-8.083c4.281,-0.184 7.9,3.138 8.083,7.419c0.183,4.28 -3.138,7.9 -7.419,8.083Z" style="fill:#767474;"/><path id="Fill-8" d="M152.064,24.082c-6.648,0.285 -12.267,-4.872 -12.552,-11.52c-0.284,-6.646 4.873,-12.266 11.52,-12.551c6.647,-0.284 12.267,4.873 12.551,11.52c0.285,6.647 -4.873,12.267 -11.519,12.551Z" style="fill:#767474;"/><g id="Group-Copy"><path id="Fill-1" d="M8.01,109.215c0,7.149 -0.559,9.49 -2.049,11.216c-1.304,1.417 -3.477,2.095 -5.961,2.28l0.559,4.252c2.918,0 6.892,-0.986 9.314,-3.389c2.67,-2.712 3.601,-6.471 3.601,-12.264l0,-27.054l-5.464,0l0,24.959" style="fill:#313940;"/><path id="Fill-2" d="M48.806,105.949c0,3.081 0.062,5.793 0.248,8.134l-4.843,0l-0.311,-4.868l-0.124,0c-1.428,2.403 -4.595,5.546 -9.935,5.546c-4.719,0 -10.37,-2.588 -10.37,-13.064l0,-17.441l5.465,0l0,16.516c0,5.669 1.738,9.491 6.706,9.491c3.663,0 6.209,-2.527 7.203,-4.931c0.31,-0.801 0.496,-1.787 0.496,-2.773l0,-18.303l5.465,0l0,21.693" style="fill:#313940;"/><path id="Fill-3" d="M59.114,93.993c0,-3.821 -0.124,-6.903 -0.248,-9.737l4.905,0l0.249,5.115l0.124,0c2.236,-3.636 5.775,-5.793 10.68,-5.793c7.265,0 12.729,6.101 12.729,15.16c0,10.723 -6.582,16.023 -13.661,16.023c-3.973,0 -7.451,-1.726 -9.251,-4.684l-0.124,0l0,16.208l-5.403,0l0,-32.292Zm5.403,7.949c0,0.802 0.124,1.542 0.248,2.219c0.993,3.759 4.284,6.347 8.196,6.347c5.775,0 9.128,-4.683 9.128,-11.523c0,-5.978 -3.167,-11.093 -8.941,-11.093c-3.726,0 -7.203,2.65 -8.259,6.717c-0.186,0.678 -0.372,1.479 -0.372,2.219l0,5.114Z" style="fill:#313940;"/><path id="Fill-4" d="M97.24,84.256l6.583,17.625c0.683,1.973 1.428,4.314 1.925,6.101l0.123,0c0.56,-1.787 1.181,-4.067 1.925,-6.224l5.962,-17.502l5.774,0l-8.196,21.261c-3.912,10.23 -6.582,15.469 -10.308,18.673c-2.669,2.341 -5.34,3.266 -6.706,3.512l-1.366,-4.559c1.366,-0.432 3.167,-1.295 4.782,-2.651c1.49,-1.171 3.353,-3.266 4.594,-6.039c0.249,-0.554 0.435,-0.986 0.435,-1.294c0,-0.309 -0.124,-0.739 -0.373,-1.417l-11.114,-27.486l5.96,0" style="fill:#313940;"/><path id="Fill-5" d="M133.903,75.69l0,8.566l7.824,0l0,4.129l-7.824,0l0,16.084c0,3.698 1.055,5.794 4.098,5.794c1.428,0 2.484,-0.186 3.167,-0.37l0.248,4.067c-1.056,0.431 -2.732,0.739 -4.843,0.739c-2.546,0 -4.595,-0.8 -5.9,-2.279c-1.551,-1.603 -2.111,-4.253 -2.111,-7.766l0,-16.269l-4.656,0l0,-4.129l4.656,0l0,-7.149l5.341,-1.417" style="fill:#313940;"/><path id="Fill-6" d="M151.786,100.155c0.124,7.334 4.844,10.353 10.308,10.353c3.911,0 6.271,-0.677 8.32,-1.54l0.932,3.882c-1.925,0.863 -5.216,1.849 -9.998,1.849c-9.252,0 -14.778,-6.039 -14.778,-15.036c0,-8.998 5.34,-16.085 14.096,-16.085c9.81,0 12.418,8.566 12.418,14.051c0,1.109 -0.124,1.972 -0.186,2.526l-21.112,0Zm16.02,-3.882c0.062,-3.451 -1.428,-8.813 -7.575,-8.813c-5.526,0 -7.949,5.054 -8.383,8.813l15.958,0Z" style="fill:#313940;"/><path id="Fill-7" d="M181.095,93.561c0,-3.512 -0.062,-6.532 -0.249,-9.305l4.782,0l0.186,5.854l0.249,0c1.365,-4.005 4.657,-6.532 8.32,-6.532c0.621,0 1.056,0.062 1.553,0.185l0,5.115c-0.559,-0.123 -1.119,-0.185 -1.863,-0.185c-3.85,0 -6.582,2.896 -7.327,6.963c-0.125,0.74 -0.249,1.603 -0.249,2.527l0,15.9l-5.402,0l0,-20.522" style="fill:#313940;"/></g></g></svg>