<?xml version="1.0" encoding="UTF-8" standalone="no"?><!DOCTYPE svg PUBLIC "-//W3C//DTD SVG 1.1//EN" "http://www.w3.org/Graphics/SVG/1.1/DTD/svg11.dtd"><svg width="100%" height="100%" viewBox="0 0 69 56" version="1.1" xmlns="http://www.w3.org/2000/svg" xmlns:xlink="http://www.w3.org/1999/xlink" xml:space="preserve" style="fill-rule:evenodd;clip-rule:evenodd;stroke-linejoin:round;stroke-miterlimit:1.41421;"><g><path d="M14.498,0l1.177,0c0.308,0.255 0.923,0.772 1.23,1.028c-5.865,0.03 -6.885,6.284 -8.557,10.47c-1.088,-2.768 -1.2,-5.828 0.195,-8.513c1.477,-1.838 3.9,-2.145 5.955,-2.985Zm-0.173,5.558c3.293,-2.438 6.503,-0.256 9.93,1.785c0.795,3.885 5.13,4.11 7.92,5.962c3.653,0.6 7.208,-1.725 10.86,-1.485c2.085,0.9 4.155,1.83 6.368,2.362c-2.498,0.181 -4.718,-0.862 -6.93,-1.829c-3.6,0.382 -7.065,1.942 -10.74,1.597c-3.428,-1.05 -6.113,-3.885 -9.84,-3.975c-1.35,-4.44 -0.915,3.06 -2.775,4.35c1.027,3.255 4.979,7.028 5.955,9.9c3.39,1.8 -0.435,7.238 1.98,9.345c-1.455,0.398 -0.33,2.123 -0.563,3.172c-0.555,1.786 3.615,1.38 1.493,2.94c2.25,0.615 2.355,4.344 4.972,3.428c0.728,3.51 5.003,-0.157 5.835,2.768c0.713,-1.47 2.378,0.524 2.85,-0.675c0.465,-2.258 2.258,2.474 2.558,-0.031c0.21,-2.654 2.85,1.598 3.382,-0.502c0.465,-1.613 2.153,-0.45 3.308,-0.667c3.195,-0.06 3.09,-4.133 6.052,-4.86c-3.052,-1.726 0.968,-4.276 1.058,-6.781c0.165,0.608 0.345,1.201 0.555,1.793c-1.725,0.788 0.247,3.405 -2.078,3.262c0.615,0.623 1.148,1.313 1.425,2.153c-1.057,0.532 -3.345,0.48 -2.017,2.13c-2.04,1.365 -4.703,4.942 -6.863,2.588c-0.735,3.554 -4.627,-1.186 -5.062,2.37c-1.785,-1.133 -3.57,-0.93 -5.01,0.434c-0.69,-2.73 -3.758,-0.885 -5.61,-2.114c-2.813,-1.418 -5.34,-3.638 -7.17,-6.188c0.412,-4.74 -3.293,-2.295 -6.353,-2.423c-2.565,0.3 -5.085,3.615 -7.672,1.516c0.075,1.185 0.127,2.362 0.165,3.547c-4.185,0.802 -8.34,-0.66 -12.12,-2.333c-0.015,-1.927 0.15,-3.847 0.345,-5.759c3.645,1.62 7.387,3.449 11.482,3.225c-1.815,-5.453 4.755,-6.023 8.355,-6.818c1.253,-2.445 5.798,1.988 5.25,-1.665c0.908,-2.64 -1.711,-3.78 -2.617,-5.955c-3.915,0.848 -8.19,1.583 -11.34,4.11c-1.088,1.53 0.51,3.405 0.525,5.115c-4.395,-0.285 -10.245,-1.073 -11.505,-6.12c0.75,-2.595 0.547,-5.333 1.11,-7.92c-0.803,5.115 4.612,7.935 8.79,8.955c0.082,-3.09 -0.053,-6.21 3.045,-7.86c2.287,-0.57 1.5,-3.15 4.162,-2.415c3.713,0.547 -2.497,-2.978 0.383,-3.6c2.332,-0.765 -1.103,-2.647 1.35,-3.345c-5.325,-0.675 -6.54,3.495 -8.97,7.275c-2.265,-3.938 1.005,-8.31 3.772,-10.762Zm-11.61,9.51c-0.03,-2.49 0.428,-4.943 1.95,-6.975c0.503,2.902 1.117,6.277 4.05,7.65c2.295,1.087 1.515,3.24 1.103,5.264c-3.188,-1.694 -4.95,-2.722 -7.103,-5.939Zm28.725,7.559c5.565,0.076 6.848,9.045 1.185,10.133c-4.965,0.21 -5.557,-8.437 -1.185,-10.133Zm-0.765,3.158c-2.355,2.078 0.443,5.43 2.858,3.112c-1.26,-0.449 -3.278,-1.567 -0.705,-1.725c2.077,-0.224 -1.208,-2.257 -2.153,-1.387Zm15.12,-2.22c2.79,-0.06 6.128,2.46 5.31,5.64c-0.217,2.295 -2.347,3.623 -4.035,4.852c-2.737,0.623 -4.897,-1.702 -7.042,-3c-1.95,-4.214 2.505,-6.464 5.767,-7.492Zm-1.597,3.81c-1.118,0.69 -0.953,3.863 1.215,3.15c3.577,1.365 -1.463,-3.12 2.13,-2.483c0.345,-2.287 -2.265,-0.802 -3.345,-0.667Zm-8.318,4.328c2.79,-0.653 3.825,3.037 5.678,4.477c3.525,4.785 -5.715,9.337 -8.408,4.643c-3.472,-2.993 -0.067,-7.163 2.73,-9.12Zm-2.407,4.515c1.042,1.297 2.565,1.372 3.675,0.112c-1.215,-0.202 -2.453,-0.382 -3.675,-0.112Zm-20.43,11.992c-3.945,3.338 -12.78,1.575 -12.383,-4.447c2.04,2.047 4.86,3.997 7.86,2.872c0.87,-1.35 1.328,0.547 1.995,0.825c0.338,-0.968 0.555,-2.243 1.65,-1.147c2.423,-0.773 4.913,-1.351 7.47,-1.201c-0.96,2.633 -4.462,4.223 -3.892,7.283c-0.78,0.397 -1.56,0.795 -2.34,1.208c-0.398,-1.77 -0.413,-3.586 -0.36,-5.393Z" style="fill:#040204;fill-rule:nonzero;"/><path d="M8.348,11.498c1.672,-4.186 2.692,-10.44 8.557,-10.47c2.46,2.092 4.95,4.147 7.35,6.315c-3.427,-2.041 -6.637,-4.223 -9.93,-1.785c-2.767,2.452 -6.037,6.824 -3.772,10.762c2.43,-3.78 3.645,-7.95 8.97,-7.275c-2.453,0.698 0.982,2.58 -1.35,3.345c-2.88,0.622 3.33,4.147 -0.383,3.6c-2.662,-0.735 -1.875,1.845 -4.162,2.415c-3.098,1.65 -2.963,4.77 -3.045,7.86c-4.178,-1.02 -9.593,-3.84 -8.79,-8.955c0.315,-0.742 0.622,-1.492 0.922,-2.242c2.153,3.217 3.915,4.244 7.103,5.939c0.412,-2.024 1.192,-4.177 -1.103,-5.264c-2.933,-1.373 -3.547,-4.748 -4.05,-7.65c1.073,-1.861 2.295,-3.645 3.878,-5.108c-1.395,2.685 -1.283,5.745 -0.195,8.513Zm10.77,2.827c1.86,-1.29 1.425,-8.79 2.775,-4.35c3.727,0.09 6.412,2.925 9.84,3.975c-2.723,2.003 -5.033,5.092 -4.5,8.663c1.875,-1.38 3.69,-2.836 5.595,-4.186c2.43,0.968 4.98,0.683 7.035,-0.959c1.912,2.662 5.535,0.967 7.995,2.572c2.137,0.923 3.075,4.087 5.782,2.97c0.743,-2.415 0.3,-4.905 -0.622,-7.192c2.767,-1.763 5.91,-4.958 9.382,-3.563c2.685,5.677 -2.595,11.843 -7.41,14.55c-1.552,0.36 -0.682,2.085 -0.877,3.202c1.987,-1.387 3.495,-3.299 4.965,-5.197c0.045,2.197 0.09,4.395 -0.045,6.592c-0.255,0.24 -0.773,0.721 -1.035,0.96c-0.09,2.505 -4.11,5.055 -1.058,6.781c-2.962,0.727 -2.857,4.8 -6.052,4.86c-1.155,0.217 -2.843,-0.946 -3.308,0.667c-0.532,2.1 -3.172,-2.152 -3.382,0.502c-0.3,2.505 -2.093,-2.227 -2.558,0.031c-0.472,1.199 -2.137,-0.795 -2.85,0.675c-0.832,-2.925 -5.107,0.742 -5.835,-2.768c-2.617,0.916 -2.722,-2.813 -4.972,-3.428c2.122,-1.56 -2.048,-1.154 -1.493,-2.94c0.233,-1.049 -0.892,-2.774 0.563,-3.172c-2.415,-2.107 1.41,-7.545 -1.98,-9.345c-0.976,-2.872 -4.928,-6.645 -5.955,-9.9Zm12.322,8.302c-4.372,1.696 -3.78,10.343 1.185,10.133c5.663,-1.088 4.38,-10.057 -1.185,-10.133Zm14.355,0.938c-3.262,1.028 -7.717,3.278 -5.767,7.492c2.145,1.298 4.305,3.623 7.042,3c1.688,-1.229 3.818,-2.557 4.035,-4.852c0.818,-3.18 -2.52,-5.7 -5.31,-5.64Zm-9.915,8.138c-2.797,1.957 -6.202,6.127 -2.73,9.12c2.693,4.694 11.933,0.142 8.408,-4.643c-1.853,-1.44 -2.888,-5.13 -5.678,-4.477Zm-24.217,-5.468c3.15,-2.527 7.425,-3.262 11.34,-4.11c0.906,2.175 3.525,3.315 2.617,5.955c0.548,3.653 -3.997,-0.78 -5.25,1.665c-3.6,0.795 -10.17,1.365 -8.355,6.817c-4.095,0.225 -7.837,-1.604 -11.482,-3.224c-0.698,-2.663 -0.151,-5.431 0.15,-8.108c1.26,5.047 7.11,5.835 11.505,6.12c-0.015,-1.71 -1.613,-3.585 -0.525,-5.115Zm8.152,10.132c3.06,0.128 6.765,-2.317 6.353,2.423c-1.448,2.88 -5.025,3.03 -6.533,6.322c-2.557,-0.15 -5.047,0.428 -7.47,1.2c-1.095,-1.095 -1.312,0.18 -1.65,1.148c-0.667,-0.278 -1.125,-2.175 -1.995,-0.825c-3,1.125 -5.82,-0.825 -7.86,-2.872c-1.282,-1.208 -0.263,-3.12 -0.472,-4.666c3.78,1.673 7.935,3.135 12.12,2.333c-0.038,-1.185 -0.09,-2.362 -0.165,-3.547c2.587,2.099 5.107,-1.216 7.672,-1.516Zm13.658,-0.149c1.222,-0.27 2.46,-0.09 3.675,0.112c-1.11,1.26 -2.633,1.185 -3.675,-0.112Zm22.41,5.482c-1.328,-1.65 0.96,-1.598 2.017,-2.13c0.99,1.133 1.328,2.273 0.42,3.585c2.768,-0.382 1.95,0.991 0.713,2.565c1.552,-0.503 2.782,-0.735 1.455,1.125c3.225,0.758 -1.155,4.455 2.992,3.39c-2.175,2.992 2.91,1.507 0.735,4.732c-9.082,-0.03 -18.165,0.015 -27.247,-0.03c-0.383,-1.019 0.337,-1.695 0.997,-2.339c-0.885,-0.908 -4.612,-2.243 -1.522,-2.581c-2.355,-0.817 -1.815,-3.3 -3.105,-5.039c1.852,1.229 4.92,-0.616 5.61,2.114c1.44,-1.364 3.225,-1.567 5.01,-0.434c0.435,-3.556 4.327,1.184 5.062,-2.37c2.16,2.354 4.823,-1.223 6.863,-2.588Z" style="fill:#fcfefc;fill-rule:nonzero;"/><path d="M52.755,15.172c2.775,-2.452 6.435,-3.502 9.458,-5.617c3.502,0.548 0.945,4.883 2.55,6.893c-2.445,2.782 -3.885,6.3 -4.8,9.854c-0.398,1.703 0.96,4.058 -0.93,5.1c0.135,-2.197 0.09,-4.395 0.045,-6.592c-1.47,1.898 -2.978,3.81 -4.965,5.197c0.195,-1.117 -0.675,-2.842 0.877,-3.202c4.815,-2.707 10.095,-8.873 7.41,-14.55c-3.472,-1.395 -6.615,1.8 -9.382,3.563c0.922,2.287 1.365,4.777 0.622,7.192c-2.707,1.117 -3.645,-2.047 -5.782,-2.97c-2.46,-1.605 -6.083,0.09 -7.995,-2.572c-2.055,1.642 -4.605,1.927 -7.035,0.959c-1.905,1.35 -3.72,2.806 -5.595,4.186c-0.533,-3.571 1.777,-6.66 4.5,-8.663c3.675,0.345 7.14,-1.215 10.74,-1.597c2.212,0.967 4.432,2.01 6.93,1.829c1.125,0.308 2.227,0.676 3.352,0.99Zm3.72,22.245c2.325,0.143 0.353,-2.474 2.078,-3.262c4.74,5.64 8.692,12.187 9.885,19.372c1.845,2.573 -2.775,1.013 -4.223,1.44c2.175,-3.225 -2.91,-1.74 -0.735,-4.732c-4.147,1.065 0.233,-2.632 -2.992,-3.39c1.327,-1.86 0.097,-1.628 -1.455,-1.125c1.237,-1.574 2.055,-2.947 -0.713,-2.565c0.908,-1.312 0.57,-2.452 -0.42,-3.585c-0.277,-0.84 -0.81,-1.53 -1.425,-2.153Zm-30.307,1.373c1.83,2.55 4.357,4.77 7.17,6.188c1.29,1.739 0.75,4.222 3.105,5.039c-3.09,0.338 0.637,1.673 1.522,2.581c-0.66,0.644 -1.38,1.32 -0.997,2.339c-7.733,0.023 -15.465,0.045 -23.205,0c-0.09,-0.337 -0.27,-1.004 -0.36,-1.334c0.78,-0.413 1.56,-0.811 2.34,-1.208c-0.57,-3.06 2.932,-4.65 3.892,-7.283c1.508,-3.292 5.085,-3.442 6.533,-6.322Z" style="fill:#7e7b88;fill-rule:nonzero;"/><path d="M30.675,25.785c0.945,-0.87 4.23,1.163 2.153,1.387c-2.573,0.158 -0.555,1.276 0.705,1.725c-2.415,2.318 -5.213,-1.034 -2.858,-3.112Zm13.523,1.59c1.08,-0.135 3.69,-1.62 3.345,0.667c-3.593,-0.637 1.447,3.848 -2.13,2.483c-2.168,0.713 -2.333,-2.46 -1.215,-3.15Z" style="fill:#ffc504;fill-rule:nonzero;"/></g></svg>