<?xml version="1.0" encoding="UTF-8" standalone="no"?><!DOCTYPE svg PUBLIC "-//W3C//DTD SVG 1.1//EN" "http://www.w3.org/Graphics/SVG/1.1/DTD/svg11.dtd"><svg width="100%" height="100%" viewBox="0 0 109 107" version="1.1" xmlns="http://www.w3.org/2000/svg" xmlns:xlink="http://www.w3.org/1999/xlink" xml:space="preserve" style="fill-rule:evenodd;clip-rule:evenodd;stroke-linejoin:round;stroke-miterlimit:1.41421;"><path d="M99.951,82.41c-5.92,-0.16 -10.443,0.39 -14.309,2.021c-1.099,0.463 -2.851,0.475 -3.03,1.852c0.604,0.633 0.697,1.578 1.177,2.357c0.924,1.494 2.482,3.495 3.873,4.545c1.519,1.147 3.085,2.374 4.714,3.367c2.897,1.767 6.132,2.776 8.922,4.546c1.644,1.043 3.278,2.357 4.882,3.535c0.793,0.582 1.326,1.487 2.356,1.851c0,-0.055 0,-0.111 0,-0.168c-0.541,-0.689 -0.681,-1.637 -1.178,-2.357c-0.729,-0.729 -1.459,-1.459 -2.188,-2.188c-2.14,-2.841 -4.857,-5.335 -7.744,-7.407c-2.303,-1.653 -7.457,-3.886 -8.417,-6.566c-0.057,-0.056 -0.112,-0.112 -0.169,-0.169c1.633,-0.183 3.544,-0.774 5.051,-1.178c2.531,-0.679 4.793,-0.503 7.407,-1.178c1.178,-0.337 2.357,-0.674 3.536,-1.01c0,-0.225 0,-0.449 0,-0.674c-1.322,-1.356 -2.264,-3.15 -3.705,-4.377c-3.769,-3.21 -7.884,-6.417 -12.12,-9.091c-2.35,-1.483 -5.254,-2.447 -7.744,-3.704c-0.838,-0.422 -2.309,-0.642 -2.863,-1.347c-1.308,-1.668 -2.02,-3.781 -3.029,-5.724c-2.114,-4.069 -4.189,-8.513 -6.061,-12.794c-1.277,-2.92 -2.111,-5.799 -3.703,-8.418c-7.644,-12.568 -15.873,-20.153 -28.619,-27.609c-2.712,-1.586 -5.977,-2.212 -9.428,-3.03c-1.851,-0.113 -3.704,-0.225 -5.555,-0.337c-1.131,-0.473 -2.307,-1.856 -3.367,-2.526c-4.223,-2.667 -15.053,-8.47 -18.181,-0.841c-1.975,4.815 2.951,9.513 4.713,11.953c1.237,1.711 2.82,3.63 3.704,5.555c0.581,1.265 0.681,2.534 1.179,3.873c1.224,3.297 2.288,6.884 3.871,9.932c0.8,1.542 1.682,3.166 2.694,4.545c0.62,0.846 1.683,1.219 1.851,2.526c-1.039,1.454 -1.099,3.712 -1.683,5.555c-2.631,8.296 -1.639,18.608 2.189,24.748c1.174,1.885 3.94,5.927 7.743,4.377c3.327,-1.355 2.584,-5.555 3.536,-9.259c0.215,-0.841 0.083,-1.458 0.505,-2.02c0,0.055 0,0.112 0,0.168c1.01,2.02 2.02,4.04 3.03,6.06c2.243,3.612 6.223,7.386 9.596,9.933c1.749,1.321 3.126,3.605 5.387,4.377c0,-0.056 0,-0.111 0,-0.168c-0.057,0 -0.112,0 -0.169,0c-0.438,-0.684 -1.123,-0.966 -1.683,-1.515c-1.317,-1.292 -2.782,-2.898 -3.872,-4.377c-3.067,-4.165 -5.779,-8.724 -8.248,-13.468c-1.18,-2.266 -2.205,-4.766 -3.2,-7.071c-0.383,-0.889 -0.379,-2.233 -1.177,-2.694c-1.089,1.69 -2.694,3.056 -3.536,5.051c-1.347,3.189 -1.521,7.078 -2.02,11.111c-0.295,0.105 -0.164,0.033 -0.337,0.168c-2.345,-0.566 -3.169,-2.979 -4.04,-5.05c-2.204,-5.237 -2.613,-13.669 -0.674,-19.697c0.502,-1.559 2.77,-6.472 1.852,-7.912c-0.438,-1.438 -1.884,-2.269 -2.693,-3.368c-1.002,-1.358 -2.001,-3.146 -2.694,-4.714c-1.804,-4.083 -2.646,-8.667 -4.545,-12.794c-0.908,-1.973 -2.443,-3.97 -3.704,-5.724c-1.396,-1.943 -2.959,-3.374 -4.04,-5.724c-0.385,-0.835 -0.908,-2.172 -0.337,-3.03c0.182,-0.58 0.437,-0.821 1.01,-1.01c0.977,-0.753 3.696,0.25 4.713,0.673c2.7,1.121 4.953,2.189 7.24,3.704c1.098,0.728 2.208,2.135 3.535,2.525c0.505,0 1.01,0 1.515,0c2.37,0.545 5.025,0.169 7.239,0.841c3.913,1.19 7.42,3.04 10.606,5.051c9.703,6.127 17.637,14.849 23.064,25.253c0.873,1.675 1.251,3.274 2.019,5.05c1.552,3.584 3.507,7.271 5.05,10.774c1.541,3.496 3.042,7.024 5.219,9.934c1.146,1.529 5.567,2.349 7.576,3.198c1.409,0.595 3.716,1.216 5.051,2.02c2.548,1.537 5.017,3.367 7.407,5.051c1.195,0.841 4.867,2.687 5.05,4.208Z" style="fill:#00618a;fill-rule:nonzero;"/><path d="M24.701,18.269c-1.235,-0.023 -2.108,0.135 -3.031,0.336c0,0.057 0,0.113 0,0.169c0.056,0 0.112,0 0.169,0c0.588,1.21 1.628,1.988 2.356,3.031c0.561,1.178 1.122,2.357 1.684,3.534c0.055,-0.055 0.112,-0.112 0.168,-0.168c1.042,-0.734 1.52,-1.91 1.515,-3.703c-0.418,-0.44 -0.479,-0.991 -0.842,-1.516c-0.481,-0.698 -1.413,-1.095 -2.019,-1.683Z" style="fill:#00618a;"/></svg>