<?xml version="1.0" encoding="UTF-8" standalone="no"?><!DOCTYPE svg PUBLIC "-//W3C//DTD SVG 1.1//EN" "http://www.w3.org/Graphics/SVG/1.1/DTD/svg11.dtd"><svg width="100%" height="100%" viewBox="0 0 213 205" version="1.1" xmlns="http://www.w3.org/2000/svg" xmlns:xlink="http://www.w3.org/1999/xlink" xml:space="preserve" style="fill-rule:evenodd;clip-rule:evenodd;stroke-linejoin:round;stroke-miterlimit:1.41421;"><path d="M212.415,126.682l-0.06,0.03c-2.076,-0.72 -4.143,-2.103 -6.3,-2.603l-1.086,-0.17l-1.104,0.02c2.85,-1.102 5.708,-2.212 8.588,-3.247c0.007,-12.338 -0.098,-24.668 0.022,-37.005c-2.535,-1.14 -5.152,-2.078 -7.763,-3.015c2.543,-1.005 5.101,-2.003 7.703,-2.873l0.03,-36.847l-0.098,0.03c-0.824,-0.548 -1.687,-1.05 -2.617,-1.388c-33.982,-13.11 -67.958,-26.227 -101.947,-39.307l-1.132,-0.284l-1.134,-0.023c-0.753,0.067 -1.496,0.292 -2.204,0.644c-34.41,13.485 -68.978,26.573 -103.313,40.215l0.247,0.09c-0.104,12.218 -0.067,24.443 0,36.66c2.408,1.298 5.086,2.018 7.598,3.09c-2.595,0.93 -5.212,1.83 -7.71,3.008c0.195,12.345 -0.037,24.69 0.09,37.035c1.294,0.45 2.578,0.93 3.858,1.423l3.829,1.502c-1.312,0.405 -2.594,0.89 -3.864,1.409l-3.785,1.606l-0.068,-0.03c0,12.3 0,24.607 0.008,36.907c32.085,12.578 64.267,24.93 96.367,37.47c3.338,1.253 6.622,2.678 10.073,3.608l-0.06,-0.248l52.95,-20.354c17.641,-6.811 35.276,-13.64 52.912,-20.461l-0.03,-36.892Z" style="fill:#f7f7f7;"/><path d="M80.675,151.877c8.447,3.275 16.9,6.537 25.367,9.762l25.416,-9.752c8.462,-3.279 16.922,-6.564 25.404,-9.785l4.126,1.362l4.012,1.66l-58.913,22.89c-19.912,-7.68 -39.742,-15.555 -59.662,-23.205l1.165,-0.091c2.68,-0.408 5.095,-2.047 7.745,-2.676l25.34,9.835Z" style="fill:#f7f7f7;"/><path d="M109.777,123.562l-3.704,1.395c-1.365,-0.495 -2.731,-0.998 -4.095,-1.485l1.998,-0.519c0.658,-0.205 1.309,-0.438 1.954,-0.681l3.847,1.29Z" style="fill:#f7f7f7;"/><path d="M62.873,102.044c-1.223,0.645 -2.487,1.202 -3.767,1.719l-3.868,1.476c-2.618,-1.012 -5.22,-2.047 -7.831,-3.067l4.155,-1.772c1.395,-0.572 2.82,-1.037 4.335,-1.131l6.976,2.775Z" style="fill:#f7f7f7;"/><path d="M164.962,102.202l-7.589,2.97c-2.828,-0.72 -5.498,-1.898 -8.145,-3.098c2.654,-1.05 5.317,-2.077 7.995,-3.082l7.739,3.21Z" style="fill:#f7f7f7;"/><path d="M109.17,80.429l1.538,-0.15l-2.31,0.964l-2.348,0.874c-1.365,-0.548 -2.745,-1.065 -4.117,-1.598l4.02,-1.147l3.217,1.057Z" style="fill:#f7f7f7;"/><path d="M135.657,47.751l29.568,11.386l-7.905,3.075c-12.943,-4.647 -25.692,-9.824 -38.529,-14.759l-12.876,-4.824l-19.996,7.745c-6.659,2.598 -13.319,5.193 -20.002,7.728c-2.773,1.001 -5.461,2.247 -8.246,3.209l-2.824,0.848c-2.542,-0.915 -5.032,-1.972 -7.537,-2.985l29.384,-11.483c9.794,-3.832 19.595,-7.649 29.424,-11.399l29.539,11.459Z" style="fill:#f7f7f7;"/><path d="M55.335,142.042c-2.65,0.629 -5.065,2.268 -7.745,2.676l-1.165,0.091c-15.36,-6.12 -30.847,-11.902 -46.162,-18.127l3.785,-1.606c1.27,-0.519 2.552,-1.004 3.864,-1.409l47.423,18.375Z" style="fill:#9c002f;"/><path d="M84.472,110.4c7.191,2.81 14.389,5.602 21.638,8.249l0.81,-0.285c-0.416,0.566 -0.636,1.204 -0.765,1.869l-0.225,2.039c-0.645,0.243 -1.296,0.476 -1.954,0.681l-1.998,0.519c-15.585,-6.075 -31.17,-12.143 -46.74,-18.233l3.868,-1.476c1.28,-0.517 2.544,-1.074 3.767,-1.719l21.599,8.356Z" style="fill:#9c002f;"/><path d="M47.407,102.172c-15.764,-6.135 -31.567,-12.188 -47.272,-18.465c2.498,-1.178 5.115,-2.078 7.71,-3.008c8.021,3.056 16.024,6.171 24.026,9.285l24.026,9.285c-1.515,0.094 -2.94,0.559 -4.335,1.131l-4.155,1.772Z" style="fill:#9c002f;"/><path d="M105.965,61l-0.012,18.372l-4.02,1.147c-15.676,-6.165 -31.381,-12.27 -47.086,-18.36l2.824,-0.848c2.785,-0.962 5.473,-2.208 8.246,-3.209c13.366,-5.07 26.641,-10.38 39.998,-15.473l0.05,18.371Z" style="fill:#9c002f;"/><path d="M106.651,0.023l1.132,0.284l-1.703,-0.255l-0.085,18.12l0.123,18.12c-9.829,3.75 -19.63,7.567 -29.424,11.399l-29.384,11.483c-15.713,-6.007 -31.32,-12.292 -47.063,-18.225l-0.247,-0.09c34.335,-13.642 68.903,-26.73 103.312,-40.215c0.709,-0.352 1.452,-0.577 2.205,-0.644l1.134,0.023Z" style="fill:#9c002f;"/><path d="M204.866,123.941l0.296,0.028l0.554,0.087l1.411,0.369l1.388,0.575l1.764,0.828l2.076,0.884c-7.86,3.146 -15.752,6.219 -23.652,9.271l-23.703,9.141c-2.632,-1.207 -5.355,-2.212 -8.138,-3.022c15.66,-6.075 31.328,-12.113 47.003,-18.143l1.001,-0.018Z" style="fill:#f40049;"/><path d="M155.279,104.553l2.094,0.619c-7.939,3.048 -15.865,6.133 -23.792,9.211l-23.804,9.179c-1.282,-0.443 -2.557,-0.885 -3.847,-1.29c0.112,-1.358 0.157,-2.775 0.99,-3.908c14.115,-5.4 28.2,-10.882 42.308,-16.29c1.14,0.517 2.284,1.029 3.472,1.499l0.532,0.23l2.047,0.75Z" style="fill:#f40049;"/><path d="M164.962,102.202c-2.557,-1.133 -5.145,-2.175 -7.739,-3.21c15.824,-6.113 31.642,-12.248 47.489,-18.3c1.306,0.468 2.612,0.937 3.91,1.431l3.853,1.584c-7.886,3.165 -15.806,6.245 -23.734,9.306l-23.779,9.189Z" style="fill:#f40049;"/><path d="M105.953,79.372c-0.008,-12.248 0.052,-24.495 -0.038,-36.743c17.235,6.248 34.147,13.388 51.405,19.583c-15.54,6.022 -31.065,12.067 -46.612,18.067l-1.538,0.15l-3.217,-1.057Z" style="fill:#f40049;"/><path d="M165.225,59.137c-19.755,-7.478 -39.39,-15.27 -59.107,-22.845c-0.196,-12.075 -0.12,-24.165 -0.038,-36.24c0.427,0.06 1.275,0.187 1.703,0.255c33.989,13.08 67.965,26.197 101.947,39.307c0.465,0.169 0.913,0.379 1.348,0.615l1.269,0.773c-7.889,2.921 -15.736,5.962 -23.578,9.019l-23.544,9.116Z" style="fill:#f40049;"/><path d="M208.712,125.082l1.567,0.746l-1.764,-0.828l0.197,0.082Z" style="fill:#f40049;"/><path d="M205.514,124.003l0.202,0.053l-0.554,-0.087l0.352,0.034Z" style="fill:#f40049;"/><path d="M204.866,123.941l-1.001,0.018c0.33,-0.038 0.658,-0.046 1.001,-0.018Z" style="fill:#f40049;"/><path d="M152.7,103.573l2.579,0.98l-2.047,-0.75l-0.532,-0.23Z" style="fill:#f40049;"/><path d="M0.263,126.682c15.315,6.225 30.802,12.007 46.162,18.127c19.92,7.65 39.75,15.525 59.662,23.205c-0.149,10.673 0.023,21.353 -0.097,32.025c-0.037,1.47 0.225,2.925 0.593,4.35l0.06,0.248c-3.451,-0.93 -6.735,-2.355 -10.073,-3.608c-32.1,-12.54 -64.282,-24.892 -96.367,-37.47c-0.008,-12.3 -0.008,-24.607 -0.008,-36.907l0.068,0.03Z" style="fill:#00b4ff;"/><path d="M55.335,142.042c-15.817,-6.105 -31.597,-12.3 -47.423,-18.375c-2.549,-1.005 -5.099,-2.025 -7.687,-2.925c-0.127,-12.345 0.105,-24.69 -0.09,-37.035c15.705,6.277 31.508,12.33 47.272,18.465c2.611,1.02 5.213,2.055 7.831,3.067c15.57,6.09 31.155,12.158 46.74,18.233c1.364,0.487 2.73,0.99 4.095,1.485c-0.045,6.112 -0.055,12.226 -0.052,18.341l0.021,18.341c-8.467,-3.225 -16.92,-6.487 -25.367,-9.762l-25.34,-9.835Z" style="fill:#00b4ff;"/><path d="M62.873,102.044c-2.333,-0.922 -4.628,-1.912 -6.976,-2.775c-16.042,-6.112 -32.009,-12.457 -48.052,-18.57c-2.512,-1.072 -5.19,-1.792 -7.598,-3.09c-0.067,-12.217 -0.104,-24.442 0,-36.66c15.743,5.933 31.35,12.218 47.063,18.225c2.505,1.013 4.995,2.07 7.537,2.985c15.705,6.09 31.41,12.195 47.086,18.36c1.372,0.533 2.752,1.05 4.117,1.598c0,6.086 -0.026,12.176 -0.032,18.266l0.092,18.266c-7.249,-2.647 -14.447,-5.439 -21.638,-8.249l-21.599,-8.356Z" style="fill:#00b4ff;"/><path d="M212.415,126.682c0.052,12.3 -0.007,24.592 0.03,36.892c-17.636,6.821 -35.271,13.65 -52.912,20.461l-52.95,20.354c-0.368,-1.425 -0.63,-2.88 -0.593,-4.35c0.12,-10.672 -0.052,-21.352 0.097,-32.025l58.913,-22.89l23.703,-9.141c7.9,-3.052 15.792,-6.125 23.652,-9.271l0.06,-0.03Z" style="fill:#016d9b;"/><path d="M212.422,102.209c0.01,6.167 0.034,12.334 0.031,18.503c-2.88,1.035 -5.738,2.145 -8.588,3.247l-47.003,18.143c-8.482,3.221 -16.942,6.506 -25.404,9.785l-25.416,9.752l-0.021,-18.341c-0.003,-6.115 0.007,-12.229 0.052,-18.341l3.704,-1.395c15.938,-6.071 31.74,-12.302 47.596,-18.39l7.589,-2.97l23.779,-9.189c7.928,-3.061 15.848,-6.141 23.734,-9.306l-0.053,18.502Z" style="fill:#016d9b;"/><path d="M212.415,77.819c-2.602,0.87 -5.16,1.868 -7.703,2.873c-15.847,6.052 -31.665,12.187 -47.489,18.3c-2.678,1.005 -5.341,2.032 -7.995,3.082c-14.108,5.408 -28.193,10.89 -42.308,16.29l-0.81,0.285l-0.092,-18.266c0.006,-6.09 0.032,-12.18 0.032,-18.266l2.348,-0.874l2.31,-0.964c15.547,-6 31.072,-12.045 46.612,-18.067l7.905,-3.075l23.544,-9.116c7.842,-3.057 15.689,-6.098 23.578,-9.019l0.098,-0.03l-0.03,36.847Z" style="fill:#016d9b;"/></svg>