<?xml version="1.0" encoding="UTF-8" standalone="no"?><!DOCTYPE svg PUBLIC "-//W3C//DTD SVG 1.1//EN" "http://www.w3.org/Graphics/SVG/1.1/DTD/svg11.dtd"><svg width="100%" height="100%" viewBox="0 0 125 109" version="1.1" xmlns="http://www.w3.org/2000/svg" xmlns:xlink="http://www.w3.org/1999/xlink" xml:space="preserve" style="fill-rule:evenodd;clip-rule:evenodd;stroke-linejoin:round;stroke-miterlimit:1.41421;"><g><path d="M64.564,95.25c-0.157,-1.068 0.147,-2.131 -0.174,-3.133c-0.276,-0.874 -0.907,-0.954 -1.322,-1.665c-1.093,-1.866 -2.222,-4.282 -2.326,-6.566c-0.096,-2.051 -0.85,-3.904 -0.953,-5.938c-0.049,-0.981 0.066,-1.992 0.031,-2.964c-0.019,-0.472 -0.046,-0.882 -0.14,-1.395c-0.023,-0.126 -0.107,-0.648 -0.146,-0.858l0.255,-0.636c-0.112,-0.218 2.177,-0.145 2.859,-0.141c1.159,0.015 2.249,0.075 3.404,0.13c2.362,0.117 4.513,0.088 6.812,-0.267c5.124,-0.791 7.48,-2.884 8.685,-3.754c4.705,-3.392 6.859,-8.938 6.859,-8.938c0.777,-1.733 0.774,-4.823 2.438,-6.207c1.961,-1.634 5.254,-1.517 7.506,-2.519c1.317,-0.583 2.267,-0.904 3.614,-0.625c0.999,0.208 2.797,1.366 3.21,-0.259c-0.333,-0.215 -0.464,-0.609 -0.642,-0.827c1.856,-0.184 0.035,-4.49 -0.699,-5.35c-1.134,-1.327 -3.027,-1.936 -5.04,-2.47c-2.391,-0.633 -4.56,-1.365 -6.811,-0.923c-3.932,0.77 -3.638,-1.48 -5.954,-1.48c-2.781,0 -7.728,0.136 -8.583,2.839c-0.398,1.262 -0.808,1.315 -1.498,2.283c-0.59,0.83 0.103,1.562 -0.194,2.508c-0.306,0.973 -0.755,4.399 -1.224,5.594c-0.792,2.023 -1.737,4.549 -3.482,4.549c-2.446,0.293 -4.368,0.386 -6.352,-0.334c-1.194,-0.433 -3.195,-1.112 -4.185,-1.529c-4.566,-1.922 -5.316,-4.025 -5.316,-4.025c-0.489,-0.81 -1.78,-2.116 -2.263,-3.82c-0.531,-1.876 -1.427,-3.442 -1.79,-4.418c-0.376,-1.012 -1.275,-2.633 -1.98,-4.385c-0.904,-2.243 -2.175,-3.917 -3.106,-4.748c-1.422,-1.267 -2.735,-3.229 -5.621,-2.659c-0.516,0.102 -2.391,0.186 -3.828,1.392c-0.975,0.817 -1.282,2.504 -2.184,3.927c-0.522,0.822 -1.438,3.18 -2.279,5.147c-0.583,1.363 -0.854,2.386 -1.484,2.887c-0.493,0.393 -1.103,0.901 -1.842,0.624c-0.458,-0.171 -0.948,-0.462 -1.442,-0.849c-0.668,-0.521 -2.185,-3.103 -3.117,-5.01c-0.808,-1.654 -2.532,-4.127 -3.53,-5.466c-1.435,-1.926 -2.277,-2.414 -4.398,-2.414c-4.55,0 -4.894,2.548 -6.896,6.253c-0.879,1.627 -1.199,4.21 -2.964,6.235c-1.009,1.158 -4.228,5.919 -6.466,6.729l0,-0.024l-0.006,0.024l0,33.942l0.006,0.047l0,-0.213c0.145,-0.442 0.299,-0.867 0.473,-1.246c0.866,-1.844 2.874,-3.556 3.99,-5.45c0.607,-1.032 1.299,-2.043 1.701,-3.126c0.346,-0.933 0.516,-2.324 1.016,-3.133c0.612,-0.992 1.57,-1.33 2.554,-1.49c1.542,-0.255 2.851,2.215 4.823,3.124c0.841,0.386 4.711,1.757 5.872,2.038c1.914,0.457 4.036,0.839 5.979,1.231c1.04,0.21 2.034,0.333 3.105,0.441c0.961,0.096 4.56,0.216 4.783,0.476c-1.829,0.933 -2.902,3.552 -3.589,5.405c-0.716,1.931 -1.215,4.081 -2.081,5.97c-0.959,2.087 -2.971,2.956 -2.731,5.388c0.093,0.971 0.27,1.988 0.108,3.056c-0.173,1.125 -0.627,2.002 -0.958,3.103c-0.425,1.436 -0.93,6.075 -1.585,7.439l4.003,-0.502l0.007,-0.002c0.437,-1.04 0.84,-5.428 0.981,-5.846c0.749,-2.2 1.742,-4.011 3.27,-5.713c1.489,-1.658 1.412,-3.795 2.282,-5.727c0.942,-2.1 2.209,-3.78 3.404,-5.754c2.161,-3.569 3.586,-8.075 8.18,-8.991c0.49,-0.102 3.303,1.926 4.551,3.132c1.429,1.374 2.991,2.966 3.93,4.86c1.818,3.672 3.36,8.991 3.943,11.925c0.335,1.684 0.602,1.785 1.742,3.119c0.524,0.611 1.57,2.521 1.914,3.255c0.362,0.783 0.912,2.565 1.35,3.475c0.258,0.541 0.927,2.205 1.413,3.642l3.741,-0.117c0.013,0.031 0.081,-0.009 0.097,0.02c0.002,0 0.004,-0.001 0.005,-0.002c-0.015,-0.028 -0.03,-0.061 -0.043,-0.092c-1.864,-3.74 -3.056,-8.067 -3.672,-12.209Z" style="fill:#fff;fill-rule:nonzero;"/><path d="M62.189,73.426l0.017,-0.046c-0.025,-0.115 -0.034,-0.142 -0.017,0.046Z" style="fill:#484444;fill-rule:nonzero;"/><g><path d="M62.189,73.426l0.017,-0.046c-0.025,-0.115 -0.034,-0.142 -0.017,0.046Z" style="fill:url(#_Linear1);fill-rule:nonzero;"/><path d="M63.023,104.006c-0.438,-0.91 -0.987,-2.692 -1.349,-3.475c-0.344,-0.734 -1.391,-2.643 -1.915,-3.255c-1.14,-1.335 -1.406,-1.435 -1.741,-3.12c-0.583,-2.933 -2.126,-8.253 -3.944,-11.924c-0.939,-1.894 -2.5,-3.486 -3.93,-4.86c-1.248,-1.205 -4.06,-3.234 -4.551,-3.133c-4.593,0.918 -6.018,5.423 -8.179,8.992c-1.196,1.974 -2.462,3.653 -3.404,5.753c-0.87,1.932 -0.793,4.07 -2.283,5.728c-1.527,1.703 -2.52,3.513 -3.269,5.713c-0.142,0.418 -0.544,4.806 -0.982,5.846c0,0 0,0.001 0,0.002l6.828,-0.481c6.361,0.434 4.524,2.872 14.454,2.341l15.68,-0.485c-0.488,-1.438 -1.157,-3.101 -1.415,-3.642Z" style="fill:url(#_Linear2);fill-rule:nonzero;"/><path d="M108.521,0l-92.872,0c-8.639,0 -15.642,7.004 -15.642,15.643l0,34.13c2.238,-0.809 5.457,-5.571 6.466,-6.729c1.765,-2.025 2.085,-4.608 2.964,-6.235c2.002,-3.705 2.346,-6.253 6.896,-6.253c2.121,0 2.964,0.489 4.398,2.415c0.999,1.338 2.723,3.812 3.53,5.465c0.931,1.908 2.449,4.489 3.117,5.011c0.494,0.387 0.984,0.677 1.442,0.849c0.738,0.276 1.349,-0.231 1.842,-0.624c0.63,-0.502 0.902,-1.524 1.485,-2.888c0.841,-1.967 1.757,-4.324 2.278,-5.147c0.902,-1.422 1.21,-3.11 2.184,-3.927c1.437,-1.205 3.312,-1.29 3.828,-1.392c2.887,-0.57 4.199,1.392 5.621,2.659c0.931,0.831 2.203,2.505 3.106,4.749c0.706,1.752 1.604,3.372 1.98,4.384c0.363,0.977 1.259,2.542 1.79,4.418c0.482,1.704 1.773,3.01 2.264,3.82c0,0 0.75,2.103 5.316,4.025c0.99,0.417 2.991,1.095 4.185,1.53c1.983,0.72 3.905,0.627 6.351,0.333c1.745,0 2.69,-2.526 3.483,-4.548c0.468,-1.196 0.918,-4.622 1.224,-5.595c0.296,-0.946 -0.397,-1.678 0.193,-2.508c0.69,-0.968 1.1,-1.02 1.499,-2.283c0.855,-2.703 5.802,-2.839 8.582,-2.839c2.317,0 2.023,2.25 5.954,1.48c2.252,-0.441 4.421,0.291 6.812,0.924c2.013,0.534 3.905,1.142 5.039,2.469c0.734,0.86 2.554,5.166 0.699,5.35c0.178,0.218 0.309,0.612 0.643,0.827c-0.414,1.625 -2.212,0.468 -3.211,0.259c-1.346,-0.279 -2.297,0.042 -3.614,0.625c-2.251,1.003 -5.544,0.886 -7.506,2.519c-1.664,1.385 -1.661,4.475 -2.437,6.207c0,0 -2.155,5.546 -6.86,8.939c-1.205,0.87 -3.561,2.962 -8.685,3.753c-2.299,0.356 -4.45,0.385 -6.811,0.267c-1.156,-0.055 -2.246,-0.114 -3.404,-0.129c-0.683,-0.006 -2.973,-0.078 -2.859,0.141l-0.255,0.636c0.039,0.209 0.123,0.732 0.146,0.858c0.094,0.513 0.12,0.923 0.139,1.395c0.036,0.971 -0.08,1.983 -0.03,2.964c0.102,2.033 0.857,3.886 0.952,5.937c0.104,2.284 1.234,4.701 2.327,6.566c0.414,0.71 1.046,0.791 1.321,1.666c0.323,1.002 0.017,2.064 0.174,3.132c0.615,4.141 1.808,8.469 3.672,12.207c0.013,0.03 0.028,0.064 0.044,0.092c0,0 0,0.001 0,0.001c2.303,-0.387 4.61,-1.215 7.602,-1.657c5.485,-0.814 13.114,-0.395 18.015,-0.854c12.399,-1.165 19.129,5.086 30.266,2.524l0,-91.918c-0.002,-8.639 -7.002,-15.643 -15.643,-15.643Zm-46.332,73.426c-0.017,-0.188 -0.009,-0.162 0.017,-0.046l-0.017,0.046Z" style="fill:url(#_Linear3);fill-rule:nonzero;"/><path d="M28.631,87.79c0.866,-1.889 1.365,-4.039 2.081,-5.97c0.687,-1.854 1.76,-4.472 3.589,-5.406c-0.222,-0.26 -3.822,-0.379 -4.783,-0.475c-1.071,-0.109 -2.065,-0.231 -3.105,-0.441c-1.943,-0.392 -4.065,-0.773 -5.979,-1.231c-1.161,-0.282 -5.031,-1.652 -5.872,-2.038c-1.972,-0.909 -3.281,-3.379 -4.823,-3.125c-0.984,0.161 -1.942,0.498 -2.554,1.49c-0.5,0.81 -0.67,2.2 -1.016,3.134c-0.401,1.083 -1.094,2.094 -1.701,3.126c-1.116,1.893 -3.124,3.605 -3.99,5.45c-0.174,0.379 -0.328,0.803 -0.473,1.246l0,21.085c1.01,0.172 2.066,0.385 3.248,0.7c8.723,2.328 10.851,2.525 19.407,1.547l0.803,-0.107l0,0c0.655,-1.364 1.16,-6.003 1.585,-7.439c0.331,-1.101 0.785,-1.978 0.957,-3.103c0.163,-1.068 -0.015,-2.085 -0.107,-3.056c-0.238,-2.432 1.774,-3.3 2.733,-5.387Z" style="fill:url(#_Linear4);fill-rule:nonzero;"/></g></g><defs><linearGradient id="_Linear1" x1="0" y1="0" x2="1" y2="0" gradientUnits="userSpaceOnUse" gradientTransform="matrix(8.36281e-18,0.136575,-0.136575,8.36281e-18,62.1935,73.2888)"><stop offset="0%" style="stop-color:#f29100;stop-opacity:1"/><stop offset="100%" style="stop-color:#ec670f;stop-opacity:1"/></linearGradient><linearGradient id="_Linear2" x1="0" y1="0" x2="1" y2="0" gradientUnits="userSpaceOnUse" gradientTransform="matrix(2.08019e-15,33.9721,-33.9721,2.08019e-15,45.9566,74.2357)"><stop offset="0%" style="stop-color:#f29100;stop-opacity:1"/><stop offset="100%" style="stop-color:#ec670f;stop-opacity:1"/></linearGradient><linearGradient id="_Linear3" x1="0" y1="0" x2="1" y2="0" gradientUnits="userSpaceOnUse" gradientTransform="matrix(6.62433e-15,108.184,-108.184,6.62433e-15,62.0857,-0.00015)"><stop offset="0%" style="stop-color:#f29100;stop-opacity:1"/><stop offset="100%" style="stop-color:#ec670f;stop-opacity:1"/></linearGradient><linearGradient id="_Linear4" x1="0" y1="0" x2="1" y2="0" gradientUnits="userSpaceOnUse" gradientTransform="matrix(2.3483e-15,38.3507,-38.3507,2.3483e-15,17.1532,69.0858)"><stop offset="0%" style="stop-color:#f29100;stop-opacity:1"/><stop offset="100%" style="stop-color:#ec670f;stop-opacity:1"/></linearGradient></defs></svg>