<?xml version="1.0" encoding="UTF-8" standalone="no"?><!DOCTYPE svg PUBLIC "-//W3C//DTD SVG 1.1//EN" "http://www.w3.org/Graphics/SVG/1.1/DTD/svg11.dtd"><svg width="100%" height="100%" viewBox="0 0 72 18" version="1.1" xmlns="http://www.w3.org/2000/svg" xmlns:xlink="http://www.w3.org/1999/xlink" xml:space="preserve" style="fill-rule:evenodd;clip-rule:evenodd;stroke-linejoin:round;stroke-miterlimit:1.41421;"><rect x="0" y="0" width="72" height="18" style="fill:#eb222c;"/><g><path d="M31.625,10.225l4.164,0l-2.2,-3.545l-4.038,6.408l-1.84,0.001l4.916,-7.695c0.208,-0.312 0.568,-0.5 0.959,-0.5c0.387,0 0.742,0.182 0.952,0.487l4.932,7.708l-1.842,-0.001l-0.863,-1.432l-4.22,0l-0.92,-1.431Zm19.104,1.432l0,-6.683l-1.562,0l0,7.337c0,0.203 0.083,0.396 0.228,0.542c0.152,0.151 0.354,0.235 0.571,0.235l7.116,0l0.918,-1.431l-7.271,0Zm-25.816,-1.196c1.515,0 2.743,-1.229 2.743,-2.744c0,-1.515 -1.228,-2.743 -2.743,-2.743l-6.829,0l0,8.114l1.56,0l0,-6.684l5.162,0c0.727,0 1.313,0.587 1.313,1.313c0,0.725 -0.586,1.314 -1.313,1.314l-4.398,-0.001l4.657,4.058l2.267,0l-3.133,-2.629l0.714,0.002Zm-16.432,2.627c-2.24,0 -4.058,-1.816 -4.058,-4.057c0,-2.241 1.818,-4.057 4.058,-4.057l4.716,0c2.241,0 4.057,1.816 4.057,4.057c0,2.242 -1.816,4.058 -4.057,4.058l-4.716,-0.001Zm4.611,-1.43c1.451,0 2.627,-1.176 2.627,-2.627c0,-1.451 -1.176,-2.627 -2.627,-2.627l-4.507,0c-1.45,0 -2.626,1.176 -2.626,2.627c0,1.451 1.176,2.627 2.626,2.627l4.507,0Zm29.633,1.43c-2.24,0 -4.057,-1.816 -4.057,-4.057c0,-2.241 1.817,-4.057 4.057,-4.057l5.605,0l-0.918,1.43l-4.581,0c-1.452,0 -2.628,1.176 -2.628,2.627c0,1.451 1.176,2.627 2.628,2.627l5.626,0l-0.917,1.43l-4.815,0Zm19.088,-1.43c-1.201,0 -2.216,-0.807 -2.526,-1.909l6.67,0l0.919,-1.431l-7.591,0c0.31,-1.105 1.324,-1.914 2.528,-1.914l4.578,0l0.92,-1.43l-5.605,0c-2.239,0 -4.057,1.816 -4.057,4.057c0,2.241 1.818,4.057 4.057,4.057l4.815,0l0.917,-1.43l-5.625,0Z" style="fill:#fff;fill-rule:nonzero;"/><path d="M68.147,5.837c0,-0.395 0.32,-0.716 0.717,-0.716c0.396,0 0.716,0.321 0.716,0.716c0,0.398 -0.32,0.719 -0.716,0.719c-0.397,0 -0.717,-0.321 -0.717,-0.719Zm0.717,0.916c0.504,0 0.913,-0.409 0.913,-0.912c0,-0.505 -0.409,-0.912 -0.913,-0.912c-0.503,0 -0.911,0.407 -0.911,0.912c0,0.503 0.408,0.912 0.911,0.912Zm-0.086,-1.454c0.14,0 0.198,0.002 0.267,0.028c0.18,0.06 0.199,0.226 0.199,0.286c0,0.013 -0.002,0.048 -0.011,0.084c-0.011,0.039 -0.033,0.117 -0.127,0.176c-0.011,0.007 -0.017,0.013 -0.046,0.023l0.237,0.425l-0.229,0l-0.208,-0.39l-0.139,0l0,0.39l-0.2,0l0,-1.022l0.257,0Zm0.071,0.462c0.062,-0.001 0.13,-0.006 0.17,-0.064c0.017,-0.025 0.024,-0.053 0.024,-0.088c0,-0.055 -0.03,-0.1 -0.078,-0.124c-0.046,-0.017 -0.092,-0.017 -0.187,-0.017l-0.057,0l0,0.293l0.128,0Z" style="fill:#fff;fill-rule:nonzero;"/></g></svg>