<?xml version="1.0" encoding="UTF-8" ?>
<!DOCTYPE svg PUBLIC "-//W3C//DTD SVG 1.1//EN" "http://www.w3.org/Graphics/SVG/1.1/DTD/svg11.dtd">
<svg width="1000pt" height="686pt" viewBox="0 0 1000 686" version="1.1" xmlns="http://www.w3.org/2000/svg">
<g id="#363254ff">
<path fill="#363254" opacity="1.00" d=" M 256.34 0.00 L 263.62 0.00 C 277.97 0.72 291.99 5.36 304.15 12.98 L 304.83 13.07 C 311.13 10.23 317.46 7.41 324.08 5.39 C 342.28 0.29 362.13 0.58 379.91 7.21 C 398.33 13.99 413.59 27.66 424.30 43.91 L 424.91 44.24 C 481.26 42.89 537.61 41.38 593.98 41.30 C 640.42 41.20 687.50 47.99 730.38 66.46 C 758.20 78.29 783.76 95.46 804.97 117.01 C 831.91 117.01 858.85 117.11 885.79 116.96 C 892.41 108.20 900.98 101.13 909.98 94.93 C 918.57 89.01 928.45 84.51 939.01 83.97 C 948.39 83.36 958.61 85.62 965.46 92.44 C 970.57 97.46 972.48 105.16 970.77 112.07 C 978.92 113.98 987.27 116.72 993.55 122.51 C 996.96 125.57 999.34 129.76 1000.00 134.33 L 1000.00 137.60 C 998.23 149.57 986.08 155.59 975.70 158.82 C 978.63 165.87 977.44 174.50 972.19 180.15 C 964.91 188.10 953.44 190.64 943.04 190.02 C 931.34 189.41 920.58 184.18 910.59 178.46 C 901.33 172.97 892.08 166.75 885.80 157.83 C 869.13 157.70 852.46 157.79 835.79 157.78 C 858.69 196.68 868.93 242.09 869.27 286.99 C 869.74 313.42 864.94 340.13 853.70 364.15 C 854.10 365.73 854.60 367.31 854.46 368.97 C 854.45 441.98 854.46 515.00 854.45 588.01 C 854.33 600.80 855.39 613.97 851.15 626.28 C 846.61 640.66 836.18 652.65 823.47 660.49 C 809.94 668.90 794.44 673.60 778.84 676.37 C 761.73 679.41 744.29 680.17 726.94 679.78 C 709.30 679.29 691.59 677.35 674.58 672.51 C 660.46 668.42 646.68 662.12 635.74 652.12 C 618.98 649.97 602.08 646.67 586.68 639.40 C 573.03 633.05 560.54 623.12 553.41 609.65 C 548.34 600.28 546.06 589.59 545.97 578.99 C 545.85 551.84 546.09 524.68 545.85 497.54 C 535.33 497.15 524.87 495.93 514.47 494.36 C 514.37 533.25 514.50 572.14 514.41 611.02 C 514.37 625.53 509.81 640.24 500.40 651.43 C 488.49 665.85 470.81 674.08 453.07 678.83 C 436.31 683.57 418.84 684.48 401.59 686.00 L 388.47 686.00 C 370.91 684.45 353.12 683.50 336.08 678.55 C 317.53 673.49 299.14 664.31 287.48 648.52 C 268.85 645.53 249.98 640.58 234.23 629.78 C 221.93 621.51 212.29 609.04 208.51 594.60 C 205.32 583.68 206.16 572.22 206.05 561.00 C 206.04 504.96 206.07 448.93 206.04 392.89 C 191.35 391.25 175.28 392.27 162.64 400.71 C 151.49 408.18 144.96 420.66 141.20 433.21 C 137.82 444.53 136.31 456.30 135.50 468.06 C 130.55 516.97 126.69 565.98 122.96 615.00 C 122.90 622.25 121.52 629.60 118.04 636.03 C 113.66 644.35 106.10 650.62 97.65 654.53 C 85.64 660.07 72.20 661.67 59.10 661.44 C 43.18 661.10 26.26 657.84 13.84 647.21 C 5.42 640.16 0.77 629.45 0.00 618.62 L 0.00 251.44 C 0.63 228.88 1.08 206.18 5.13 183.91 C 8.03 167.57 12.85 151.42 20.82 136.81 C 27.96 123.60 37.73 111.85 49.28 102.26 C 62.43 91.30 77.65 83.04 93.48 76.63 C 115.75 67.58 139.30 62.17 162.90 57.96 C 178.40 43.03 194.19 28.27 211.70 15.68 C 224.54 6.08 240.44 1.09 256.34 0.00 M 220.15 29.23 C 209.79 36.87 199.88 45.18 190.59 54.07 C 205.68 52.40 220.81 51.07 235.98 50.25 C 237.12 50.13 238.40 50.25 239.38 49.53 C 254.97 39.78 270.83 30.45 287.07 21.84 C 265.76 11.33 238.84 14.85 220.15 29.23 M 331.50 19.72 C 330.22 20.15 328.69 20.14 327.66 21.11 C 321.53 22.71 315.78 25.52 310.00 28.09 C 279.48 42.79 250.80 61.04 222.59 79.70 C 220.30 81.44 217.13 81.59 214.39 81.05 C 210.30 79.69 207.54 74.90 209.35 70.78 C 209.98 69.85 210.50 68.86 211.03 67.87 C 174.42 71.13 137.53 76.75 103.09 90.11 C 86.37 96.77 70.26 105.60 57.00 117.92 C 46.13 127.85 37.47 140.14 31.53 153.60 C 24.56 169.60 20.66 186.88 19.17 204.22 C 18.77 207.14 18.28 210.10 18.31 213.04 L 18.06 212.73 C 16.54 230.14 15.77 247.63 15.74 265.12 C 15.66 275.77 15.55 286.45 15.77 297.10 L 15.28 297.14 C 15.45 311.30 15.20 325.46 15.27 339.62 C 14.86 371.50 15.12 403.38 15.29 435.26 C 15.35 445.90 15.48 456.55 15.69 467.19 C 15.78 475.38 15.96 483.56 16.14 491.75 C 16.54 506.01 16.43 520.28 16.52 534.54 C 16.28 558.68 16.49 582.84 16.42 606.98 C 16.54 613.01 15.86 619.24 17.93 625.03 C 19.85 630.82 24.12 635.65 29.36 638.71 C 39.46 644.58 51.50 645.78 62.97 645.72 C 74.61 645.45 87.03 643.77 96.56 636.54 C 103.20 631.55 106.61 623.22 106.53 615.04 C 110.25 565.31 114.22 515.59 119.21 465.97 C 120.03 454.18 121.65 442.40 124.81 430.99 C 129.31 414.70 137.78 398.74 151.84 388.80 C 165.37 378.99 182.58 375.91 198.99 376.51 C 203.44 376.88 207.81 375.56 211.88 373.89 C 224.76 368.21 234.04 356.78 240.72 344.73 C 251.71 324.31 256.46 300.98 256.97 277.93 C 246.08 277.38 235.74 271.50 229.38 262.71 C 228.10 260.71 228.65 257.92 230.41 256.40 C 232.74 254.21 236.84 254.61 238.67 257.25 C 244.31 264.44 253.86 269.08 263.04 266.93 C 271.11 265.21 277.30 258.67 280.56 251.33 C 281.66 248.20 285.78 246.73 288.60 248.52 C 290.82 249.74 291.95 252.72 290.78 255.04 C 286.59 264.79 278.56 273.31 268.20 276.39 C 267.46 294.16 265.17 312.10 259.31 329.00 C 252.64 348.64 241.59 367.75 224.07 379.54 C 241.74 382.70 258.80 388.45 275.77 394.18 C 275.48 390.86 276.14 387.11 279.17 385.20 C 283.63 381.83 290.56 384.37 292.11 389.65 C 292.29 420.85 292.19 452.05 292.23 483.26 C 292.01 516.68 292.30 550.11 292.17 583.54 C 297.39 575.33 302.62 565.99 311.98 561.87 C 316.05 559.86 320.73 560.27 324.97 561.30 C 328.75 554.93 333.22 548.40 340.02 544.99 C 344.08 542.90 348.93 543.28 352.98 545.22 C 365.23 553.06 370.63 567.40 375.97 580.23 C 380.66 580.75 384.46 583.82 387.39 587.33 C 394.10 595.90 397.39 606.47 400.83 616.58 L 400.59 616.90 C 403.40 628.33 406.12 640.65 402.30 652.19 C 400.19 659.21 395.58 665.16 389.96 669.76 C 407.69 669.95 425.57 669.04 442.91 665.15 C 457.88 661.79 473.03 656.12 484.13 645.15 C 493.23 636.32 498.00 623.60 497.91 611.00 C 497.91 569.89 498.17 528.79 497.93 487.69 C 498.14 480.07 497.77 472.41 498.20 464.81 C 499.44 458.82 507.85 456.57 512.03 460.96 C 515.61 464.13 514.08 469.22 514.50 473.38 C 514.30 474.95 514.39 476.56 514.41 478.16 C 515.77 479.03 517.51 478.79 519.05 479.16 C 530.24 480.80 541.53 482.02 552.85 481.97 C 565.54 482.37 578.23 481.04 590.87 479.95 C 599.15 479.42 607.37 478.24 615.62 477.42 C 616.63 472.55 614.09 466.22 618.65 462.61 C 623.03 458.66 630.51 461.09 632.20 466.63 C 632.17 503.76 632.25 540.89 632.30 578.02 C 632.81 577.33 633.27 576.60 633.67 575.85 L 633.63 575.36 C 638.42 568.43 643.06 560.75 650.87 556.83 C 655.15 554.41 660.24 554.55 664.87 555.72 C 669.21 549.02 673.90 541.58 681.77 538.70 C 687.44 536.63 693.65 539.13 697.79 543.14 C 706.61 551.55 711.38 563.09 715.75 574.22 C 722.58 575.72 727.71 581.09 731.04 587.05 C 736.83 596.99 740.18 608.14 742.54 619.34 C 743.98 627.41 745.24 635.85 743.08 643.92 C 741.22 651.82 736.59 658.97 730.11 663.85 C 734.69 664.53 739.34 664.01 743.95 664.04 C 764.30 663.34 785.05 660.97 803.92 652.89 C 817.17 647.30 829.43 637.45 834.63 623.68 C 838.93 613.34 837.93 601.95 838.03 591.02 C 837.99 517.91 838.13 444.80 837.96 371.69 C 835.33 372.47 833.05 374.25 830.32 374.58 C 831.10 372.43 832.48 370.59 833.56 368.59 C 848.39 342.37 854.30 311.58 852.58 281.67 C 852.38 261.42 849.47 241.20 844.51 221.57 C 844.06 220.20 843.98 218.66 843.09 217.49 C 840.46 206.23 836.08 195.24 831.39 184.62 C 827.43 176.47 823.65 168.05 818.23 160.77 C 807.89 144.21 795.16 129.14 780.43 116.33 L 779.37 116.21 L 779.50 115.28 C 770.25 108.03 760.94 100.75 750.74 94.82 C 740.09 88.62 729.03 83.07 717.59 78.49 C 714.31 77.39 711.22 75.57 707.76 75.14 C 707.30 74.94 706.37 74.53 705.90 74.33 C 693.12 69.55 679.81 66.37 666.51 63.64 C 643.39 58.64 619.63 57.12 596.02 57.00 C 541.78 56.95 487.56 58.37 433.34 59.67 C 433.33 59.90 433.32 60.37 433.32 60.60 L 433.67 60.59 C 437.42 68.93 440.85 77.44 443.36 86.25 C 453.42 119.93 456.29 155.33 456.62 190.34 C 456.49 194.18 456.37 198.02 456.27 201.87 C 456.05 204.34 456.00 206.83 455.74 209.31 C 472.30 210.51 490.41 210.53 504.58 220.48 C 514.49 228.45 519.30 241.48 519.90 253.92 C 520.37 270.20 515.70 286.80 505.99 299.97 C 496.79 312.20 484.02 322.23 469.04 326.13 C 451.12 330.96 432.40 329.06 414.08 329.57 C 410.30 329.92 406.94 333.01 406.38 336.79 C 404.45 346.55 402.57 356.31 400.63 366.07 C 399.88 369.99 396.02 373.09 392.03 372.97 C 384.65 372.95 377.28 372.99 369.91 372.95 C 366.49 372.96 363.80 369.38 364.74 366.09 C 368.10 348.54 371.72 331.04 374.96 313.48 C 372.33 314.15 369.65 314.52 366.99 315.03 C 358.68 316.28 350.10 318.87 343.88 324.78 C 338.43 329.89 336.15 337.77 337.21 345.07 C 337.96 348.79 335.30 352.01 332.22 353.64 C 327.80 355.10 322.20 352.75 321.14 348.00 C 319.04 336.26 322.72 323.58 331.03 314.97 C 339.46 306.02 351.56 301.59 363.46 299.67 C 377.22 297.55 391.03 293.63 402.67 285.75 C 416.55 276.65 426.23 262.27 431.58 246.74 C 439.74 223.11 440.61 197.72 439.81 172.96 C 438.30 139.75 434.47 106.04 421.99 74.96 C 414.46 56.54 403.21 38.64 386.03 27.85 C 370.04 17.61 349.79 15.35 331.50 19.72 M 910.02 114.88 C 924.57 112.40 939.25 110.30 954.04 110.24 C 955.35 107.91 955.35 104.65 953.16 102.85 C 949.00 99.48 943.23 99.28 938.14 99.82 C 927.25 101.17 918.29 108.19 910.02 114.88 M 930.44 127.61 C 917.14 129.46 903.81 131.82 891.13 136.33 L 891.31 136.78 C 903.05 141.13 915.54 142.91 927.88 144.69 C 943.39 146.54 959.73 148.08 974.68 142.45 C 978.00 140.98 981.89 139.48 983.65 136.05 C 982.34 132.92 978.80 131.58 975.94 130.20 C 961.53 124.29 945.52 125.79 930.44 127.61 M 818.94 132.85 C 820.76 136.01 823.31 138.71 825.35 141.74 C 826.80 142.39 828.48 141.94 830.05 142.08 C 844.03 142.01 858.02 142.17 872.00 142.00 C 870.47 138.97 870.71 135.76 872.33 132.81 C 854.53 132.72 836.72 132.60 818.94 132.85 M 908.75 158.07 C 917.31 164.43 926.66 170.04 936.91 173.15 C 944.04 174.94 952.53 175.40 958.78 170.89 C 961.95 168.74 961.00 164.43 958.85 161.92 C 942.41 162.34 925.94 160.51 909.73 157.80 L 908.75 158.07 M 451.94 235.36 C 451.36 237.87 450.76 240.36 450.09 242.84 C 445.20 260.59 436.47 277.77 422.70 290.25 C 420.10 292.88 417.09 295.03 414.19 297.30 C 413.47 300.27 415.88 303.32 418.84 303.65 C 430.28 303.87 441.86 303.68 453.05 300.99 C 459.12 299.58 465.56 297.77 469.95 293.04 C 478.18 284.51 481.26 272.42 482.44 260.95 C 483.09 253.86 482.21 245.35 475.98 240.85 C 469.02 236.03 460.13 235.49 451.94 235.36 M 222.49 395.31 C 222.34 436.21 222.64 477.11 222.36 518.01 C 225.73 514.20 228.48 509.17 233.71 507.57 C 237.70 506.20 241.87 508.01 244.85 510.66 C 253.60 519.70 257.24 532.14 260.89 543.84 C 269.59 552.30 272.89 564.64 275.48 576.13 C 275.79 574.77 275.71 573.37 275.75 572.01 C 275.74 518.34 275.88 464.66 275.81 410.99 L 274.94 410.86 C 257.82 404.57 240.41 398.85 222.49 395.31 M 562.89 497.67 L 562.33 498.22 C 562.26 505.47 562.42 512.72 562.26 519.98 C 565.61 517.13 567.65 512.55 572.00 510.75 C 576.71 508.10 582.43 510.46 585.75 514.23 C 593.80 523.11 597.24 534.95 600.77 546.12 C 609.59 554.57 612.26 566.97 615.78 578.14 C 615.68 549.80 615.90 521.45 615.79 493.12 C 598.22 495.27 580.57 496.80 562.89 497.67 M 226.04 523.10 C 219.55 536.21 215.86 550.59 213.88 565.04 C 212.29 576.16 213.07 588.17 219.15 597.90 C 222.40 602.98 227.27 607.95 233.49 608.71 C 230.44 601.61 230.38 593.64 231.52 586.11 C 233.19 574.71 235.99 563.33 241.18 552.98 C 243.98 547.74 247.95 541.91 254.42 541.29 C 251.78 532.97 248.89 524.52 243.80 517.34 C 241.81 514.66 238.70 511.40 235.01 512.66 C 230.62 514.57 228.25 519.11 226.04 523.10 M 574.36 515.39 C 570.16 517.81 567.75 522.28 565.53 526.41 C 559.64 538.50 556.30 551.68 554.17 564.90 C 552.52 575.27 552.31 586.33 556.79 596.06 C 559.88 603.00 565.44 609.77 573.24 611.29 C 570.95 604.78 570.20 597.79 571.15 590.95 C 572.66 578.91 575.51 566.89 580.84 555.94 C 583.66 550.55 587.66 544.40 594.33 543.77 C 591.69 535.32 588.72 526.75 583.48 519.52 C 581.46 516.80 577.99 513.50 574.36 515.39 M 672.13 554.07 C 664.75 565.63 660.44 578.84 656.94 592.01 C 654.25 603.41 651.78 615.17 652.93 626.94 C 654.34 639.67 660.74 652.52 672.01 659.20 C 679.43 663.72 688.98 664.43 696.95 660.95 C 694.22 657.36 691.12 653.79 689.55 649.42 C 684.91 638.82 686.56 626.90 689.02 615.98 C 691.00 607.28 693.77 598.73 697.74 590.74 C 700.71 585.00 704.41 579.22 710.17 575.94 L 710.39 575.28 C 706.84 566.15 703.06 556.87 696.67 549.31 C 693.71 545.94 689.62 542.56 684.83 543.28 C 679.08 544.47 675.25 549.48 672.13 554.07 M 252.33 547.33 C 249.26 549.31 247.56 552.70 245.88 555.82 C 241.86 564.14 239.32 573.11 237.60 582.17 C 236.19 589.96 235.39 598.22 238.09 605.83 C 240.18 611.96 244.54 617.95 251.02 619.80 C 256.42 621.40 262.18 618.80 265.73 614.71 C 271.10 608.57 273.04 600.06 272.51 592.07 C 271.87 582.59 269.63 573.27 266.55 564.31 C 264.59 559.00 262.47 553.59 258.80 549.21 C 257.30 547.38 254.58 545.75 252.33 547.33 M 331.91 559.97 C 324.33 572.09 319.89 585.88 316.42 599.67 C 313.56 612.49 310.82 625.99 314.05 639.01 C 316.74 650.14 323.61 660.79 334.09 665.96 C 341.18 669.53 349.69 669.56 357.00 666.63 C 353.49 662.42 350.20 657.88 348.58 652.56 C 344.16 639.22 347.91 625.01 351.56 611.95 C 355.39 600.62 359.80 587.96 370.44 581.27 C 367.10 572.30 363.33 563.28 357.31 555.74 C 354.31 552.08 350.13 548.28 345.03 548.85 C 339.04 549.95 335.13 555.24 331.91 559.97 M 593.31 549.32 C 590.07 550.57 588.30 553.83 586.65 556.67 C 582.27 564.93 579.69 574.02 577.81 583.14 C 576.26 591.31 575.16 599.99 577.94 608.03 C 579.99 614.23 584.32 620.32 590.85 622.24 C 595.89 623.77 601.40 621.64 604.92 617.92 C 610.95 611.68 613.05 602.54 612.41 594.09 C 611.62 583.90 609.13 573.88 605.56 564.33 C 603.83 560.00 601.95 555.62 598.97 551.99 C 597.60 550.39 595.58 548.62 593.31 549.32 M 652.07 562.15 C 644.36 567.21 639.76 575.61 635.83 583.69 C 631.26 593.62 627.82 604.19 626.69 615.09 C 625.88 622.82 628.08 630.86 632.93 636.97 C 638.15 643.87 646.28 648.28 654.81 649.46 C 649.52 640.26 646.70 629.64 647.16 619.01 C 647.79 604.69 651.39 590.69 655.55 577.05 C 656.93 573.60 658.24 570.10 659.54 566.62 L 659.64 566.63 C 660.45 564.71 661.42 562.86 662.13 560.91 C 659.25 558.94 654.90 560.42 652.07 562.15 M 307.97 570.95 C 300.65 578.23 296.14 587.78 292.43 597.28 C 289.14 606.46 286.28 616.08 286.57 625.93 C 287.27 640.85 300.19 653.56 314.88 655.02 C 309.41 646.06 306.80 635.48 307.12 625.02 C 307.63 610.57 311.44 596.49 315.41 582.71 L 315.65 582.53 C 316.87 579.18 318.16 575.86 319.43 572.54 L 319.52 572.56 C 320.40 570.37 321.46 568.27 322.36 566.09 C 317.05 564.50 311.64 567.21 307.97 570.95 M 713.25 580.36 C 708.38 582.66 705.68 587.69 703.17 592.19 C 697.25 603.96 693.54 616.86 692.23 629.96 C 691.20 639.62 693.86 650.06 700.91 657.01 C 705.54 661.70 712.48 664.35 719.04 662.95 C 726.37 661.53 732.24 655.87 735.41 649.30 C 738.53 642.99 739.31 635.76 738.50 628.82 C 737.31 617.87 734.30 607.13 729.96 597.02 C 727.68 591.97 725.14 586.88 721.22 582.88 C 719.20 580.85 716.14 579.04 713.25 580.36 M 372.34 586.41 C 367.14 589.63 364.38 595.40 361.72 600.67 C 356.67 611.80 353.28 623.75 352.17 635.93 C 351.32 644.69 353.46 653.98 359.19 660.82 C 363.47 666.02 370.20 669.53 377.05 668.85 C 384.03 668.23 390.17 663.64 393.79 657.79 C 398.07 651.05 399.41 642.78 398.51 634.93 C 397.32 623.43 394.13 612.17 389.48 601.60 C 387.08 596.61 384.54 591.42 380.30 587.71 C 378.20 585.76 374.91 584.74 372.34 586.41 M 260.31 624.51 C 260.25 624.78 260.14 625.32 260.09 625.59 C 266.20 627.70 272.39 629.72 278.76 630.92 C 276.57 623.72 275.72 616.19 275.80 608.70 C 272.50 615.39 267.78 622.12 260.31 624.51 M 609.60 620.64 C 606.82 623.96 602.94 625.99 598.99 627.57 C 606.42 630.52 614.18 632.72 622.06 634.01 C 618.71 626.63 616.94 618.72 615.84 610.73 C 613.90 614.11 612.38 617.81 609.60 620.64 Z" />
<path fill="#363254" opacity="1.00" d=" M 122.47 137.69 C 138.65 135.57 155.40 136.88 170.91 142.08 C 173.16 142.68 176.39 145.11 174.43 147.65 C 171.10 151.12 165.67 149.98 161.66 148.48 C 149.19 145.43 136.00 147.16 123.85 150.82 C 111.80 154.64 100.27 161.36 92.63 171.65 C 88.73 176.74 79.68 175.85 77.00 169.95 C 75.24 166.62 76.44 162.57 78.96 159.99 C 89.45 146.73 106.07 139.87 122.47 137.69 Z" />
<path fill="#363254" opacity="1.00" d=" M 558.45 166.65 C 559.88 166.04 561.47 166.00 563.01 166.03 C 569.71 166.05 576.40 166.00 583.10 166.05 C 586.30 165.87 589.27 168.74 588.85 172.01 C 586.96 182.36 584.78 192.67 582.85 203.01 C 582.15 206.20 584.83 209.46 588.08 209.45 C 598.39 209.59 608.74 209.12 619.03 210.11 C 628.98 210.56 639.19 211.49 648.41 215.53 C 655.74 218.72 660.06 226.35 661.76 233.86 C 664.07 244.11 661.14 254.44 659.26 264.50 C 655.51 283.69 651.74 302.88 647.99 322.07 C 647.41 326.34 643.27 329.80 638.95 329.50 C 631.64 329.48 624.34 329.52 617.03 329.48 C 613.76 329.60 610.94 326.33 611.63 323.11 C 614.31 309.04 617.13 294.99 619.86 280.93 C 621.81 270.34 624.49 259.83 625.06 249.05 C 624.98 245.62 624.65 241.47 621.57 239.32 C 617.60 236.64 612.64 236.22 608.00 235.92 C 600.01 235.74 592.02 235.87 584.03 235.83 C 579.83 235.62 575.70 238.76 575.00 242.94 C 569.79 269.47 564.62 296.01 559.41 322.54 C 558.69 326.40 554.97 329.51 551.04 329.49 C 543.73 329.50 536.41 329.51 529.10 329.49 C 525.82 329.60 523.02 326.32 523.70 323.10 C 533.37 273.43 543.17 223.79 552.87 174.13 C 553.19 170.86 555.34 167.80 558.45 166.65 Z" />
<path fill="#363254" opacity="1.00" d=" M 142.99 187.88 C 150.08 185.76 157.52 182.79 165.01 184.01 C 165.65 186.33 163.29 188.28 161.95 189.96 C 154.35 197.41 144.60 202.02 135.87 207.90 C 139.77 207.03 143.45 205.04 147.53 204.68 C 157.46 203.07 168.63 205.84 175.33 213.70 C 181.16 220.35 182.43 230.17 179.48 238.38 C 173.43 255.54 153.68 266.36 135.95 262.50 C 128.16 260.82 120.84 255.80 117.54 248.39 C 116.66 245.55 114.07 243.80 112.69 241.23 C 105.76 229.76 107.39 214.12 115.81 203.85 C 122.77 195.65 133.15 191.51 142.99 187.88 M 119.68 233.84 C 118.02 241.77 121.20 250.53 127.88 255.21 C 139.32 263.49 156.58 260.12 165.74 250.24 C 164.50 250.77 163.17 250.99 161.85 251.24 L 161.73 251.53 C 153.64 252.86 145.66 247.29 142.58 239.99 C 146.00 237.42 149.58 235.07 152.98 232.47 C 149.16 230.68 145.39 228.81 141.63 226.91 C 142.80 223.16 145.64 219.90 149.33 218.47 C 153.76 216.60 158.94 217.45 163.01 219.82 C 169.74 223.65 173.70 231.58 173.36 239.18 C 174.43 235.54 174.52 231.68 174.29 227.92 C 174.33 224.48 172.64 221.21 170.71 218.44 C 165.20 210.91 155.03 208.00 146.10 209.63 C 133.63 211.57 122.13 221.20 119.68 233.84 M 162.36 226.45 C 159.12 229.95 161.43 237.06 166.02 238.25 C 169.57 237.76 169.28 233.08 168.29 230.56 C 167.49 228.26 165.11 224.99 162.36 226.45 Z" />
<path fill="#363254" opacity="1.00" d=" M 699.44 209.64 C 713.93 209.24 728.45 209.58 742.95 209.47 C 757.36 209.23 771.92 209.78 786.00 213.10 C 793.64 215.20 801.43 218.25 807.04 224.07 C 814.84 232.70 818.65 244.45 818.56 256.00 C 818.44 272.23 813.47 288.64 803.38 301.49 C 794.34 312.88 782.17 322.25 767.96 326.02 C 749.86 331.03 730.92 329.01 712.40 329.59 C 708.66 330.05 705.39 333.16 704.89 336.92 C 703.00 346.60 701.11 356.29 699.21 365.97 C 698.46 370.13 694.25 373.32 690.04 372.97 C 682.67 372.92 675.30 373.04 667.93 372.91 C 664.66 372.59 662.34 369.02 663.33 365.89 C 673.08 316.06 682.85 266.23 692.62 216.40 C 693.25 213.03 696.13 210.34 699.44 209.64 M 730.37 235.42 C 726.80 236.12 723.82 239.16 723.34 242.79 C 719.80 260.89 716.22 278.98 712.72 297.09 C 711.93 300.29 714.57 303.62 717.83 303.68 C 731.84 303.92 746.20 303.44 759.52 298.68 C 768.42 295.80 773.98 287.31 777.06 278.94 C 780.18 269.37 782.64 258.87 780.05 248.91 C 778.23 241.61 770.83 237.77 763.96 236.56 C 752.88 234.61 741.54 235.30 730.37 235.42 Z" />
</g>
<g id="#8c9bd6ff">
<path fill="#8c9bd6" opacity="1.00" d=" M 220.15 29.23 C 238.84 14.85 265.76 11.33 287.07 21.84 C 270.83 30.45 254.97 39.78 239.38 49.53 C 238.40 50.25 237.12 50.13 235.98 50.25 C 220.81 51.07 205.68 52.40 190.59 54.07 C 199.88 45.18 209.79 36.87 220.15 29.23 Z" />
<path fill="#8c9bd6" opacity="1.00" d=" M 331.50 19.72 C 349.79 15.35 370.04 17.61 386.03 27.85 C 403.21 38.64 414.46 56.54 421.99 74.96 C 434.47 106.04 438.30 139.75 439.81 172.96 C 440.61 197.72 439.74 223.11 431.58 246.74 C 426.23 262.27 416.55 276.65 402.67 285.75 C 391.03 293.63 377.22 297.55 363.46 299.67 C 351.56 301.59 339.46 306.02 331.03 314.97 C 322.72 323.58 319.04 336.26 321.14 348.00 C 322.20 352.75 327.80 355.10 332.22 353.64 C 328.77 359.81 323.91 365.06 319.89 370.86 C 313.43 378.80 307.58 387.21 301.23 395.23 C 300.23 396.72 298.26 396.17 296.80 396.74 C 295.56 398.08 294.51 399.58 293.28 400.93 C 292.72 397.19 294.00 393.11 292.11 389.65 C 290.56 384.37 283.63 381.83 279.17 385.20 C 276.14 387.11 275.48 390.86 275.77 394.18 C 258.80 388.45 241.74 382.70 224.07 379.54 C 241.59 367.75 252.64 348.64 259.31 329.00 C 265.17 312.10 267.46 294.16 268.20 276.39 C 278.56 273.31 286.59 264.79 290.78 255.04 C 291.95 252.72 290.82 249.74 288.60 248.52 C 285.78 246.73 281.66 248.20 280.56 251.33 C 277.30 258.67 271.11 265.21 263.04 266.93 C 253.86 269.08 244.31 264.44 238.67 257.25 C 236.84 254.61 232.74 254.21 230.41 256.40 C 228.65 257.92 228.10 260.71 229.38 262.71 C 235.74 271.50 246.08 277.38 256.97 277.93 C 256.46 300.98 251.71 324.31 240.72 344.73 C 234.04 356.78 224.76 368.21 211.88 373.89 C 207.81 375.56 203.44 376.88 198.99 376.51 C 182.58 375.91 165.37 378.99 151.84 388.80 C 137.78 398.74 129.31 414.70 124.81 430.99 C 121.65 442.40 120.03 454.18 119.21 465.97 C 114.22 515.59 110.25 565.31 106.53 615.04 C 106.61 623.22 103.20 631.55 96.56 636.54 C 87.03 643.77 74.61 645.45 62.97 645.72 C 51.50 645.78 39.46 644.58 29.36 638.71 C 24.12 635.65 19.85 630.82 17.93 625.03 C 15.86 619.24 16.54 613.01 16.42 606.98 C 16.49 582.84 16.28 558.68 16.52 534.54 C 17.58 535.79 18.12 537.33 18.02 538.98 C 18.13 544.37 17.75 550.00 19.84 555.10 C 22.18 553.77 24.49 552.33 26.50 550.52 C 27.41 547.09 26.61 543.46 27.03 539.96 C 28.18 530.34 27.77 520.64 28.12 510.98 C 27.94 501.87 29.79 492.79 28.83 483.69 C 29.06 473.70 30.13 463.73 29.79 453.74 C 30.28 444.14 30.90 434.53 30.84 424.91 C 31.79 397.22 33.18 369.51 33.98 341.81 C 34.55 329.57 34.11 317.32 34.18 305.07 C 34.07 287.32 34.42 269.56 35.58 251.84 C 36.91 233.61 39.66 215.39 45.44 198.00 C 52.91 175.21 67.34 154.84 86.48 140.36 C 89.66 138.01 92.91 135.75 96.22 133.57 C 123.98 116.34 155.95 107.49 187.84 101.66 C 191.79 101.11 195.69 100.21 199.67 99.92 C 199.35 102.80 198.83 106.53 201.70 108.36 C 205.03 110.30 209.38 110.01 212.93 108.88 C 233.60 94.88 254.12 80.63 275.14 67.14 C 300.61 50.42 329.02 36.39 359.79 33.73 C 372.16 32.83 384.69 34.13 396.42 38.23 C 389.72 31.71 381.31 27.02 372.59 23.74 C 358.29 18.30 342.53 18.04 327.66 21.11 C 328.69 20.14 330.22 20.15 331.50 19.72 M 122.47 137.69 C 106.07 139.87 89.45 146.73 78.96 159.99 C 76.44 162.57 75.24 166.62 77.00 169.95 C 79.68 175.85 88.73 176.74 92.63 171.65 C 100.27 161.36 111.80 154.64 123.85 150.82 C 136.00 147.16 149.19 145.43 161.66 148.48 C 165.67 149.98 171.10 151.12 174.43 147.65 C 176.39 145.11 173.16 142.68 170.91 142.08 C 155.40 136.88 138.65 135.57 122.47 137.69 M 142.99 187.88 C 133.15 191.51 122.77 195.65 115.81 203.85 C 107.39 214.12 105.76 229.76 112.69 241.23 C 114.07 243.80 116.66 245.55 117.54 248.39 C 120.84 255.80 128.16 260.82 135.95 262.50 C 153.68 266.36 173.43 255.54 179.48 238.38 C 182.43 230.17 181.16 220.35 175.33 213.70 C 168.63 205.84 157.46 203.07 147.53 204.68 C 143.45 205.04 139.77 207.03 135.87 207.90 C 144.60 202.02 154.35 197.41 161.95 189.96 C 163.29 188.28 165.65 186.33 165.01 184.01 C 157.52 182.79 150.08 185.76 142.99 187.88 Z" />
<path fill="#8c9bd6" opacity="1.00" d=" M 103.09 90.11 C 137.53 76.75 174.42 71.13 211.03 67.87 C 210.50 68.86 209.98 69.85 209.35 70.78 L 209.19 69.60 C 199.06 70.49 188.97 71.92 178.92 73.47 C 155.98 77.13 133.16 82.22 111.39 90.45 C 93.75 97.15 76.74 106.01 62.35 118.33 C 43.77 133.95 30.96 155.67 24.61 178.98 C 22.14 187.24 20.81 195.77 19.17 204.22 C 20.66 186.88 24.56 169.60 31.53 153.60 C 37.47 140.14 46.13 127.85 57.00 117.92 C 70.26 105.60 86.37 96.77 103.09 90.11 Z" />
<path fill="#8c9bd6" opacity="1.00" d=" M 443.36 86.25 C 443.74 86.54 444.50 87.13 444.88 87.43 C 451.46 87.49 458.05 87.28 464.62 86.96 C 480.33 86.65 496.05 86.40 511.75 85.86 C 520.22 86.15 528.68 85.46 537.15 85.60 C 534.76 89.05 532.32 92.46 529.66 95.70 C 523.46 103.20 518.16 111.41 511.90 118.87 C 495.03 141.27 477.93 163.52 460.93 185.82 C 459.78 187.59 458.28 189.07 456.62 190.34 C 456.29 155.33 453.42 119.93 443.36 86.25 Z" />
<path fill="#8c9bd6" opacity="1.00" d=" M 119.68 233.84 C 122.13 221.20 133.63 211.57 146.10 209.63 C 155.03 208.00 165.20 210.91 170.71 218.44 C 172.64 221.21 174.33 224.48 174.29 227.92 L 173.19 227.28 C 171.80 220.80 166.51 215.63 160.24 213.75 C 145.78 209.22 128.56 219.16 125.56 234.09 C 123.85 241.64 127.29 250.04 134.01 253.98 C 142.30 259.10 153.20 257.74 161.23 252.76 L 161.73 251.53 L 161.85 251.24 C 163.17 250.99 164.50 250.77 165.74 250.24 C 156.58 260.12 139.32 263.49 127.88 255.21 C 121.20 250.53 118.02 241.77 119.68 233.84 Z" />
</g>
<g id="#e7e8f6ff">
<path fill="#e7e8f6" opacity="1.00" d=" M 327.66 21.11 C 342.53 18.04 358.29 18.30 372.59 23.74 C 368.68 27.55 363.30 29.46 359.79 33.73 C 329.02 36.39 300.61 50.42 275.14 67.14 C 254.12 80.63 233.60 94.88 212.93 108.88 C 209.38 110.01 205.03 110.30 201.70 108.36 C 198.83 106.53 199.35 102.80 199.67 99.92 C 195.69 100.21 191.79 101.11 187.84 101.66 C 188.61 100.53 189.36 99.32 190.56 98.58 C 197.40 93.67 204.39 88.97 211.46 84.41 C 212.82 83.67 213.65 82.36 214.39 81.05 C 217.13 81.59 220.30 81.44 222.59 79.70 C 250.80 61.04 279.48 42.79 310.00 28.09 C 315.78 25.52 321.53 22.71 327.66 21.11 Z" />
</g>
<g id="#dfe1f3ff">
<path fill="#dfe1f3" opacity="1.00" d=" M 372.59 23.74 C 381.31 27.02 389.72 31.71 396.42 38.23 C 384.69 34.13 372.16 32.83 359.79 33.73 C 363.30 29.46 368.68 27.55 372.59 23.74 Z" />
</g>
<g id="#7887c2ff">
<path fill="#7887c2" opacity="1.00" d=" M 433.34 59.67 C 487.56 58.37 541.78 56.95 596.02 57.00 C 619.63 57.12 643.39 58.64 666.51 63.64 C 663.37 63.90 660.29 63.18 657.21 62.76 C 642.70 60.65 628.12 58.71 613.44 58.30 C 607.52 57.64 601.56 57.53 595.61 57.83 C 579.51 57.67 563.39 57.41 547.31 58.32 C 530.81 58.59 514.26 58.23 497.79 59.18 C 476.41 59.40 455.04 59.88 433.67 60.59 L 433.32 60.60 C 433.32 60.37 433.33 59.90 433.34 59.67 Z" />
<path fill="#7887c2" opacity="1.00" d=" M 657.19 87.03 C 666.76 87.97 676.25 89.53 685.72 91.12 C 697.64 94.09 709.76 96.42 721.30 100.77 C 719.38 103.96 717.17 106.95 714.76 109.78 C 696.65 133.66 678.44 157.48 660.28 181.31 C 654.47 189.49 647.67 196.97 642.33 205.47 C 625.45 201.76 608.02 201.98 590.82 201.89 C 592.55 192.56 594.52 183.28 596.24 173.96 C 596.64 171.78 596.37 169.57 595.87 167.44 C 601.61 161.58 605.68 154.32 611.10 148.16 C 620.01 136.07 629.43 124.37 638.29 112.24 C 644.71 103.94 651.32 95.74 657.19 87.03 Z" />
</g>
<g id="#bbc1e5ff">
<path fill="#bbc1e5" opacity="1.00" d=" M 547.31 58.32 C 563.39 57.41 579.51 57.67 595.61 57.83 C 597.26 58.70 599.09 59.02 600.89 59.40 C 598.31 62.08 594.60 63.31 592.06 66.04 C 588.54 69.71 583.75 71.69 579.85 74.88 C 575.36 78.54 570.09 81.11 565.73 84.93 C 556.20 85.25 546.68 85.36 537.15 85.60 C 528.68 85.46 520.22 86.15 511.75 85.86 C 515.90 85.01 519.69 83.08 522.83 80.26 C 521.29 80.09 519.74 79.97 518.21 79.79 C 524.27 74.47 531.44 70.66 537.99 66.01 C 541.21 63.61 545.02 61.77 547.31 58.32 Z" />
</g>
<g id="#b3bae2ff">
<path fill="#b3bae2" opacity="1.00" d=" M 595.61 57.83 C 601.56 57.53 607.52 57.64 613.44 58.30 C 628.12 58.71 642.70 60.65 657.21 62.76 C 650.72 68.01 643.60 72.46 636.76 77.24 C 636.88 77.61 637.11 78.33 637.23 78.69 C 633.96 81.13 630.46 84.32 626.08 83.95 C 611.05 83.62 596.03 83.94 581.00 84.05 C 579.19 84.06 577.42 84.42 575.67 84.79 C 572.36 85.07 569.04 85.09 565.73 84.93 C 570.09 81.11 575.36 78.54 579.85 74.88 C 583.75 71.69 588.54 69.71 592.06 66.04 C 594.60 63.31 598.31 62.08 600.89 59.40 C 599.09 59.02 597.26 58.70 595.61 57.83 Z" />
</g>
<g id="#c3c7e8ff">
<path fill="#c3c7e8" opacity="1.00" d=" M 497.79 59.18 C 514.26 58.23 530.81 58.59 547.31 58.32 C 545.02 61.77 541.21 63.61 537.99 66.01 C 531.44 70.66 524.27 74.47 518.21 79.79 C 519.74 79.97 521.29 80.09 522.83 80.26 C 519.69 83.08 515.90 85.01 511.75 85.86 C 496.05 86.40 480.33 86.65 464.62 86.96 C 466.36 85.42 468.32 84.18 470.21 82.84 C 470.06 82.30 469.91 81.76 469.76 81.22 C 476.39 75.89 483.95 71.83 490.75 66.69 C 493.61 64.42 496.85 62.67 499.76 60.45 C 499.27 60.13 498.29 59.50 497.79 59.18 Z" />
</g>
<g id="#c9cdebff">
<path fill="#c9cdeb" opacity="1.00" d=" M 433.67 60.59 C 455.04 59.88 476.41 59.40 497.79 59.18 C 498.29 59.50 499.27 60.13 499.76 60.45 C 496.85 62.67 493.61 64.42 490.75 66.69 C 483.95 71.83 476.39 75.89 469.76 81.22 C 469.91 81.76 470.06 82.30 470.21 82.84 C 468.32 84.18 466.36 85.42 464.62 86.96 C 458.05 87.28 451.46 87.49 444.88 87.43 C 444.50 87.13 443.74 86.54 443.36 86.25 C 440.85 77.44 437.42 68.93 433.67 60.59 Z" />
</g>
<g id="#aab1dfff">
<path fill="#aab1df" opacity="1.00" d=" M 657.21 62.76 C 660.29 63.18 663.37 63.90 666.51 63.64 C 679.81 66.37 693.12 69.55 705.90 74.33 C 706.37 74.53 707.30 74.94 707.76 75.14 C 704.17 75.33 701.27 78.06 698.60 80.22 C 698.80 80.61 699.18 81.38 699.38 81.77 C 694.84 84.90 690.00 87.61 685.72 91.12 C 676.25 89.53 666.76 87.97 657.19 87.03 C 643.33 85.26 629.31 84.84 615.34 84.86 C 602.12 84.18 588.88 85.43 575.67 84.79 C 577.42 84.42 579.19 84.06 581.00 84.05 C 596.03 83.94 611.05 83.62 626.08 83.95 C 630.46 84.32 633.96 81.13 637.23 78.69 C 637.11 78.33 636.88 77.61 636.76 77.24 C 643.60 72.46 650.72 68.01 657.21 62.76 Z" />
</g>
<g id="#eeeff8ff">
<path fill="#eeeff8" opacity="1.00" d=" M 178.92 73.47 C 188.97 71.92 199.06 70.49 209.19 69.60 L 209.35 70.78 C 207.54 74.90 210.30 79.69 214.39 81.05 C 213.65 82.36 212.82 83.67 211.46 84.41 C 204.39 88.97 197.40 93.67 190.56 98.58 C 189.36 99.32 188.61 100.53 187.84 101.66 C 155.95 107.49 123.98 116.34 96.22 133.57 C 96.85 131.52 98.70 130.43 100.39 129.35 C 111.52 122.25 122.05 114.29 133.20 107.22 C 139.40 102.69 145.79 98.43 152.20 94.20 C 161.53 87.26 171.56 81.34 180.85 74.33 C 180.36 74.12 179.40 73.68 178.92 73.47 Z" />
<path fill="#eeeff8" opacity="1.00" d=" M 81.34 142.36 C 82.82 141.18 84.57 140.45 86.48 140.36 C 67.34 154.84 52.91 175.21 45.44 198.00 C 36.57 202.95 28.87 209.70 20.12 214.85 C 19.67 214.40 18.76 213.49 18.31 213.04 C 18.28 210.10 18.77 207.14 19.17 204.22 C 20.81 195.77 22.14 187.24 24.61 178.98 C 24.83 179.37 25.25 180.16 25.47 180.55 C 34.12 175.35 41.94 168.87 50.59 163.65 C 60.61 156.22 71.38 149.87 81.34 142.36 Z" />
</g>
<g id="#f4f4fbff">
<path fill="#f4f4fb" opacity="1.00" d=" M 111.39 90.45 C 133.16 82.22 155.98 77.13 178.92 73.47 C 179.40 73.68 180.36 74.12 180.85 74.33 C 171.56 81.34 161.53 87.26 152.20 94.20 C 145.79 98.43 139.40 102.69 133.20 107.22 C 122.05 114.29 111.52 122.25 100.39 129.35 C 98.70 130.43 96.85 131.52 96.22 133.57 C 92.91 135.75 89.66 138.01 86.48 140.36 C 84.57 140.45 82.82 141.18 81.34 142.36 C 71.38 149.87 60.61 156.22 50.59 163.65 C 41.94 168.87 34.12 175.35 25.47 180.55 C 25.25 180.16 24.83 179.37 24.61 178.98 C 30.96 155.67 43.77 133.95 62.35 118.33 C 76.74 106.01 93.75 97.15 111.39 90.45 Z" />
</g>
<g id="#a1a8dbff">
<path fill="#a1a8db" opacity="1.00" d=" M 698.60 80.22 C 701.27 78.06 704.17 75.33 707.76 75.14 C 711.22 75.57 714.31 77.39 717.59 78.49 C 729.03 83.07 740.09 88.62 750.74 94.82 C 744.35 96.72 739.60 102.01 733.87 105.28 C 729.74 103.60 725.50 102.21 721.30 100.77 C 709.76 96.42 697.64 94.09 685.72 91.12 C 690.00 87.61 694.84 84.90 699.38 81.77 C 699.18 81.38 698.80 80.61 698.60 80.22 Z" />
<path fill="#a1a8db" opacity="1.00" d=" M 26.18 490.16 C 28.25 488.72 28.12 485.86 28.83 483.69 C 29.79 492.79 27.94 501.87 28.12 510.98 C 27.77 520.64 28.18 530.34 27.03 539.96 C 26.61 543.46 27.41 547.09 26.50 550.52 C 24.49 552.33 22.18 553.77 19.84 555.10 C 17.75 550.00 18.13 544.37 18.02 538.98 C 18.12 537.33 17.58 535.79 16.52 534.54 C 16.43 520.28 16.54 506.01 16.14 491.75 C 16.59 493.26 17.15 494.74 17.94 496.12 C 20.79 494.28 23.48 492.19 26.18 490.16 Z" />
</g>
<g id="#8695d0ff">
<path fill="#8695d0" opacity="1.00" d=" M 537.15 85.60 C 546.68 85.36 556.20 85.25 565.73 84.93 C 569.04 85.09 572.36 85.07 575.67 84.79 C 588.88 85.43 602.12 84.18 615.34 84.86 C 613.29 88.82 610.26 92.13 607.71 95.76 C 594.27 113.00 581.24 130.55 567.87 147.83 C 565.52 151.45 562.07 154.37 560.64 158.53 C 555.57 158.91 550.74 161.66 547.97 165.94 C 545.60 169.41 545.38 173.72 544.43 177.68 C 539.21 182.49 535.51 188.64 531.11 194.16 C 525.41 202.31 518.32 209.49 513.44 218.20 C 504.21 209.02 491.09 205.36 478.54 203.61 C 471.12 202.90 463.72 201.97 456.27 201.87 C 456.37 198.02 456.49 194.18 456.62 190.34 C 458.28 189.07 459.78 187.59 460.93 185.82 C 477.93 163.52 495.03 141.27 511.90 118.87 C 518.16 111.41 523.46 103.20 529.66 95.70 C 532.32 92.46 534.76 89.05 537.15 85.60 Z" />
</g>
<g id="#7f8ec9ff">
<path fill="#7f8ec9" opacity="1.00" d=" M 615.34 84.86 C 629.31 84.84 643.33 85.26 657.19 87.03 C 651.32 95.74 644.71 103.94 638.29 112.24 C 629.43 124.37 620.01 136.07 611.10 148.16 C 605.68 154.32 601.61 161.58 595.87 167.44 C 594.07 162.42 589.23 158.70 583.85 158.58 C 576.12 158.41 568.38 158.49 560.64 158.53 C 562.07 154.37 565.52 151.45 567.87 147.83 C 581.24 130.55 594.27 113.00 607.71 95.76 C 610.26 92.13 613.29 88.82 615.34 84.86 Z" />
</g>
<g id="#969fd7ff">
<path fill="#969fd7" opacity="1.00" d=" M 733.87 105.28 C 739.60 102.01 744.35 96.72 750.74 94.82 C 760.94 100.75 770.25 108.03 779.50 115.28 L 779.37 116.21 C 779.16 117.15 780.03 117.77 780.58 118.41 C 782.92 120.78 785.52 122.91 787.65 125.49 C 786.31 128.17 783.29 129.24 780.78 130.48 C 776.39 127.20 771.67 124.41 767.00 121.55 C 756.50 115.08 745.18 110.12 733.87 105.28 Z" />
</g>
<g id="#8b9dd7ff">
<path fill="#8b9dd7" opacity="1.00" d=" M 910.02 114.88 C 918.29 108.19 927.25 101.17 938.14 99.82 C 943.23 99.28 949.00 99.48 953.16 102.85 C 955.35 104.65 955.35 107.91 954.04 110.24 C 939.25 110.30 924.57 112.40 910.02 114.88 Z" />
<path fill="#8b9dd7" opacity="1.00" d=" M 930.44 127.61 C 945.52 125.79 961.53 124.29 975.94 130.20 C 978.80 131.58 982.34 132.92 983.65 136.05 C 981.89 139.48 978.00 140.98 974.68 142.45 C 959.73 148.08 943.39 146.54 927.88 144.69 C 915.54 142.91 903.05 141.13 891.31 136.78 L 891.13 136.33 C 903.81 131.82 917.14 129.46 930.44 127.61 Z" />
<path fill="#8b9dd7" opacity="1.00" d=" M 908.75 158.07 L 909.73 157.80 C 925.94 160.51 942.41 162.34 958.85 161.92 C 961.00 164.43 961.95 168.74 958.78 170.89 C 952.53 175.40 944.04 174.94 936.91 173.15 C 926.66 170.04 917.31 164.43 908.75 158.07 Z" />
<path fill="#8b9dd7" opacity="1.00" d=" M 226.04 523.10 C 228.25 519.11 230.62 514.57 235.01 512.66 C 238.70 511.40 241.81 514.66 243.80 517.34 C 248.89 524.52 251.78 532.97 254.42 541.29 C 247.95 541.91 243.98 547.74 241.18 552.98 C 235.99 563.33 233.19 574.71 231.52 586.11 C 230.38 593.64 230.44 601.61 233.49 608.71 C 227.27 607.95 222.40 602.98 219.15 597.90 C 213.07 588.17 212.29 576.16 213.88 565.04 C 215.86 550.59 219.55 536.21 226.04 523.10 M 229.62 521.69 C 223.74 533.27 221.29 546.21 219.22 558.93 C 219.16 560.51 218.29 562.60 219.58 563.91 C 222.30 552.65 226.35 541.52 232.84 531.85 C 235.65 528.32 239.04 524.01 244.13 524.83 C 243.11 521.45 241.21 517.90 238.02 516.17 C 234.09 514.58 231.32 518.81 229.62 521.69 Z" />
<path fill="#8b9dd7" opacity="1.00" d=" M 672.13 554.07 C 675.25 549.48 679.08 544.47 684.83 543.28 C 689.62 542.56 693.71 545.94 696.67 549.31 C 703.06 556.87 706.84 566.15 710.39 575.28 L 710.17 575.94 C 704.41 579.22 700.71 585.00 697.74 590.74 C 693.77 598.73 691.00 607.28 689.02 615.98 C 686.56 626.90 684.91 638.82 689.55 649.42 C 691.12 653.79 694.22 657.36 696.95 660.95 C 688.98 664.43 679.43 663.72 672.01 659.20 C 660.74 652.52 654.34 639.67 652.93 626.94 C 651.78 615.17 654.25 603.41 656.94 592.01 C 660.44 578.84 664.75 565.63 672.13 554.07 M 680.33 550.29 C 676.28 554.29 674.02 559.65 671.70 564.75 C 666.97 576.74 664.01 589.37 661.93 602.07 C 661.43 604.99 660.76 607.96 661.16 610.95 C 661.30 610.70 661.58 610.20 661.72 609.94 C 664.86 596.72 670.06 583.93 677.41 572.48 C 680.92 567.44 684.85 562.11 690.67 559.62 C 692.68 558.58 694.91 559.35 697.02 559.58 C 695.55 555.57 692.89 551.96 689.54 549.33 C 686.77 547.22 682.68 547.88 680.33 550.29 Z" />
<path fill="#8b9dd7" opacity="1.00" d=" M 252.33 547.33 C 254.58 545.75 257.30 547.38 258.80 549.21 C 262.47 553.59 264.59 559.00 266.55 564.31 C 269.63 573.27 271.87 582.59 272.51 592.07 C 273.04 600.06 271.10 608.57 265.73 614.71 C 262.18 618.80 256.42 621.40 251.02 619.80 C 244.54 617.95 240.18 611.96 238.09 605.83 C 235.39 598.22 236.19 589.96 237.60 582.17 C 239.32 573.11 241.86 564.14 245.88 555.82 C 247.56 552.70 249.26 549.31 252.33 547.33 M 254.21 550.34 C 250.19 552.16 248.28 556.57 246.50 560.33 C 244.75 565.36 242.72 570.62 243.16 576.02 C 246.58 567.45 250.45 556.89 260.32 554.12 C 258.95 552.20 256.78 549.86 254.21 550.34 Z" />
<path fill="#8b9dd7" opacity="1.00" d=" M 331.91 559.97 C 335.13 555.24 339.04 549.95 345.03 548.85 C 350.13 548.28 354.31 552.08 357.31 555.74 C 363.33 563.28 367.10 572.30 370.44 581.27 C 359.80 587.96 355.39 600.62 351.56 611.95 C 347.91 625.01 344.16 639.22 348.58 652.56 C 350.20 657.88 353.49 662.42 357.00 666.63 C 349.69 669.56 341.18 669.53 334.09 665.96 C 323.61 660.79 316.74 650.14 314.05 639.01 C 310.82 625.99 313.56 612.49 316.42 599.67 C 319.89 585.88 324.33 572.09 331.91 559.97 M 340.13 556.17 C 334.70 561.69 332.01 569.17 329.42 576.31 C 325.54 587.88 323.01 599.86 321.20 611.91 C 321.01 613.28 320.69 614.82 321.53 616.08 C 325.25 600.94 331.32 586.14 340.68 573.60 C 344.36 568.47 350.14 563.32 356.96 564.98 C 355.42 560.93 352.62 557.47 349.27 554.77 C 346.41 552.75 342.36 553.61 340.13 556.17 Z" />
<path fill="#8b9dd7" opacity="1.00" d=" M 652.07 562.15 C 654.90 560.42 659.25 558.94 662.13 560.91 C 661.42 562.86 660.45 564.71 659.64 566.63 L 659.54 566.62 C 655.09 565.09 650.36 566.87 647.31 570.27 C 640.04 578.36 636.32 588.87 633.27 599.14 C 632.34 603.03 630.82 606.95 631.29 611.02 C 634.16 602.94 637.97 595.13 643.28 588.35 C 646.72 583.98 650.40 579.46 655.55 577.05 C 651.39 590.69 647.79 604.69 647.16 619.01 C 646.70 629.64 649.52 640.26 654.81 649.46 C 646.28 648.28 638.15 643.87 632.93 636.97 C 628.08 630.86 625.88 622.82 626.69 615.09 C 627.82 604.19 631.26 593.62 635.83 583.69 C 639.76 575.61 644.36 567.21 652.07 562.15 Z" />
<path fill="#8b9dd7" opacity="1.00" d=" M 307.97 570.95 C 311.64 567.21 317.05 564.50 322.36 566.09 C 321.46 568.27 320.40 570.37 319.52 572.56 L 319.43 572.54 C 316.23 571.29 312.45 571.54 309.77 573.81 C 303.38 578.84 299.92 586.50 296.90 593.83 C 294.41 601.11 291.56 608.45 291.06 616.19 C 296.04 604.91 301.68 593.40 311.28 585.28 C 312.53 584.24 313.98 583.49 315.41 582.71 C 311.44 596.49 307.63 610.57 307.12 625.02 C 306.80 635.48 309.41 646.06 314.88 655.02 C 300.19 653.56 287.27 640.85 286.57 625.93 C 286.28 616.08 289.14 606.46 292.43 597.28 C 296.14 587.78 300.65 578.23 307.97 570.95 Z" />
<path fill="#8b9dd7" opacity="1.00" d=" M 713.25 580.36 C 716.14 579.04 719.20 580.85 721.22 582.88 C 725.14 586.88 727.68 591.97 729.96 597.02 C 734.30 607.13 737.31 617.87 738.50 628.82 C 739.31 635.76 738.53 642.99 735.41 649.30 C 732.24 655.87 726.37 661.53 719.04 662.95 C 712.48 664.35 705.54 661.70 700.91 657.01 C 693.86 650.06 691.20 639.62 692.23 629.96 C 693.54 616.86 697.25 603.96 703.17 592.19 C 705.68 587.69 708.38 582.66 713.25 580.36 M 713.82 584.81 C 706.34 590.31 703.59 599.81 701.43 608.40 C 701.31 610.14 700.11 612.41 701.54 613.86 C 702.84 609.40 704.67 605.10 707.18 601.18 C 710.92 595.57 715.69 589.78 722.76 588.67 C 720.67 586.25 717.21 582.68 713.82 584.81 Z" />
<path fill="#8b9dd7" opacity="1.00" d=" M 372.34 586.41 C 374.91 584.74 378.20 585.76 380.30 587.71 C 384.54 591.42 387.08 596.61 389.48 601.60 C 394.13 612.17 397.32 623.43 398.51 634.93 C 399.41 642.78 398.07 651.05 393.79 657.79 C 390.17 663.64 384.03 668.23 377.05 668.85 C 370.20 669.53 363.47 666.02 359.19 660.82 C 353.46 653.98 351.32 644.69 352.17 635.93 C 353.28 623.75 356.67 611.80 361.72 600.67 C 364.38 595.40 367.14 589.63 372.34 586.41 M 374.26 590.25 C 368.76 593.23 366.18 599.46 364.02 605.01 C 362.57 609.57 360.79 614.25 360.99 619.11 C 363.27 615.54 364.27 611.23 366.66 607.67 C 370.42 601.81 375.25 595.20 382.81 594.60 C 380.86 592.06 377.81 588.60 374.26 590.25 Z" />
</g>
<g id="#707fbbff">
<path fill="#707fbb" opacity="1.00" d=" M 721.30 100.77 C 725.50 102.21 729.74 103.60 733.87 105.28 C 745.18 110.12 756.50 115.08 767.00 121.55 C 765.58 122.18 764.22 122.98 763.40 124.33 C 744.07 149.84 724.52 175.19 705.28 200.76 C 721.52 201.19 737.79 200.98 754.03 201.12 C 755.13 201.31 756.21 201.60 757.28 201.97 C 738.50 202.04 719.73 201.91 700.95 201.99 C 693.54 201.98 686.57 207.60 685.20 214.92 C 681.34 234.30 677.64 253.71 673.77 273.09 C 673.01 271.27 671.07 270.25 669.19 271.03 C 667.69 272.35 666.34 273.83 664.91 275.22 C 667.03 261.76 671.78 248.32 669.60 234.56 C 667.89 224.11 662.02 213.48 652.07 208.94 C 648.98 207.39 645.66 206.37 642.33 205.47 C 647.67 196.97 654.47 189.49 660.28 181.31 C 678.44 157.48 696.65 133.66 714.76 109.78 C 717.17 106.95 719.38 103.96 721.30 100.77 Z" />
</g>
<g id="#8b95d3ff">
<path fill="#8b95d3" opacity="1.00" d=" M 780.58 118.41 C 780.03 117.77 779.16 117.15 779.37 116.21 L 780.43 116.33 C 795.16 129.14 807.89 144.21 818.23 160.77 C 818.21 161.44 818.15 162.77 818.12 163.44 C 813.81 159.74 810.22 155.29 806.08 151.40 C 798.39 143.59 789.62 136.94 780.78 130.48 C 783.29 129.24 786.31 128.17 787.65 125.49 C 785.52 122.91 782.92 120.78 780.58 118.41 Z" />
</g>
<g id="#6a78b4ff">
<path fill="#6a78b4" opacity="1.00" d=" M 763.40 124.33 C 764.22 122.98 765.58 122.18 767.00 121.55 C 771.67 124.41 776.39 127.20 780.78 130.48 C 789.62 136.94 798.39 143.59 806.08 151.40 C 805.05 151.89 804.13 152.51 803.30 153.26 C 791.99 168.27 780.59 183.22 769.10 198.11 C 768.05 199.46 767.30 201.01 766.56 202.55 C 763.47 202.28 760.37 202.05 757.28 201.97 C 756.21 201.60 755.13 201.31 754.03 201.12 C 737.79 200.98 721.52 201.19 705.28 200.76 C 724.52 175.19 744.07 149.84 763.40 124.33 Z" />
</g>
<g id="#5f6dabff">
<path fill="#5f6dab" opacity="1.00" d=" M 818.94 132.85 C 836.72 132.60 854.53 132.72 872.33 132.81 C 870.71 135.76 870.47 138.97 872.00 142.00 C 858.02 142.17 844.03 142.01 830.05 142.08 C 828.48 141.94 826.80 142.39 825.35 141.74 C 823.31 138.71 820.76 136.01 818.94 132.85 Z" />
</g>
<g id="#6270adff">
<path fill="#6270ad" opacity="1.00" d=" M 803.30 153.26 C 804.13 152.51 805.05 151.89 806.08 151.40 C 810.22 155.29 813.81 159.74 818.12 163.44 C 818.15 162.77 818.21 161.44 818.23 160.77 C 823.65 168.05 827.43 176.47 831.39 184.62 C 836.08 195.24 840.46 206.23 843.09 217.49 C 836.29 224.96 830.59 233.35 824.42 241.34 C 821.36 229.90 814.97 218.62 804.47 212.53 C 793.04 205.72 779.62 203.62 766.56 202.55 C 767.30 201.01 768.05 199.46 769.10 198.11 C 780.59 183.22 791.99 168.27 803.30 153.26 Z" />
<path fill="#6270ad" opacity="1.00" d=" M 731.16 243.17 L 731.97 242.83 C 742.31 243.02 752.78 242.07 763.00 244.06 C 766.70 244.96 771.21 246.33 772.55 250.36 C 774.27 255.43 773.49 260.91 772.67 266.08 C 771.10 274.13 768.59 282.61 762.43 288.40 C 760.28 290.62 757.24 291.55 754.40 292.50 C 743.47 295.69 732.00 296.40 720.67 296.15 C 724.12 278.49 727.40 260.76 731.16 243.17 Z" />
</g>
<g id="#ffffffff">
<path fill="#ffffff" opacity="1.00" d=" M 547.97 165.94 C 550.74 161.66 555.57 158.91 560.64 158.53 C 568.38 158.49 576.12 158.41 583.85 158.58 C 589.23 158.70 594.07 162.42 595.87 167.44 C 596.37 169.57 596.64 171.78 596.24 173.96 C 594.52 183.28 592.55 192.56 590.82 201.89 C 608.02 201.98 625.45 201.76 642.33 205.47 C 645.66 206.37 648.98 207.39 652.07 208.94 C 662.02 213.48 667.89 224.11 669.60 234.56 C 671.78 248.32 667.03 261.76 664.91 275.22 C 661.97 290.21 659.02 305.20 656.09 320.20 C 655.52 323.06 655.11 326.06 653.62 328.64 C 650.95 333.44 645.82 336.61 640.37 337.05 C 632.24 336.88 624.09 337.17 615.97 336.92 C 609.83 336.56 604.43 331.31 604.06 325.15 C 603.96 319.63 605.83 314.30 606.64 308.88 C 608.85 297.91 610.95 286.91 613.12 275.93 C 614.75 267.30 616.78 258.71 617.43 249.92 C 617.45 248.32 617.59 246.59 616.81 245.14 C 610.84 242.77 604.26 243.55 597.99 243.38 C 592.91 243.53 587.78 243.09 582.73 243.61 C 577.67 268.08 573.07 292.67 568.20 317.18 C 567.16 322.96 566.29 329.51 561.22 333.29 C 555.35 338.49 547.12 336.74 539.99 337.05 C 533.28 336.71 525.38 338.58 520.00 333.40 C 516.83 330.13 515.32 325.37 516.40 320.89 C 518.72 308.86 521.10 296.83 523.45 284.81 C 523.71 283.48 523.82 282.12 523.66 280.78 C 520.25 293.84 512.54 305.54 502.90 314.87 C 494.74 322.87 484.83 329.19 473.88 332.56 C 463.69 335.81 452.94 336.72 442.30 337.03 C 432.91 337.14 423.49 336.76 414.13 337.25 C 411.73 347.75 410.12 358.43 407.69 368.92 C 405.61 376.43 397.67 381.24 390.05 380.51 C 381.85 380.05 373.44 381.49 365.40 379.61 C 359.77 377.43 356.05 371.25 357.22 365.24 C 360.39 348.49 363.75 331.77 366.99 315.03 C 369.65 314.52 372.33 314.15 374.96 313.48 C 371.72 331.04 368.10 348.54 364.74 366.09 C 363.80 369.38 366.49 372.96 369.91 372.95 C 377.28 372.99 384.65 372.95 392.03 372.97 C 396.02 373.09 399.88 369.99 400.63 366.07 C 402.57 356.31 404.45 346.55 406.38 336.79 C 406.94 333.01 410.30 329.92 414.08 329.57 C 432.40 329.06 451.12 330.96 469.04 326.13 C 484.02 322.23 496.79 312.20 505.99 299.97 C 515.70 286.80 520.37 270.20 519.90 253.92 C 519.30 241.48 514.49 228.45 504.58 220.48 C 490.41 210.53 472.30 210.51 455.74 209.31 C 456.00 206.83 456.05 204.34 456.27 201.87 C 463.72 201.97 471.12 202.90 478.54 203.61 C 491.09 205.36 504.21 209.02 513.44 218.20 C 522.02 227.68 526.85 240.30 527.44 253.03 C 527.79 257.09 527.17 261.17 527.43 265.23 C 532.87 236.01 538.80 206.87 544.43 177.68 C 545.38 173.72 545.60 169.41 547.97 165.94 M 558.45 166.65 C 555.34 167.80 553.19 170.86 552.87 174.13 C 543.17 223.79 533.37 273.43 523.70 323.10 C 523.02 326.32 525.82 329.60 529.10 329.49 C 536.41 329.51 543.73 329.50 551.04 329.49 C 554.97 329.51 558.69 326.40 559.41 322.54 C 564.62 296.01 569.79 269.47 575.00 242.94 C 575.70 238.76 579.83 235.62 584.03 235.83 C 592.02 235.87 600.01 235.74 608.00 235.92 C 612.64 236.22 617.60 236.64 621.57 239.32 C 624.65 241.47 624.98 245.62 625.06 249.05 C 624.49 259.83 621.81 270.34 619.86 280.93 C 617.13 294.99 614.31 309.04 611.63 323.11 C 610.94 326.33 613.76 329.60 617.03 329.48 C 624.34 329.52 631.64 329.48 638.95 329.50 C 643.27 329.80 647.41 326.34 647.99 322.07 C 651.74 302.88 655.51 283.69 659.26 264.50 C 661.14 254.44 664.07 244.11 661.76 233.86 C 660.06 226.35 655.74 218.72 648.41 215.53 C 639.19 211.49 628.98 210.56 619.03 210.11 C 608.74 209.12 598.39 209.59 588.08 209.45 C 584.83 209.46 582.15 206.20 582.85 203.01 C 584.78 192.67 586.96 182.36 588.85 172.01 C 589.27 168.74 586.30 165.87 583.10 166.05 C 576.40 166.00 569.71 166.05 563.01 166.03 C 561.47 166.00 559.88 166.04 558.45 166.65 Z" />
<path fill="#ffffff" opacity="1.00" d=" M 685.20 214.92 C 686.57 207.60 693.54 201.98 700.95 201.99 C 719.73 201.91 738.50 202.04 757.28 201.97 C 760.37 202.05 763.47 202.28 766.56 202.55 C 779.62 203.62 793.04 205.72 804.47 212.53 C 814.97 218.62 821.36 229.90 824.42 241.34 C 827.73 255.02 826.02 269.48 821.80 282.76 C 816.13 300.33 803.77 315.42 788.27 325.29 C 778.04 331.78 766.09 335.02 754.12 336.22 C 740.45 337.59 726.70 336.79 713.00 337.11 C 712.06 338.09 712.23 339.62 711.86 340.86 C 710.12 349.73 708.41 358.60 706.64 367.46 C 705.28 374.73 698.41 380.37 691.04 380.48 C 683.19 380.51 675.33 380.56 667.48 380.46 C 660.47 379.82 654.64 373.13 655.68 366.02 C 656.83 358.72 658.49 351.50 659.82 344.23 C 664.51 320.53 669.11 296.80 673.77 273.09 C 677.64 253.71 681.34 234.30 685.20 214.92 M 699.44 209.64 C 696.13 210.34 693.25 213.03 692.62 216.40 C 682.85 266.23 673.08 316.06 663.33 365.89 C 662.34 369.02 664.66 372.59 667.93 372.91 C 675.30 373.04 682.67 372.92 690.04 372.97 C 694.25 373.32 698.46 370.13 699.21 365.97 C 701.11 356.29 703.00 346.60 704.89 336.92 C 705.39 333.16 708.66 330.05 712.40 329.59 C 730.92 329.01 749.86 331.03 767.96 326.02 C 782.17 322.25 794.34 312.88 803.38 301.49 C 813.47 288.64 818.44 272.23 818.56 256.00 C 818.65 244.45 814.84 232.70 807.04 224.07 C 801.43 218.25 793.64 215.20 786.00 213.10 C 771.92 209.78 757.36 209.23 742.95 209.47 C 728.45 209.58 713.93 209.24 699.44 209.64 Z" />
<path fill="#ffffff" opacity="1.00" d=" M 162.36 226.45 C 165.11 224.99 167.49 228.26 168.29 230.56 C 169.28 233.08 169.57 237.76 166.02 238.25 C 161.43 237.06 159.12 229.95 162.36 226.45 Z" />
<path fill="#ffffff" opacity="1.00" d=" M 730.37 235.42 C 741.54 235.30 752.88 234.61 763.96 236.56 C 770.83 237.77 778.23 241.61 780.05 248.91 C 782.64 258.87 780.18 269.37 777.06 278.94 C 773.98 287.31 768.42 295.80 759.52 298.68 C 746.20 303.44 731.84 303.92 717.83 303.68 C 714.57 303.62 711.93 300.29 712.72 297.09 C 716.22 278.98 719.80 260.89 723.34 242.79 C 723.82 239.16 726.80 236.12 730.37 235.42 M 731.16 243.17 C 727.40 260.76 724.12 278.49 720.67 296.15 C 732.00 296.40 743.47 295.69 754.40 292.50 C 757.24 291.55 760.28 290.62 762.43 288.40 C 768.59 282.61 771.10 274.13 772.67 266.08 C 773.49 260.91 774.27 255.43 772.55 250.36 C 771.21 246.33 766.70 244.96 763.00 244.06 C 752.78 242.07 742.31 243.02 731.97 242.83 L 731.16 243.17 Z" />
<path fill="#ffffff" opacity="1.00" d=" M 451.94 235.36 C 460.13 235.49 469.02 236.03 475.98 240.85 C 482.21 245.35 483.09 253.86 482.44 260.95 C 481.26 272.42 478.18 284.51 469.95 293.04 C 465.56 297.77 459.12 299.58 453.05 300.99 C 441.86 303.68 430.28 303.87 418.84 303.65 C 415.88 303.32 413.47 300.27 414.19 297.30 C 417.09 295.03 420.10 292.88 422.70 290.25 C 423.21 292.23 422.33 294.17 422.14 296.13 C 434.40 296.40 446.94 295.65 458.61 291.55 C 464.00 289.77 467.51 284.83 469.89 279.93 C 473.05 273.08 474.63 265.53 475.02 258.02 C 475.07 253.86 474.70 248.61 470.63 246.33 C 464.36 243.02 457.01 242.95 450.09 242.84 C 450.76 240.36 451.36 237.87 451.94 235.36 Z" />
</g>
<g id="#808fcaff">
<path fill="#808fca" opacity="1.00" d=" M 531.11 194.16 C 535.51 188.64 539.21 182.49 544.43 177.68 C 538.80 206.87 532.87 236.01 527.43 265.23 C 527.17 261.17 527.79 257.09 527.44 253.03 C 526.85 240.30 522.02 227.68 513.44 218.20 C 518.32 209.49 525.41 202.31 531.11 194.16 Z" />
</g>
<g id="#e6e7f5ff">
<path fill="#e6e7f5" opacity="1.00" d=" M 20.12 214.85 C 28.87 209.70 36.57 202.95 45.44 198.00 C 39.66 215.39 36.91 233.61 35.58 251.84 C 28.83 256.05 22.51 260.92 15.74 265.12 C 15.77 247.63 16.54 230.14 18.06 212.73 L 18.31 213.04 C 18.76 213.49 19.67 214.40 20.12 214.85 Z" />
</g>
<g id="#fcfcfcff">
<path fill="#fcfcfc" opacity="1.00" d=" M 125.56 234.09 C 128.56 219.16 145.78 209.22 160.24 213.75 C 166.51 215.63 171.80 220.80 173.19 227.28 L 174.29 227.92 C 174.52 231.68 174.43 235.54 173.36 239.18 C 173.70 231.58 169.74 223.65 163.01 219.82 C 158.94 217.45 153.76 216.60 149.33 218.47 C 145.64 219.90 142.80 223.16 141.63 226.91 C 145.39 228.81 149.16 230.68 152.98 232.47 C 149.58 235.07 146.00 237.42 142.58 239.99 C 145.66 247.29 153.64 252.86 161.73 251.53 L 161.23 252.76 C 153.20 257.74 142.30 259.10 134.01 253.98 C 127.29 250.04 123.85 241.64 125.56 234.09 Z" />
</g>
<g id="#5766a2ff">
<path fill="#5766a2" opacity="1.00" d=" M 824.42 241.34 C 830.59 233.35 836.29 224.96 843.09 217.49 C 843.98 218.66 844.06 220.20 844.51 221.57 C 849.47 241.20 852.38 261.42 852.58 281.67 C 851.87 284.49 852.23 287.80 850.21 290.13 C 821.44 328.02 792.55 365.80 763.74 403.65 C 760.85 407.83 755.19 408.28 751.83 411.83 C 712.78 464.07 673.57 516.21 634.44 568.40 C 632.68 570.35 633.23 573.02 633.63 575.36 L 633.67 575.85 C 633.27 576.60 632.81 577.33 632.30 578.02 C 632.25 540.89 632.17 503.76 632.20 466.63 C 632.77 467.67 633.07 468.79 633.10 469.99 C 633.27 476.98 632.90 483.98 633.31 490.97 C 634.89 489.63 636.16 487.97 637.35 486.27 C 645.64 474.96 654.24 463.88 662.50 452.55 C 664.41 449.12 669.39 449.78 671.41 446.41 C 698.53 411.17 725.31 375.66 752.33 340.35 C 753.39 339.21 753.65 337.64 754.12 336.22 C 766.09 335.02 778.04 331.78 788.27 325.29 C 803.77 315.42 816.13 300.33 821.80 282.76 C 826.02 269.48 827.73 255.02 824.42 241.34 Z" />
</g>
<g id="#8493ceff">
<path fill="#8493ce" opacity="1.00" d=" M 450.09 242.84 C 457.01 242.95 464.36 243.02 470.63 246.33 C 474.70 248.61 475.07 253.86 475.02 258.02 C 474.63 265.53 473.05 273.08 469.89 279.93 C 467.51 284.83 464.00 289.77 458.61 291.55 C 446.94 295.65 434.40 296.40 422.14 296.13 C 422.33 294.17 423.21 292.23 422.70 290.25 C 436.47 277.77 445.20 260.59 450.09 242.84 Z" />
<path fill="#8493ce" opacity="1.00" d=" M 274.94 410.86 L 275.81 410.99 C 275.88 464.66 275.74 518.34 275.75 572.01 C 275.71 573.37 275.79 574.77 275.48 576.13 C 272.89 564.64 269.59 552.30 260.89 543.84 C 257.24 532.14 253.60 519.70 244.85 510.66 C 249.24 506.35 252.53 501.13 256.26 496.28 C 261.90 488.89 267.47 481.45 273.02 474.00 C 273.84 472.79 274.83 471.53 274.77 469.99 C 274.93 450.28 274.91 430.57 274.94 410.86 Z" />
</g>
<g id="#7381bdff">
<path fill="#7381bd" opacity="1.00" d=" M 582.73 243.61 C 587.78 243.09 592.91 243.53 597.99 243.38 C 604.26 243.55 610.84 242.77 616.81 245.14 C 617.59 246.59 617.45 248.32 617.43 249.92 C 616.78 258.71 614.75 267.30 613.12 275.93 C 610.95 286.91 608.85 297.91 606.64 308.88 C 606.06 309.26 604.89 310.02 604.31 310.40 C 570.44 354.81 536.59 399.32 502.70 443.74 C 498.41 449.34 494.39 455.16 489.75 460.48 C 487.94 460.29 486.19 459.74 484.38 459.58 C 452.89 501.38 421.50 543.29 390.14 585.19 C 389.38 586.09 388.33 586.65 387.39 587.33 C 384.46 583.82 380.66 580.75 375.97 580.23 C 370.63 567.40 365.23 553.06 352.98 545.22 C 377.19 513.32 401.03 481.12 425.16 449.15 C 427.17 446.60 428.79 443.71 431.13 441.44 C 432.54 441.70 433.91 442.16 435.34 442.45 C 440.05 437.73 443.58 431.95 447.71 426.72 C 465.47 403.49 483.23 380.27 500.83 356.91 C 506.46 350.12 511.46 342.82 516.82 335.81 C 517.63 334.71 518.87 334.10 520.00 333.40 C 525.38 338.58 533.28 336.71 539.99 337.05 C 547.12 336.74 555.35 338.49 561.22 333.29 C 566.29 329.51 567.16 322.96 568.20 317.18 C 573.07 292.67 577.67 268.08 582.73 243.61 Z" />
</g>
<g id="#dcdef1ff">
<path fill="#dcdef1" opacity="1.00" d=" M 15.74 265.12 C 22.51 260.92 28.83 256.05 35.58 251.84 C 34.42 269.56 34.07 287.32 34.18 305.07 C 30.30 306.65 26.77 303.86 23.02 303.31 C 20.56 303.86 18.64 305.84 16.33 306.85 C 16.25 303.59 16.32 300.32 15.77 297.10 C 15.55 286.45 15.66 275.77 15.74 265.12 Z" />
</g>
<g id="#6877b3ff">
<path fill="#6877b3" opacity="1.00" d=" M 664.91 275.22 C 666.34 273.83 667.69 272.35 669.19 271.03 C 671.07 270.25 673.01 271.27 673.77 273.09 C 669.11 296.80 664.51 320.53 659.82 344.23 C 659.45 344.06 658.70 343.73 658.33 343.56 C 623.20 389.72 588.11 435.91 552.85 481.97 C 541.53 482.02 530.24 480.80 519.05 479.16 C 517.51 478.79 515.77 479.03 514.41 478.16 C 514.39 476.56 514.30 474.95 514.50 473.38 C 515.75 472.33 517.06 471.32 518.03 470.00 C 525.88 459.25 534.30 448.94 542.10 438.15 C 548.95 429.91 554.90 420.98 561.68 412.68 C 580.53 387.82 599.41 362.98 618.42 338.26 C 625.67 337.17 633.32 339.29 640.37 337.05 C 645.82 336.61 650.95 333.44 653.62 328.64 C 655.11 326.06 655.52 323.06 656.09 320.20 C 659.02 305.20 661.97 290.21 664.91 275.22 Z" />
</g>
<g id="#7b8ac5ff">
<path fill="#7b8ac5" opacity="1.00" d=" M 523.66 280.78 C 523.82 282.12 523.71 283.48 523.45 284.81 C 521.10 296.83 518.72 308.86 516.40 320.89 C 515.32 325.37 516.83 330.13 520.00 333.40 C 518.87 334.10 517.63 334.71 516.82 335.81 C 511.46 342.82 506.46 350.12 500.83 356.91 C 483.23 380.27 465.47 403.49 447.71 426.72 C 443.58 431.95 440.05 437.73 435.34 442.45 C 433.91 442.16 432.54 441.70 431.13 441.44 C 428.79 443.71 427.17 446.60 425.16 449.15 C 401.03 481.12 377.19 513.32 352.98 545.22 C 348.93 543.28 344.08 542.90 340.02 544.99 C 333.22 548.40 328.75 554.93 324.97 561.30 C 320.73 560.27 316.05 559.86 311.98 561.87 C 302.62 565.99 297.39 575.33 292.17 583.54 C 292.30 550.11 292.01 516.68 292.23 483.26 L 293.04 482.80 C 292.99 494.85 293.07 506.89 293.06 518.93 C 293.09 520.59 293.00 522.32 293.54 523.93 C 316.65 493.23 339.67 462.46 362.74 431.72 C 365.59 428.31 367.66 424.18 371.10 421.31 C 372.61 421.13 374.65 422.37 375.72 420.79 C 395.88 393.65 416.86 367.12 436.99 339.93 C 438.20 338.19 440.42 337.73 442.30 337.03 C 452.94 336.72 463.69 335.81 473.88 332.56 C 484.83 329.19 494.74 322.87 502.90 314.87 C 512.54 305.54 520.25 293.84 523.66 280.78 Z" />
</g>
<g id="#505e9bff">
<path fill="#505e9b" opacity="1.00" d=" M 852.58 281.67 C 854.30 311.58 848.39 342.37 833.56 368.59 C 832.48 370.59 831.10 372.43 830.32 374.58 C 833.05 374.25 835.33 372.47 837.96 371.69 C 838.13 444.80 837.99 517.91 838.03 591.02 C 837.93 601.95 838.93 613.34 834.63 623.68 C 829.43 637.45 817.17 647.30 803.92 652.89 C 785.05 660.97 764.30 663.34 743.95 664.04 C 739.34 664.01 734.69 664.53 730.11 663.85 C 736.59 658.97 741.22 651.82 743.08 643.92 C 745.24 635.85 743.98 627.41 742.54 619.34 C 740.18 608.14 736.83 596.99 731.04 587.05 C 727.71 581.09 722.58 575.72 715.75 574.22 C 711.38 563.09 706.61 551.55 697.79 543.14 C 693.65 539.13 687.44 536.63 681.77 538.70 C 673.90 541.58 669.21 549.02 664.87 555.72 C 660.24 554.55 655.15 554.41 650.87 556.83 C 643.06 560.75 638.42 568.43 633.63 575.36 C 633.23 573.02 632.68 570.35 634.44 568.40 C 673.57 516.21 712.78 464.07 751.83 411.83 C 755.19 408.28 760.85 407.83 763.74 403.65 C 792.55 365.80 821.44 328.02 850.21 290.13 C 852.23 287.80 851.87 284.49 852.58 281.67 Z" />
</g>
<g id="#cfd3edff">
<path fill="#cfd3ed" opacity="1.00" d=" M 15.28 297.14 L 15.77 297.10 C 16.32 300.32 16.25 303.59 16.33 306.85 C 18.64 305.84 20.56 303.86 23.02 303.31 C 26.77 303.86 30.30 306.65 34.18 305.07 C 34.11 317.32 34.55 329.57 33.98 341.81 C 32.49 346.86 27.14 348.49 23.41 351.47 C 21.11 353.06 19.10 355.32 16.27 355.96 C 15.61 350.53 16.69 344.97 15.27 339.62 C 15.20 325.46 15.45 311.30 15.28 297.14 Z" />
</g>
<g id="#6d7cb8ff">
<path fill="#6d7cb8" opacity="1.00" d=" M 604.31 310.40 C 604.89 310.02 606.06 309.26 606.64 308.88 C 605.83 314.30 603.96 319.63 604.06 325.15 C 604.43 331.31 609.83 336.56 615.97 336.92 C 624.09 337.17 632.24 336.88 640.37 337.05 C 633.32 339.29 625.67 337.17 618.42 338.26 C 599.41 362.98 580.53 387.82 561.68 412.68 C 554.90 420.98 548.95 429.91 542.10 438.15 C 534.30 448.94 525.88 459.25 518.03 470.00 C 517.06 471.32 515.75 472.33 514.50 473.38 C 514.08 469.22 515.61 464.13 512.03 460.96 C 507.85 456.57 499.44 458.82 498.20 464.81 C 497.77 472.41 498.14 480.07 497.93 487.69 C 487.16 501.37 477.00 515.54 466.48 529.42 C 444.47 558.38 423.06 587.80 400.83 616.58 C 397.39 606.47 394.10 595.90 387.39 587.33 C 388.33 586.65 389.38 586.09 390.14 585.19 C 421.50 543.29 452.89 501.38 484.38 459.58 C 486.19 459.74 487.94 460.29 489.75 460.48 C 494.39 455.16 498.41 449.34 502.70 443.74 C 536.59 399.32 570.44 354.81 604.31 310.40 Z" />
</g>
<g id="#8897d2ff">
<path fill="#8897d2" opacity="1.00" d=" M 343.88 324.78 C 350.10 318.87 358.68 316.28 366.99 315.03 C 363.75 331.77 360.39 348.49 357.22 365.24 C 356.05 371.25 359.77 377.43 365.40 379.61 C 357.43 389.93 349.52 400.32 341.61 410.68 C 339.96 410.90 337.78 409.96 336.72 411.74 C 323.40 429.44 310.05 447.13 296.86 464.93 C 295.65 466.62 293.99 468.09 293.31 470.09 C 292.87 474.31 293.32 478.57 293.04 482.80 L 292.23 483.26 C 292.19 452.05 292.29 420.85 292.11 389.65 C 294.00 393.11 292.72 397.19 293.28 400.93 C 294.51 399.58 295.56 398.08 296.80 396.74 C 298.26 396.17 300.23 396.72 301.23 395.23 C 307.58 387.21 313.43 378.80 319.89 370.86 C 323.91 365.06 328.77 359.81 332.22 353.64 C 335.30 352.01 337.96 348.79 337.21 345.07 C 336.15 337.77 338.43 329.89 343.88 324.78 Z" />
</g>
<g id="#8291ccff">
<path fill="#8291cc" opacity="1.00" d=" M 414.13 337.25 C 423.49 336.76 432.91 337.14 442.30 337.03 C 440.42 337.73 438.20 338.19 436.99 339.93 C 416.86 367.12 395.88 393.65 375.72 420.79 C 374.65 422.37 372.61 421.13 371.10 421.31 C 367.66 424.18 365.59 428.31 362.74 431.72 C 339.67 462.46 316.65 493.23 293.54 523.93 C 293.00 522.32 293.09 520.59 293.06 518.93 C 293.07 506.89 292.99 494.85 293.04 482.80 C 293.32 478.57 292.87 474.31 293.31 470.09 C 293.99 468.09 295.65 466.62 296.86 464.93 C 310.05 447.13 323.40 429.44 336.72 411.74 C 337.78 409.96 339.96 410.90 341.61 410.68 C 349.52 400.32 357.43 389.93 365.40 379.61 C 373.44 381.49 381.85 380.05 390.05 380.51 C 397.67 381.24 405.61 376.43 407.69 368.92 C 410.12 358.43 411.73 347.75 414.13 337.25 Z" />
</g>
<g id="#5e6ca9ff">
<path fill="#5e6ca9" opacity="1.00" d=" M 713.00 337.11 C 726.70 336.79 740.45 337.59 754.12 336.22 C 753.65 337.64 753.39 339.21 752.33 340.35 C 725.31 375.66 698.53 411.17 671.41 446.41 C 669.39 449.78 664.41 449.12 662.50 452.55 C 654.24 463.88 645.64 474.96 637.35 486.27 C 636.16 487.97 634.89 489.63 633.31 490.97 C 632.90 483.98 633.27 476.98 633.10 469.99 C 633.07 468.79 632.77 467.67 632.20 466.63 C 630.51 461.09 623.03 458.66 618.65 462.61 C 614.09 466.22 616.63 472.55 615.62 477.42 C 607.37 478.24 599.15 479.42 590.87 479.95 C 593.27 478.35 595.35 476.29 596.91 473.86 C 619.10 444.73 641.32 415.61 663.49 386.46 C 665.07 384.64 666.52 382.69 667.48 380.46 C 675.33 380.56 683.19 380.51 691.04 380.48 C 698.41 380.37 705.28 374.73 706.64 367.46 C 708.41 358.60 710.12 349.73 711.86 340.86 C 712.23 339.62 712.06 338.09 713.00 337.11 Z" />
</g>
<g id="#c1c6e7ff">
<path fill="#c1c6e7" opacity="1.00" d=" M 15.27 339.62 C 16.69 344.97 15.61 350.53 16.27 355.96 C 19.10 355.32 21.11 353.06 23.41 351.47 C 27.14 348.49 32.49 346.86 33.98 341.81 C 33.18 369.51 31.79 397.22 30.84 424.91 C 25.71 428.44 20.57 431.96 15.29 435.26 C 15.12 403.38 14.86 371.50 15.27 339.62 Z" />
</g>
<g id="#6472afff">
<path fill="#6472af" opacity="1.00" d=" M 658.33 343.56 C 658.70 343.73 659.45 344.06 659.82 344.23 C 658.49 351.50 656.83 358.72 655.68 366.02 C 654.64 373.13 660.47 379.82 667.48 380.46 C 666.52 382.69 665.07 384.64 663.49 386.46 C 641.32 415.61 619.10 444.73 596.91 473.86 C 595.35 476.29 593.27 478.35 590.87 479.95 C 578.23 481.04 565.54 482.37 552.85 481.97 C 588.11 435.91 623.20 389.72 658.33 343.56 Z" />
</g>
<g id="#8b9ad5ff">
<path fill="#8b9ad5" opacity="1.00" d=" M 222.49 395.31 C 240.41 398.85 257.82 404.57 274.94 410.86 C 274.91 430.57 274.93 450.28 274.77 469.99 C 274.83 471.53 273.84 472.79 273.02 474.00 C 267.47 481.45 261.90 488.89 256.26 496.28 C 252.53 501.13 249.24 506.35 244.85 510.66 C 241.87 508.01 237.70 506.20 233.71 507.57 C 228.48 509.17 225.73 514.20 222.36 518.01 C 222.64 477.11 222.34 436.21 222.49 395.31 Z" />
</g>
<g id="#b3b9e2ff">
<path fill="#b3b9e2" opacity="1.00" d=" M 15.29 435.26 C 20.57 431.96 25.71 428.44 30.84 424.91 C 30.90 434.53 30.28 444.14 29.79 453.74 C 29.33 455.56 28.98 457.43 28.19 459.15 C 24.18 462.05 20.04 464.82 15.69 467.19 C 15.48 456.55 15.35 445.90 15.29 435.26 Z" />
</g>
<g id="#abb2dfff">
<path fill="#abb2df" opacity="1.00" d=" M 28.19 459.15 C 28.98 457.43 29.33 455.56 29.79 453.74 C 30.13 463.73 29.06 473.70 28.83 483.69 C 28.12 485.86 28.25 488.72 26.18 490.16 C 23.48 492.19 20.79 494.28 17.94 496.12 C 17.15 494.74 16.59 493.26 16.14 491.75 C 15.96 483.56 15.78 475.38 15.69 467.19 C 20.04 464.82 24.18 462.05 28.19 459.15 Z" />
</g>
<g id="#6675b1ff">
<path fill="#6675b1" opacity="1.00" d=" M 466.48 529.42 C 477.00 515.54 487.16 501.37 497.93 487.69 C 498.17 528.79 497.91 569.89 497.91 611.00 C 498.00 623.60 493.23 636.32 484.13 645.15 C 473.03 656.12 457.88 661.79 442.91 665.15 C 425.57 669.04 407.69 669.95 389.96 669.76 C 395.58 665.16 400.19 659.21 402.30 652.19 C 406.12 640.65 403.40 628.33 400.59 616.90 L 400.83 616.58 C 423.06 587.80 444.47 558.38 466.48 529.42 Z" />
</g>
<g id="#5d6ba8ff">
<path fill="#5d6ba8" opacity="1.00" d=" M 562.89 497.67 C 580.57 496.80 598.22 495.27 615.79 493.12 C 615.90 521.45 615.68 549.80 615.78 578.14 C 612.26 566.97 609.59 554.57 600.77 546.12 C 597.24 534.95 593.80 523.11 585.75 514.23 C 582.43 510.46 576.71 508.10 572.00 510.75 C 567.65 512.55 565.61 517.13 562.26 519.98 C 562.42 512.72 562.26 505.47 562.33 498.22 L 562.89 497.67 Z" />
</g>
<g id="#7483caff">
<path fill="#7483ca" opacity="1.00" d=" M 574.36 515.39 C 577.99 513.50 581.46 516.80 583.48 519.52 C 588.72 526.75 591.69 535.32 594.33 543.77 C 587.66 544.40 583.66 550.55 580.84 555.94 C 575.51 566.89 572.66 578.91 571.15 590.95 C 570.20 597.79 570.95 604.78 573.24 611.29 C 565.44 609.77 559.88 603.00 556.79 596.06 C 552.31 586.33 552.52 575.27 554.17 564.90 C 556.30 551.68 559.64 538.50 565.53 526.41 C 567.75 522.28 570.16 517.81 574.36 515.39 M 572.23 520.25 C 568.07 525.10 566.34 531.38 564.34 537.31 C 561.91 545.35 560.29 553.62 559.05 561.92 C 558.83 563.24 558.86 564.55 559.15 565.86 L 559.61 565.56 C 562.40 554.42 566.71 543.59 572.98 533.94 C 575.60 530.15 579.73 526.00 584.79 527.72 C 583.19 524.63 581.46 521.47 578.78 519.19 C 576.87 517.26 573.84 518.62 572.23 520.25 Z" />
<path fill="#7483ca" opacity="1.00" d=" M 593.31 549.32 C 595.58 548.62 597.60 550.39 598.97 551.99 C 601.95 555.62 603.83 560.00 605.56 564.33 C 609.13 573.88 611.62 583.90 612.41 594.09 C 613.05 602.54 610.95 611.68 604.92 617.92 C 601.40 621.64 595.89 623.77 590.85 622.24 C 584.32 620.32 579.99 614.23 577.94 608.03 C 575.16 599.99 576.26 591.31 577.81 583.14 C 579.69 574.02 582.27 564.93 586.65 556.67 C 588.30 553.83 590.07 550.57 593.31 549.32 M 587.25 561.05 C 585.00 566.29 583.04 572.02 583.07 577.74 C 584.63 576.77 584.56 574.19 585.47 572.61 C 588.36 566.05 592.35 558.75 599.80 556.73 C 599.28 554.76 596.94 553.27 595.02 552.68 C 590.83 553.34 589.13 557.80 587.25 561.05 Z" />
</g>
<g id="#a6bde6ff">
<path fill="#a6bde6" opacity="1.00" d=" M 229.62 521.69 C 231.32 518.81 234.09 514.58 238.02 516.17 C 241.21 517.90 243.11 521.45 244.13 524.83 C 239.04 524.01 235.65 528.32 232.84 531.85 C 226.35 541.52 222.30 552.65 219.58 563.91 C 218.29 562.60 219.16 560.51 219.22 558.93 C 221.29 546.21 223.74 533.27 229.62 521.69 Z" />
<path fill="#a6bde6" opacity="1.00" d=" M 680.33 550.29 C 682.68 547.88 686.77 547.22 689.54 549.33 C 692.89 551.96 695.55 555.57 697.02 559.58 C 694.91 559.35 692.68 558.58 690.67 559.62 C 684.85 562.11 680.92 567.44 677.41 572.48 C 670.06 583.93 664.86 596.72 661.72 609.94 C 661.58 610.20 661.30 610.70 661.16 610.95 C 660.76 607.96 661.43 604.99 661.93 602.07 C 664.01 589.37 666.97 576.74 671.70 564.75 C 674.02 559.65 676.28 554.29 680.33 550.29 Z" />
<path fill="#a6bde6" opacity="1.00" d=" M 254.21 550.34 C 256.78 549.86 258.95 552.20 260.32 554.12 C 250.45 556.89 246.58 567.45 243.16 576.02 C 242.72 570.62 244.75 565.36 246.50 560.33 C 248.28 556.57 250.19 552.16 254.21 550.34 Z" />
<path fill="#a6bde6" opacity="1.00" d=" M 340.13 556.17 C 342.36 553.61 346.41 552.75 349.27 554.77 C 352.62 557.47 355.42 560.93 356.96 564.98 C 350.14 563.32 344.36 568.47 340.68 573.60 C 331.32 586.14 325.25 600.94 321.53 616.08 C 320.69 614.82 321.01 613.28 321.20 611.91 C 323.01 599.86 325.54 587.88 329.42 576.31 C 332.01 569.17 334.70 561.69 340.13 556.17 Z" />
<path fill="#a6bde6" opacity="1.00" d=" M 647.31 570.27 C 650.36 566.87 655.09 565.09 659.54 566.62 C 658.24 570.10 656.93 573.60 655.55 577.05 C 650.40 579.46 646.72 583.98 643.28 588.35 C 637.97 595.13 634.16 602.94 631.29 611.02 C 630.82 606.95 632.34 603.03 633.27 599.14 C 636.32 588.87 640.04 578.36 647.31 570.27 Z" />
<path fill="#a6bde6" opacity="1.00" d=" M 309.77 573.81 C 312.45 571.54 316.23 571.29 319.43 572.54 C 318.16 575.86 316.87 579.18 315.65 582.53 L 315.41 582.71 C 313.98 583.49 312.53 584.24 311.28 585.28 C 301.68 593.40 296.04 604.91 291.06 616.19 C 291.56 608.45 294.41 601.11 296.90 593.83 C 299.92 586.50 303.38 578.84 309.77 573.81 Z" />
<path fill="#a6bde6" opacity="1.00" d=" M 713.82 584.81 C 717.21 582.68 720.67 586.25 722.76 588.67 C 715.69 589.78 710.92 595.57 707.18 601.18 C 704.67 605.10 702.84 609.40 701.54 613.86 C 700.11 612.41 701.31 610.14 701.43 608.40 C 703.59 599.81 706.34 590.31 713.82 584.81 Z" />
<path fill="#a6bde6" opacity="1.00" d=" M 374.26 590.25 C 377.81 588.60 380.86 592.06 382.81 594.60 C 375.25 595.20 370.42 601.81 366.66 607.67 C 364.27 611.23 363.27 615.54 360.99 619.11 C 360.79 614.25 362.57 609.57 364.02 605.01 C 366.18 599.46 368.76 593.23 374.26 590.25 Z" />
</g>
<g id="#839ad6ff">
<path fill="#839ad6" opacity="1.00" d=" M 572.23 520.25 C 573.84 518.62 576.87 517.26 578.78 519.19 C 581.46 521.47 583.19 524.63 584.79 527.72 C 579.73 526.00 575.60 530.15 572.98 533.94 C 566.71 543.59 562.40 554.42 559.61 565.56 L 559.15 565.86 C 558.86 564.55 558.83 563.24 559.05 561.92 C 560.29 553.62 561.91 545.35 564.34 537.31 C 566.34 531.38 568.07 525.10 572.23 520.25 Z" />
<path fill="#839ad6" opacity="1.00" d=" M 587.25 561.05 C 589.13 557.80 590.83 553.34 595.02 552.68 C 596.94 553.27 599.28 554.76 599.80 556.73 C 592.35 558.75 588.36 566.05 585.47 572.61 C 584.56 574.19 584.63 576.77 583.07 577.74 C 583.04 572.02 585.00 566.29 587.25 561.05 Z" />
</g>
<g id="#7a88c4ff">
<path fill="#7a88c4" opacity="1.00" d=" M 260.31 624.51 C 267.78 622.12 272.50 615.39 275.80 608.70 C 275.72 616.19 276.57 623.72 278.76 630.92 C 272.39 629.72 266.20 627.70 260.09 625.59 C 260.14 625.32 260.25 624.78 260.31 624.51 Z" />
</g>
<g id="#52609dff">
<path fill="#52609d" opacity="1.00" d=" M 609.60 620.64 C 612.38 617.81 613.90 614.11 615.84 610.73 C 616.94 618.72 618.71 626.63 622.06 634.01 C 614.18 632.72 606.42 630.52 598.99 627.57 C 602.94 625.99 606.82 623.96 609.60 620.64 Z" />
</g>
</svg>
