<?xml version="1.0" encoding="UTF-8" standalone="no"?><!DOCTYPE svg PUBLIC "-//W3C//DTD SVG 1.1//EN" "http://www.w3.org/Graphics/SVG/1.1/DTD/svg11.dtd"><svg width="100%" height="100%" viewBox="0 0 433 446" version="1.1" xmlns="http://www.w3.org/2000/svg" xmlns:xlink="http://www.w3.org/1999/xlink" xml:space="preserve" style="fill-rule:evenodd;clip-rule:evenodd;stroke-linecap:round;stroke-linejoin:round;"><g id="Layer_x0020_3"><g><path d="M323.205,324.227c2.833,-23.601 1.984,-27.062 19.563,-23.239l4.463,0.392c13.517,0.615 31.199,-2.174 41.587,-7c22.362,-10.376 35.622,-27.7 13.572,-23.148c-50.297,10.376 -53.755,-6.655 -53.755,-6.655c53.111,-78.803 75.313,-178.836 56.149,-203.322c-52.27,-66.789 -142.748,-35.206 -144.262,-34.386l-0.482,0.089c-9.938,-2.062 -21.06,-3.294 -33.554,-3.496c-22.761,-0.374 -40.032,5.967 -53.133,15.904c0,0 -161.408,-66.498 -153.899,83.628c1.597,31.936 45.777,241.655 98.47,178.31c19.259,-23.163 37.871,-42.748 37.871,-42.748c9.242,6.14 20.307,9.272 31.912,8.147l0.897,-0.765c-0.281,2.876 -0.157,5.689 0.359,9.019c-13.572,15.167 -9.584,17.83 -36.723,23.416c-27.457,5.659 -11.326,15.734 -0.797,18.367c12.768,3.193 42.305,7.716 62.268,-20.224l-0.795,3.188c5.325,4.26 4.965,30.619 5.72,49.452c0.756,18.834 2.017,36.409 5.856,46.771c3.839,10.36 8.369,37.05 44.036,29.406c29.809,-6.388 52.6,-15.582 54.677,-101.107" style="fill-rule:nonzero;"/><path d="M409.329,251.797l0.367,0.01l0.369,0.015l0.371,0.019l0.375,0.024l0.379,0.028l0.385,0.034l0.388,0.039l0.392,0.045l0.399,0.051l0.401,0.058l0.409,0.064l0.415,0.072l0.417,0.079l0.425,0.088l0.433,0.097l0.438,0.106l0.444,0.116l0.453,0.128l0.455,0.137l0.464,0.15l0.472,0.164l0.478,0.176l0.484,0.191l0.489,0.207l0.497,0.223l0.501,0.239l0.505,0.257l0.511,0.277l0.516,0.297l0.516,0.316l0.518,0.337l0.518,0.359l0.518,0.381l0.518,0.406l0.51,0.426l0.506,0.45l0.5,0.474l0.491,0.497l0.48,0.519l0.466,0.54l0.453,0.562l0.436,0.579l0.417,0.598l0.398,0.615l0.378,0.63l0.356,0.644l0.332,0.653l0.306,0.66l0.285,0.672l0.258,0.675l0.23,0.669l0.209,0.677l0.182,0.674l0.158,0.666l0.135,0.665l0.112,0.658l0.089,0.648l0.069,0.636l0.049,0.627l0.03,0.618l0.013,0.601l-0.004,0.59l-0.018,0.579l-0.033,0.561l-0.046,0.548l-0.058,0.537l-0.068,0.522l-0.08,0.51l-0.088,0.497l-0.095,0.478l-0.104,0.47l-0.111,0.457l-0.117,0.443l-0.123,0.433l-0.126,0.418l-0.133,0.412l-0.137,0.402l-0.14,0.387l-0.143,0.378l-0.147,0.373l-0.151,0.363l-0.151,0.352l-0.154,0.344l-0.157,0.338l-0.158,0.328l-0.161,0.325l-0.162,0.317l-0.162,0.308l-0.166,0.305l-0.166,0.298l-0.167,0.292l-0.169,0.288l-0.17,0.282l-0.171,0.277l-0.171,0.273l-0.173,0.269l-0.175,0.266l-0.174,0.261l-0.175,0.255l-0.177,0.256l-0.178,0.25l-0.178,0.247l-0.179,0.244l-0.18,0.242l-0.181,0.239l-0.182,0.236l-0.182,0.232l-0.184,0.232l-0.186,0.23l-0.184,0.225l-0.186,0.224l-0.188,0.224l-0.189,0.222l-0.188,0.217l-0.19,0.218l-0.191,0.216l-0.193,0.215l-0.192,0.212l-0.194,0.21l-0.195,0.211l-0.197,0.21l-0.196,0.206l-0.198,0.206l-0.199,0.206l-0.2,0.203l-0.202,0.204l-0.202,0.201l-0.202,0.2l-0.205,0.201l-0.206,0.199l-0.206,0.198l-0.209,0.197l-0.208,0.197l-0.209,0.195l-0.212,0.195l-0.213,0.195l-0.213,0.194l-0.214,0.192l-0.216,0.192l-0.217,0.192l-0.217,0.19l-0.219,0.191l-0.222,0.19l-0.221,0.189l-0.222,0.188l-0.224,0.189l-0.225,0.187l-0.227,0.187l-0.227,0.186l-0.229,0.187l-0.23,0.186l-0.231,0.184l-0.232,0.184l-0.233,0.185l-0.236,0.184l-0.236,0.183l-0.236,0.182l-0.239,0.183l-0.24,0.182l-0.239,0.18l-0.242,0.181l-0.245,0.182l-0.245,0.18l-0.245,0.179l-0.246,0.179l-0.249,0.179l-0.248,0.178l-0.251,0.178l-0.253,0.179l-0.253,0.177l-0.254,0.177l-0.254,0.175l-0.258,0.177l-0.258,0.175l-0.258,0.175l-0.262,0.175l-0.26,0.174l-0.263,0.174l-0.265,0.174l-0.264,0.172l-0.267,0.173l-0.268,0.172l-0.267,0.171l-0.27,0.171l-0.272,0.171l-0.272,0.17l-0.272,0.169l-0.276,0.17l-0.276,0.169l-0.277,0.168l-0.277,0.168l-0.281,0.168l-0.28,0.166l-0.28,0.166l-0.284,0.167l-0.285,0.165l-0.284,0.165l-0.287,0.164l-0.287,0.164l-0.288,0.162l-0.29,0.163l-0.291,0.163l-0.292,0.161l-0.293,0.161l-0.294,0.16l-0.296,0.16l-0.296,0.159l-0.298,0.159l-0.298,0.158l-0.3,0.158l-0.301,0.156l-0.302,0.156l-0.304,0.156l-0.304,0.155l-0.305,0.154l-0.306,0.154l-0.307,0.152l-0.309,0.153l-0.31,0.152l-0.311,0.151l-0.312,0.15l-0.312,0.149l-0.314,0.148l-0.315,0.149l-0.327,0.152l-0.338,0.155l-0.359,0.163l-0.359,0.16l-0.359,0.157l-0.361,0.155l-0.36,0.152l-0.361,0.15l-0.362,0.149l-0.364,0.146l-0.364,0.144l-0.365,0.142l-0.366,0.14l-0.365,0.138l-0.368,0.137l-0.368,0.134l-0.368,0.133l-0.37,0.131l-0.371,0.129l-0.371,0.127l-0.372,0.126l-0.374,0.125l-0.374,0.122l-0.374,0.121l-0.376,0.12l-0.377,0.118l-0.377,0.116l-0.379,0.115l-0.379,0.114l-0.38,0.112l-0.38,0.11l-0.382,0.109l-0.383,0.108l-0.383,0.106l-0.385,0.105l-0.385,0.104l-0.386,0.102l-0.387,0.101l-0.387,0.1l-0.388,0.098l-0.39,0.097l-0.389,0.095l-0.391,0.095l-0.391,0.093l-0.393,0.092l-0.392,0.09l-0.393,0.09l-0.395,0.088l-0.394,0.086l-0.396,0.086l-0.396,0.084l-0.397,0.083l-0.397,0.082l-0.398,0.081l-0.399,0.079l-0.399,0.078l-0.4,0.077l-0.4,0.076l-0.401,0.074l-0.401,0.074l-0.402,0.072l-0.402,0.071l-0.403,0.069l-0.403,0.069l-0.403,0.067l-0.404,0.066l-0.404,0.065l-0.405,0.064l-0.405,0.062l-0.405,0.061l-0.406,0.061l-0.406,0.058l-0.405,0.058l-0.407,0.056l-0.407,0.056l-0.407,0.054l-0.407,0.053l-0.406,0.051l-0.409,0.051l-0.407,0.049l-0.407,0.048l-0.408,0.046l-0.408,0.046l-0.407,0.044l-0.408,0.043l-0.408,0.042l-0.408,0.041l-0.408,0.039l-0.408,0.038l-0.407,0.037l-0.408,0.036l-0.408,0.034l-0.408,0.033l-0.407,0.032l-0.407,0.031l-0.407,0.029l-0.406,0.028l-0.407,0.027l-0.408,0.025l-0.406,0.024l-0.405,0.023l-0.406,0.022l-0.406,0.02l-0.405,0.019l-0.405,0.017l-0.405,0.017l-0.405,0.014l-0.403,0.014l-0.404,0.012l-0.403,0.011l-0.402,0.01l-0.403,0.008l-0.403,0.006l-0.401,0.006l-0.401,0.004l-0.401,0.002l-0.4,0.001l-0.401,0l-0.398,-0.002l-0.4,-0.004l-0.398,-0.004l-0.398,-0.007l-0.397,-0.007l-0.397,-0.01l-0.397,-0.011l-0.396,-0.012l-0.396,-0.014l-0.394,-0.015l-0.769,-0.034l-3.449,-0.303l-0.065,0.547l-0.223,1.916l-0.239,2.05l-0.128,1.086l-0.028,0.236l-0.004,0.143l-0.028,1.031l-0.031,1.025l-0.032,1.018l-0.034,1.012l-0.036,1.005l-0.038,0.998l-0.04,0.993l-0.043,0.986l-0.044,0.98l-0.046,0.973l-0.048,0.968l-0.05,0.961l-0.052,0.955l-0.053,0.949l-0.056,0.943l-0.058,0.937l-0.06,0.931l-0.062,0.925l-0.063,0.919l-0.066,0.913l-0.068,0.907l-0.069,0.901l-0.072,0.895l-0.073,0.89l-0.076,0.884l-0.077,0.879l-0.08,0.872l-0.081,0.867l-0.083,0.861l-0.086,0.856l-0.087,0.85l-0.089,0.845l-0.092,0.839l-0.093,0.833l-0.095,0.828l-0.097,0.824l-0.099,0.817l-0.101,0.812l-0.104,0.807l-0.105,0.802l-0.107,0.796l-0.109,0.791l-0.111,0.787l-0.113,0.781l-0.115,0.776l-0.117,0.77l-0.119,0.766l-0.122,0.761l-0.123,0.756l-0.125,0.751l-0.127,0.746l-0.13,0.741l-0.131,0.737l-0.133,0.732l-0.136,0.727l-0.137,0.722l-0.14,0.717l-0.142,0.713l-0.144,0.709l-0.145,0.703l-0.148,0.699l-0.15,0.695l-0.153,0.69l-0.154,0.685l-0.156,0.681l-0.159,0.677l-0.161,0.672l-0.163,0.669l-0.165,0.663l-0.167,0.66l-0.17,0.655l-0.172,0.651l-0.173,0.647l-0.176,0.642l-0.179,0.639l-0.181,0.634l-0.183,0.63l-0.185,0.626l-0.187,0.622l-0.19,0.619l-0.192,0.614l-0.194,0.61l-0.197,0.606l-0.199,0.603l-0.202,0.598l-0.204,0.595l-0.206,0.591l-0.208,0.587l-0.211,0.583l-0.214,0.58l-0.216,0.575l-0.218,0.572l-0.221,0.569l-0.223,0.564l-0.22,0.547l-0.12,0.293l-0.115,0.279l-0.114,0.276l-0.116,0.275l-0.117,0.277l-0.117,0.274l-0.117,0.273l-0.119,0.274l-0.119,0.272l-0.119,0.27l-0.12,0.27l-0.121,0.269l-0.122,0.268l-0.122,0.267l-0.122,0.266l-0.124,0.266l-0.124,0.265l-0.125,0.264l-0.125,0.262l-0.126,0.262l-0.127,0.261l-0.127,0.26l-0.129,0.26l-0.128,0.258l-0.129,0.256l-0.13,0.257l-0.131,0.256l-0.132,0.256l-0.132,0.252l-0.132,0.253l-0.134,0.253l-0.134,0.251l-0.134,0.25l-0.136,0.25l-0.136,0.249l-0.137,0.247l-0.137,0.246l-0.138,0.246l-0.139,0.246l-0.139,0.244l-0.14,0.243l-0.141,0.242l-0.141,0.241l-0.143,0.241l-0.143,0.24l-0.143,0.239l-0.144,0.237l-0.145,0.237l-0.146,0.237l-0.146,0.235l-0.146,0.234l-0.148,0.233l-0.148,0.232l-0.149,0.233l-0.15,0.23l-0.15,0.229l-0.152,0.231l-0.151,0.227l-0.151,0.226l-0.153,0.226l-0.155,0.227l-0.153,0.223l-0.156,0.224l-0.155,0.222l-0.156,0.221l-0.158,0.222l-0.157,0.22l-0.158,0.218l-0.159,0.217l-0.16,0.218l-0.16,0.216l-0.161,0.215l-0.161,0.214l-0.162,0.213l-0.163,0.213l-0.164,0.211l-0.164,0.211l-0.165,0.209l-0.166,0.209l-0.166,0.208l-0.166,0.205l-0.168,0.207l-0.168,0.205l-0.168,0.203l-0.169,0.203l-0.17,0.202l-0.17,0.201l-0.171,0.2l-0.171,0.198l-0.174,0.199l-0.172,0.197l-0.174,0.196l-0.174,0.195l-0.174,0.194l-0.176,0.195l-0.175,0.191l-0.176,0.191l-0.177,0.19l-0.178,0.19l-0.179,0.189l-0.177,0.186l-0.179,0.186l-0.181,0.187l-0.181,0.184l-0.181,0.183l-0.195,0.197l-0.349,0.347l-0.367,0.357l-0.368,0.354l-0.371,0.351l-0.372,0.345l-0.374,0.342l-0.376,0.337l-0.378,0.334l-0.38,0.33l-0.382,0.326l-0.383,0.321l-0.384,0.318l-0.386,0.313l-0.388,0.309l-0.389,0.306l-0.39,0.301l-0.391,0.297l-0.394,0.294l-0.394,0.289l-0.395,0.285l-0.397,0.282l-0.398,0.277l-0.398,0.274l-0.399,0.269l-0.401,0.266l-0.401,0.262l-0.401,0.257l-0.404,0.255l-0.404,0.25l-0.402,0.246l-0.405,0.243l-0.406,0.239l-0.405,0.235l-0.406,0.231l-0.407,0.229l-0.406,0.224l-0.407,0.22l-0.408,0.218l-0.407,0.214l-0.408,0.21l-0.407,0.207l-0.408,0.203l-0.408,0.2l-0.408,0.197l-0.407,0.194l-0.408,0.19l-0.407,0.187l-0.408,0.185l-0.407,0.181l-0.406,0.178l-0.408,0.175l-0.407,0.172l-0.406,0.169l-0.405,0.167l-0.406,0.163l-0.405,0.161l-0.404,0.158l-0.405,0.155l-0.404,0.153l-0.402,0.15l-0.403,0.148l-0.402,0.145l-0.402,0.143l-0.401,0.141l-0.401,0.138l-0.4,0.136l-0.399,0.133l-0.399,0.132l-0.398,0.129l-0.397,0.127l-0.397,0.125l-0.396,0.124l-0.396,0.121l-0.395,0.119l-0.394,0.118l-0.392,0.115l-0.393,0.114l-0.393,0.112l-0.391,0.11l-0.39,0.109l-0.389,0.107l-0.39,0.106l-0.389,0.104l-0.386,0.102l-0.387,0.102l-0.387,0.1l-0.385,0.098l-0.383,0.097l-0.384,0.096l-0.383,0.095l-0.382,0.093l-0.381,0.092l-0.381,0.091l-0.379,0.091l-0.388,0.091l-0.746,0.173l-0.752,0.171l-0.75,0.168l-0.745,0.165l-0.743,0.162l-0.757,0.163l-0.507,0.107l-0.521,0.107l-0.52,0.104l-0.518,0.099l-0.516,0.097l-0.516,0.093l-0.513,0.089l-0.512,0.086l-0.51,0.082l-0.509,0.079l-0.508,0.075l-0.505,0.071l-0.505,0.068l-0.502,0.065l-0.501,0.061l-0.501,0.057l-0.498,0.054l-0.497,0.05l-0.496,0.047l-0.495,0.043l-0.493,0.039l-0.491,0.036l-0.49,0.032l-0.489,0.029l-0.487,0.025l-0.487,0.021l-0.485,0.018l-0.483,0.014l-0.482,0.01l-0.48,0.007l-0.479,0.003l-0.478,0l-0.477,-0.005l-0.475,-0.008l-0.474,-0.012l-0.473,-0.015l-0.471,-0.019l-0.47,-0.023l-0.468,-0.027l-0.467,-0.03l-0.465,-0.034l-0.464,-0.038l-0.463,-0.042l-0.461,-0.046l-0.46,-0.049l-0.458,-0.053l-0.457,-0.057l-0.455,-0.06l-0.453,-0.065l-0.452,-0.068l-0.45,-0.072l-0.449,-0.076l-0.447,-0.08l-0.445,-0.083l-0.443,-0.087l-0.443,-0.091l-0.44,-0.095l-0.437,-0.098l-0.436,-0.103l-0.435,-0.106l-0.432,-0.11l-0.43,-0.113l-0.429,-0.118l-0.427,-0.121l-0.424,-0.125l-0.422,-0.128l-0.421,-0.132l-0.417,-0.136l-0.416,-0.139l-0.413,-0.143l-0.411,-0.147l-0.409,-0.15l-0.407,-0.154l-0.403,-0.156l-0.401,-0.161l-0.4,-0.164l-0.396,-0.168l-0.393,-0.17l-0.392,-0.174l-0.388,-0.178l-0.386,-0.18l-0.382,-0.184l-0.381,-0.187l-0.377,-0.19l-0.374,-0.192l-0.373,-0.197l-0.368,-0.199l-0.365,-0.202l-0.364,-0.205l-0.36,-0.208l-0.356,-0.21l-0.353,-0.213l-0.35,-0.215l-0.349,-0.219l-0.344,-0.222l-0.34,-0.222l-0.338,-0.226l-0.334,-0.228l-0.332,-0.231l-0.328,-0.233l-0.325,-0.234l-0.321,-0.237l-0.318,-0.239l-0.315,-0.241l-0.312,-0.243l-0.309,-0.245l-0.305,-0.247l-0.301,-0.248l-0.298,-0.25l-0.295,-0.252l-0.292,-0.253l-0.288,-0.254l-0.285,-0.257l-0.282,-0.257l-0.278,-0.259l-0.274,-0.26l-0.272,-0.261l-0.269,-0.263l-0.265,-0.264l-0.262,-0.264l-0.258,-0.266l-0.256,-0.266l-0.252,-0.268l-0.249,-0.268l-0.245,-0.268l-0.242,-0.269l-0.24,-0.271l-0.237,-0.271l-0.233,-0.272l-0.23,-0.271l-0.227,-0.272l-0.223,-0.272l-0.221,-0.273l-0.218,-0.274l-0.215,-0.274l-0.213,-0.274l-0.208,-0.274l-0.206,-0.273l-0.203,-0.274l-0.201,-0.274l-0.198,-0.274l-0.195,-0.275l-0.192,-0.274l-0.19,-0.274l-0.186,-0.274l-0.184,-0.273l-0.182,-0.273l-0.178,-0.273l-0.177,-0.273l-0.173,-0.272l-0.172,-0.272l-0.169,-0.272l-0.166,-0.27l-0.164,-0.271l-0.162,-0.271l-0.158,-0.269l-0.157,-0.269l-0.155,-0.269l-0.152,-0.268l-0.15,-0.267l-0.148,-0.267l-0.146,-0.265l-0.143,-0.265l-0.141,-0.264l-0.139,-0.264l-0.138,-0.264l-0.135,-0.261l-0.133,-0.26l-0.131,-0.261l-0.13,-0.26l-0.127,-0.257l-0.125,-0.257l-0.124,-0.258l-0.121,-0.255l-0.12,-0.254l-0.118,-0.253l-0.117,-0.252l-0.114,-0.251l-0.113,-0.25l-0.111,-0.249l-0.11,-0.248l-0.114,-0.261l-0.204,-0.473l-0.205,-0.484l-0.199,-0.479l-0.192,-0.473l-0.187,-0.467l-0.182,-0.462l-0.176,-0.456l-0.171,-0.449l-0.165,-0.443l-0.161,-0.437l-0.156,-0.429l-0.151,-0.422l-0.147,-0.415l-0.143,-0.408l-0.138,-0.4l-0.134,-0.391l-0.129,-0.383l-0.126,-0.375l-0.125,-0.373l-0.229,-0.693l-0.217,-0.664l-0.203,-0.621l-0.188,-0.576l-0.177,-0.536l-0.078,-0.236l-0.077,-0.229l-0.073,-0.213l-0.068,-0.199l-0.063,-0.182l-0.058,-0.165l-0.053,-0.147l-0.07,-0.191l-0.112,-0.305l-0.131,-0.365l-0.128,-0.366l-0.126,-0.365l-0.123,-0.366l-0.121,-0.367l-0.119,-0.366l-0.116,-0.367l-0.114,-0.367l-0.112,-0.368l-0.11,-0.369l-0.108,-0.368l-0.105,-0.369l-0.104,-0.37l-0.102,-0.371l-0.1,-0.371l-0.099,-0.371l-0.096,-0.372l-0.095,-0.374l-0.093,-0.373l-0.092,-0.374l-0.09,-0.375l-0.089,-0.376l-0.087,-0.376l-0.085,-0.378l-0.085,-0.377l-0.082,-0.379l-0.082,-0.38l-0.08,-0.38l-0.078,-0.381l-0.078,-0.382l-0.076,-0.384l-0.075,-0.383l-0.074,-0.385l-0.072,-0.385l-0.072,-0.387l-0.07,-0.387l-0.069,-0.388l-0.068,-0.39l-0.067,-0.39l-0.066,-0.391l-0.065,-0.392l-0.064,-0.392l-0.062,-0.394l-0.062,-0.395l-0.061,-0.396l-0.06,-0.396l-0.059,-0.398l-0.058,-0.398l-0.057,-0.4l-0.057,-0.4l-0.055,-0.401l-0.055,-0.403l-0.054,-0.403l-0.052,-0.404l-0.053,-0.405l-0.051,-0.406l-0.05,-0.407l-0.05,-0.408l-0.049,-0.409l-0.048,-0.41l-0.049,-0.419l-0.091,-0.815l-0.09,-0.827l-0.088,-0.831l-0.084,-0.835l-0.082,-0.838l-0.08,-0.841l-0.077,-0.845l-0.074,-0.848l-0.073,-0.851l-0.07,-0.854l-0.068,-0.858l-0.066,-0.86l-0.064,-0.863l-0.062,-0.866l-0.06,-0.869l-0.059,-0.871l-0.057,-0.873l-0.055,-0.877l-0.053,-0.878l-0.052,-0.881l-0.05,-0.882l-0.049,-0.885l-0.047,-0.887l-0.047,-0.889l-0.044,-0.89l-0.044,-0.891l-0.043,-0.894l-0.041,-0.894l-0.04,-0.896l-0.039,-0.897l-0.039,-0.898l-0.037,-0.899l-0.037,-0.907l-0.036,-0.923l-0.034,-0.935l-0.033,-0.941l-0.032,-0.945l-0.03,-0.949l-0.03,-0.954l-0.028,-0.956l-0.028,-0.961l-0.054,-1.92l-0.054,-1.927l-0.055,-1.924l-0.056,-1.923l-0.029,-0.951l-0.03,-0.95l-0.029,-0.883l-0.361,0.157l-0.379,0.162l-0.378,0.159l-0.379,0.157l-0.378,0.154l-0.379,0.151l-0.379,0.149l-0.377,0.146l-0.378,0.143l-0.378,0.141l-0.378,0.138l-0.377,0.136l-0.377,0.133l-0.377,0.13l-0.377,0.128l-0.375,0.126l-0.377,0.123l-0.376,0.12l-0.374,0.118l-0.375,0.116l-0.375,0.113l-0.374,0.111l-0.373,0.108l-0.373,0.106l-0.373,0.104l-0.372,0.101l-0.372,0.099l-0.37,0.096l-0.371,0.095l-0.37,0.092l-0.369,0.09l-0.37,0.088l-0.368,0.085l-0.367,0.084l-0.367,0.081l-0.366,0.079l-0.366,0.077l-0.365,0.074l-0.364,0.073l-0.363,0.071l-0.364,0.068l-0.361,0.067l-0.361,0.064l-0.361,0.063l-0.36,0.061l-0.359,0.058l-0.358,0.057l-0.356,0.055l-0.357,0.053l-0.357,0.051l-0.354,0.049l-0.353,0.047l-0.353,0.046l-0.353,0.044l-0.351,0.042l-0.35,0.04l-0.349,0.039l-0.348,0.036l-0.347,0.035l-0.347,0.034l-0.345,0.032l-0.345,0.03l-0.343,0.028l-0.343,0.027l-0.341,0.026l-0.341,0.023l-0.339,0.023l-0.337,0.02l-0.338,0.02l-0.336,0.017l-0.335,0.017l-0.334,0.014l-0.333,0.014l-0.332,0.012l-0.33,0.01l-0.33,0.01l-0.328,0.007l-0.327,0.007l-0.327,0.005l-0.323,0.004l-0.325,0.003l-0.322,0.001l-0.321,0l-0.32,-0.001l-0.319,-0.002l-0.318,-0.004l-0.316,-0.005l-0.315,-0.005l-0.314,-0.007l-0.313,-0.008l-0.312,-0.01l-0.309,-0.01l-0.309,-0.011l-0.308,-0.013l-0.305,-0.013l-0.306,-0.015l-0.304,-0.015l-0.302,-0.017l-0.302,-0.017l-0.299,-0.018l-0.298,-0.02l-0.297,-0.02l-0.295,-0.021l-0.296,-0.022l-0.292,-0.023l-0.306,-0.025l-0.564,-0.049l-0.573,-0.053l-0.568,-0.056l-0.562,-0.059l-0.555,-0.062l-0.551,-0.065l-0.544,-0.067l-0.537,-0.069l-0.532,-0.072l-0.527,-0.075l-0.519,-0.076l-0.513,-0.078l-0.507,-0.08l-0.501,-0.081l-0.494,-0.083l-0.487,-0.085l-0.481,-0.086l-0.475,-0.087l-0.467,-0.088l-0.461,-0.089l-0.453,-0.09l-0.447,-0.091l-0.44,-0.091l-0.433,-0.092l-0.424,-0.092l-0.417,-0.092l-0.411,-0.092l-0.403,-0.092l-0.394,-0.092l-0.388,-0.092l-0.38,-0.092l-0.37,-0.091l-0.387,-0.096l-0.376,-0.095l-0.398,-0.105l-0.397,-0.108l-0.397,-0.111l-0.394,-0.115l-0.395,-0.117l-0.395,-0.121l-0.394,-0.124l-0.393,-0.127l-0.393,-0.13l-0.393,-0.133l-0.393,-0.137l-0.393,-0.14l-0.392,-0.143l-0.394,-0.147l-0.392,-0.15l-0.393,-0.153l-0.393,-0.157l-0.393,-0.16l-0.393,-0.164l-0.394,-0.168l-0.393,-0.171l-0.392,-0.175l-0.395,-0.179l-0.395,-0.183l-0.393,-0.187l-0.395,-0.191l-0.395,-0.196l-0.395,-0.2l-0.396,-0.205l-0.397,-0.21l-0.396,-0.214l-0.397,-0.22l-0.398,-0.225l-0.398,-0.231l-0.401,-0.238l-0.399,-0.243l-0.377,-0.235l-0.223,-0.141l-0.202,-0.13l-0.202,-0.132l-0.201,-0.133l-0.202,-0.134l-0.201,-0.137l-0.204,-0.139l-0.202,-0.141l-0.202,-0.143l-0.205,-0.146l-0.203,-0.148l-0.204,-0.15l-0.206,-0.153l-0.203,-0.154l-0.205,-0.157l-0.206,-0.161l-0.206,-0.164l-0.208,-0.167l-0.206,-0.168l-0.207,-0.172l-0.208,-0.176l-0.207,-0.178l-0.209,-0.183l-0.209,-0.186l-0.208,-0.188l-0.21,-0.193l-0.21,-0.197l-0.212,-0.203l-0.21,-0.205l-0.21,-0.208l-0.213,-0.216l-0.211,-0.219l-0.211,-0.223l-0.212,-0.229l-0.213,-0.235l-0.212,-0.24l-0.212,-0.245l-0.214,-0.253l-0.084,-0.102l-0.053,0.044l-0.232,0.192l-0.233,0.19l-0.233,0.188l-0.235,0.188l-0.237,0.187l-0.237,0.184l-0.237,0.183l-0.239,0.182l-0.24,0.181l-0.24,0.178l-0.242,0.178l-0.243,0.176l-0.245,0.175l-0.244,0.172l-0.245,0.171l-0.248,0.171l-0.248,0.168l-0.25,0.167l-0.249,0.165l-0.252,0.164l-0.253,0.162l-0.252,0.16l-0.255,0.159l-0.257,0.158l-0.256,0.155l-0.258,0.154l-0.259,0.153l-0.259,0.149l-0.261,0.15l-0.264,0.147l-0.262,0.145l-0.265,0.144l-0.265,0.141l-0.266,0.14l-0.27,0.139l-0.268,0.136l-0.269,0.134l-0.271,0.133l-0.271,0.13l-0.274,0.129l-0.276,0.127l-0.273,0.125l-0.277,0.122l-0.277,0.121l-0.279,0.12l-0.281,0.117l-0.278,0.114l-0.281,0.112l-0.284,0.112l-0.284,0.108l-0.283,0.106l-0.285,0.104l-0.287,0.103l-0.287,0.099l-0.287,0.097l-0.289,0.096l-0.292,0.094l-0.29,0.091l-0.291,0.088l-0.292,0.086l-0.293,0.084l-0.294,0.082l-0.294,0.079l-0.296,0.077l-0.297,0.075l-0.296,0.072l-0.296,0.069l-0.298,0.068l-0.299,0.065l-0.298,0.062l-0.301,0.06l-0.3,0.058l-0.301,0.055l-0.301,0.052l-0.3,0.05l-0.303,0.048l-0.302,0.044l-0.302,0.043l-0.304,0.04l-0.302,0.037l-0.302,0.034l-0.306,0.033l-0.303,0.029l-0.304,0.027l-0.304,0.025l-0.302,0.022l-0.305,0.019l-0.305,0.017l-0.305,0.014l-0.303,0.012l-0.302,0.009l-0.304,0.006l-0.304,0.004l-0.304,0.002l-0.303,-0.002l-0.302,-0.003l-0.303,-0.007l-0.302,-0.008l-0.302,-0.012l-0.301,-0.013l-0.3,-0.017l-0.302,-0.018l-0.3,-0.022l-0.298,-0.023l-0.301,-0.026l-0.297,-0.029l-0.297,-0.031l-0.299,-0.033l-0.295,-0.036l-0.296,-0.038l-0.297,-0.041l-0.293,-0.042l-0.293,-0.045l-0.292,-0.047l-0.292,-0.05l-0.291,-0.052l-0.291,-0.054l-0.29,-0.056l-0.288,-0.059l-0.287,-0.06l-0.287,-0.063l-0.285,-0.065l-0.286,-0.067l-0.284,-0.069l-0.282,-0.071l-0.281,-0.073l-0.28,-0.076l-0.28,-0.077l-0.279,-0.079l-0.276,-0.081l-0.277,-0.083l-0.275,-0.085l-0.274,-0.086l-0.273,-0.089l-0.272,-0.091l-0.271,-0.092l-0.268,-0.093l-0.269,-0.096l-0.267,-0.098l-0.266,-0.099l-0.265,-0.101l-0.263,-0.102l-0.263,-0.105l-0.261,-0.105l-0.26,-0.108l-0.26,-0.109l-0.257,-0.11l-0.256,-0.112l-0.256,-0.114l-0.253,-0.114l-0.254,-0.117l-0.252,-0.118l-0.25,-0.119l-0.248,-0.121l-0.249,-0.122l-0.248,-0.124l-0.245,-0.125l-0.243,-0.125l-0.244,-0.128l-0.243,-0.129l-0.241,-0.13l-0.24,-0.131l-0.237,-0.132l-0.239,-0.135l-0.236,-0.135l-0.235,-0.135l-0.235,-0.138l-0.232,-0.138l-0.232,-0.14l-0.231,-0.14l-0.229,-0.142l-0.229,-0.143l-0.227,-0.144l-0.226,-0.145l-0.225,-0.146l-0.225,-0.148l-0.224,-0.148l-0.221,-0.149l-0.221,-0.15l-0.22,-0.151l-0.219,-0.153l-0.218,-0.153l-0.217,-0.154l-0.215,-0.154l-0.215,-0.157l-0.214,-0.156l-0.212,-0.158l-0.214,-0.16l-0.211,-0.159l-0.209,-0.16l-0.208,-0.161l-0.209,-0.163l-0.207,-0.163l-0.206,-0.164l-0.206,-0.165l-0.204,-0.165l-0.204,-0.166l-0.203,-0.168l-0.202,-0.168l-0.199,-0.168l-0.201,-0.17l-0.199,-0.171l-0.199,-0.171l-0.197,-0.172l-0.197,-0.172l-0.197,-0.175l-0.194,-0.173l-0.194,-0.176l-0.194,-0.176l-0.192,-0.175l-0.205,-0.19l-0.369,-0.344l-0.378,-0.36l-0.376,-0.362l-0.373,-0.365l-0.37,-0.368l-0.367,-0.371l-0.365,-0.373l-0.362,-0.376l-0.359,-0.378l-0.357,-0.382l-0.354,-0.384l-0.352,-0.386l-0.35,-0.389l-0.347,-0.391l-0.345,-0.394l-0.343,-0.397l-0.34,-0.399l-0.338,-0.401l-0.337,-0.404l-0.335,-0.406l-0.332,-0.409l-0.33,-0.41l-0.329,-0.414l-0.327,-0.416l-0.324,-0.417l-0.323,-0.421l-0.321,-0.423l-0.32,-0.424l-0.317,-0.427l-0.317,-0.43l-0.314,-0.432l-0.313,-0.434l-0.311,-0.436l-0.31,-0.439l-0.308,-0.44l-0.307,-0.443l-0.305,-0.445l-0.304,-0.447l-0.302,-0.45l-0.301,-0.451l-0.3,-0.454l-0.298,-0.456l-0.297,-0.458l-0.295,-0.46l-0.295,-0.462l-0.292,-0.464l-0.292,-0.467l-0.291,-0.469l-0.289,-0.47l-0.288,-0.473l-0.287,-0.474l-0.286,-0.477l-0.285,-0.479l-0.283,-0.48l-0.283,-0.483l-0.281,-0.485l-0.28,-0.486l-0.279,-0.489l-0.279,-0.491l-0.277,-0.492l-0.275,-0.494l-0.275,-0.497l-0.274,-0.498l-0.273,-0.5l-0.272,-0.502l-0.271,-0.504l-0.27,-0.506l-0.269,-0.507l-0.268,-0.51l-0.267,-0.511l-0.267,-0.513l-0.265,-0.515l-0.264,-0.517l-0.264,-0.518l-0.262,-0.52l-0.262,-0.522l-0.261,-0.524l-0.259,-0.525l-0.26,-0.527l-0.258,-0.529l-0.257,-0.53l-0.256,-0.532l-0.256,-0.534l-0.255,-0.535l-0.254,-0.537l-0.253,-0.539l-0.252,-0.54l-0.251,-0.541l-0.251,-0.544l-0.25,-0.545l-0.249,-0.546l-0.248,-0.548l-0.247,-0.549l-0.247,-0.551l-0.246,-0.552l-0.245,-0.554l-0.244,-0.555l-0.244,-0.557l-0.242,-0.558l-0.242,-0.559l-0.241,-0.561l-0.241,-0.562l-0.239,-0.564l-0.239,-0.565l-0.238,-0.566l-0.238,-0.567l-0.236,-0.569l-0.236,-0.57l-0.235,-0.571l-0.235,-0.573l-0.233,-0.574l-0.233,-0.575l-0.232,-0.576l-0.232,-0.577l-0.231,-0.579l-0.23,-0.58l-0.229,-0.58l-0.228,-0.582l-0.228,-0.583l-0.227,-0.584l-0.226,-0.585l-0.226,-0.586l-0.225,-0.588l-0.224,-0.588l-0.224,-0.589l-0.222,-0.59l-0.222,-0.591l-0.222,-0.592l-0.22,-0.593l-0.22,-0.594l-0.219,-0.595l-0.219,-0.596l-0.218,-0.596l-0.217,-0.597l-0.216,-0.599l-0.216,-0.599l-0.214,-0.599l-0.215,-0.601l-0.213,-0.601l-0.213,-0.602l-0.212,-0.603l-0.211,-0.603l-0.211,-0.604l-0.21,-0.605l-0.209,-0.606l-0.209,-0.606l-0.208,-0.606l-0.207,-0.607l-0.206,-0.608l-0.206,-0.609l-0.205,-0.608l-0.204,-0.61l-0.204,-0.61l-0.203,-0.61l-0.202,-0.611l-0.202,-0.611l-0.201,-0.612l-0.2,-0.612l-0.199,-0.613l-0.199,-0.613l-0.199,-0.619l-0.393,-1.222l-0.391,-1.229l-0.388,-1.229l-0.385,-1.231l-0.383,-1.232l-0.379,-1.232l-0.377,-1.233l-0.374,-1.233l-0.371,-1.233l-0.369,-1.233l-0.365,-1.233l-0.363,-1.233l-0.359,-1.233l-0.357,-1.232l-0.354,-1.231l-0.351,-1.23l-0.348,-1.23l-0.346,-1.228l-0.342,-1.227l-0.339,-1.225l-0.337,-1.224l-0.333,-1.222l-0.331,-1.22l-0.328,-1.218l-0.324,-1.216l-0.322,-1.213l-0.319,-1.211l-0.316,-1.209l-0.313,-1.205l-0.309,-1.203l-0.307,-1.199l-0.304,-1.196l-0.301,-1.193l-0.298,-1.189l-0.294,-1.185l-0.292,-1.182l-0.289,-1.177l-0.285,-1.174l-0.283,-1.169l-0.279,-1.164l-0.276,-1.16l-0.274,-1.155l-0.27,-1.15l-0.267,-1.145l-0.264,-1.14l-0.26,-1.134l-0.258,-1.129l-0.254,-1.123l-0.252,-1.117l-0.248,-1.111l-0.245,-1.105l-0.241,-1.099l-0.239,-1.093l-0.235,-1.085l-0.232,-1.079l-0.229,-1.073l-0.225,-1.065l-0.223,-1.058l-0.219,-1.05l-0.216,-1.043l-0.212,-1.036l-0.21,-1.027l-0.205,-1.02l-0.203,-1.012l-0.199,-1.003l-0.196,-0.996l-0.193,-0.986l-0.189,-0.978l-0.186,-0.97l-0.183,-0.96l-0.179,-0.951l-0.176,-0.943l-0.173,-0.932l-0.169,-0.924l-0.165,-0.914l-0.162,-0.904l-0.159,-0.894l-0.156,-0.884l-0.152,-0.875l-0.148,-0.864l-0.145,-0.853l-0.142,-0.844l-0.138,-0.832l-0.134,-0.822l-0.132,-0.812l-0.127,-0.8l-0.124,-0.79l-0.121,-0.779l-0.117,-0.767l-0.114,-0.756l-0.11,-0.745l-0.106,-0.734l-0.103,-0.723l-0.1,-0.711l-0.096,-0.7l-0.092,-0.688l-0.089,-0.677l-0.085,-0.666l-0.081,-0.654l-0.078,-0.644l-0.075,-0.632l-0.071,-0.621l-0.067,-0.611l-0.063,-0.6l-0.06,-0.589l-0.056,-0.58l-0.053,-0.571l-0.048,-0.561l-0.045,-0.554l-0.041,-0.545l-0.037,-0.54l-0.032,-0.515l-0.016,-0.282l-0.013,-0.255l-0.024,-0.487l-0.022,-0.476l-0.021,-0.475l-0.021,-0.475l-0.019,-0.473l-0.018,-0.472l-0.017,-0.471l-0.017,-0.47l-0.015,-0.469l-0.014,-0.468l-0.013,-0.467l-0.012,-0.466l-0.011,-0.465l-0.01,-0.463l-0.009,-0.463l-0.008,-0.461l-0.007,-0.461l-0.006,-0.459l-0.004,-0.459l-0.004,-0.457l-0.003,-0.456l-0.002,-0.455l-0.001,-0.455l0.001,-0.453l0.001,-0.452l0.002,-0.451l0.003,-0.45l0.005,-0.449l0.005,-0.448l0.006,-0.447l0.008,-0.446l0.008,-0.445l0.009,-0.443l0.011,-0.443l0.011,-0.442l0.012,-0.441l0.014,-0.44l0.014,-0.438l0.016,-0.438l0.016,-0.437l0.017,-0.436l0.019,-0.434l0.019,-0.434l0.021,-0.433l0.021,-0.431l0.023,-0.431l0.023,-0.43l0.024,-0.428l0.026,-0.428l0.026,-0.427l0.028,-0.425l0.028,-0.425l0.03,-0.424l0.03,-0.423l0.032,-0.421l0.032,-0.421l0.034,-0.42l0.034,-0.419l0.035,-0.418l0.037,-0.416l0.037,-0.416l0.039,-0.415l0.039,-0.414l0.041,-0.413l0.041,-0.412l0.042,-0.411l0.044,-0.41l0.044,-0.409l0.046,-0.408l0.046,-0.407l0.047,-0.406l0.049,-0.405l0.049,-0.404l0.05,-0.404l0.052,-0.402l0.052,-0.401l0.053,-0.401l0.054,-0.399l0.056,-0.399l0.056,-0.397l0.057,-0.397l0.058,-0.395l0.06,-0.395l0.06,-0.394l0.061,-0.392l0.062,-0.392l0.063,-0.391l0.065,-0.39l0.065,-0.389l0.066,-0.388l0.067,-0.387l0.068,-0.386l0.069,-0.385l0.07,-0.385l0.071,-0.383l0.072,-0.382l0.073,-0.382l0.074,-0.38l0.075,-0.38l0.076,-0.379l0.077,-0.377l0.078,-0.377l0.079,-0.376l0.08,-0.375l0.08,-0.374l0.082,-0.373l0.083,-0.372l0.084,-0.371l0.084,-0.371l0.086,-0.369l0.087,-0.368l0.087,-0.368l0.089,-0.367l0.09,-0.365l0.09,-0.365l0.092,-0.364l0.092,-0.362l0.094,-0.362l0.094,-0.361l0.096,-0.361l0.096,-0.359l0.098,-0.358l0.098,-0.357l0.099,-0.357l0.101,-0.355l0.101,-0.355l0.102,-0.353l0.104,-0.353l0.104,-0.352l0.105,-0.351l0.106,-0.35l0.107,-0.349l0.108,-0.348l0.109,-0.347l0.11,-0.346l0.111,-0.345l0.112,-0.345l0.113,-0.343l0.114,-0.343l0.115,-0.341l0.115,-0.341l0.117,-0.34l0.118,-0.339l0.118,-0.338l0.12,-0.337l0.121,-0.336l0.121,-0.335l0.123,-0.334l0.123,-0.333l0.124,-0.333l0.126,-0.331l0.126,-0.33l0.127,-0.33l0.129,-0.329l0.129,-0.327l0.13,-0.327l0.131,-0.326l0.132,-0.325l0.133,-0.324l0.134,-0.323l0.134,-0.322l0.136,-0.321l0.137,-0.32l0.138,-0.319l0.138,-0.319l0.14,-0.317l0.14,-0.317l0.142,-0.315l0.142,-0.315l0.143,-0.313l0.144,-0.313l0.145,-0.312l0.146,-0.311l0.147,-0.309l0.148,-0.309l0.149,-0.308l0.15,-0.307l0.15,-0.306l0.152,-0.305l0.153,-0.304l0.153,-0.303l0.154,-0.303l0.156,-0.301l0.156,-0.3l0.157,-0.3l0.158,-0.298l0.159,-0.297l0.159,-0.297l0.161,-0.295l0.162,-0.295l0.162,-0.293l0.163,-0.293l0.165,-0.291l0.165,-0.291l0.166,-0.289l0.167,-0.289l0.168,-0.288l0.168,-0.286l0.17,-0.286l0.17,-0.285l0.172,-0.284l0.172,-0.282l0.173,-0.282l0.174,-0.281l0.174,-0.28l0.176,-0.278l0.176,-0.278l0.178,-0.277l0.178,-0.276l0.179,-0.275l0.18,-0.274l0.181,-0.272l0.181,-0.272l0.183,-0.271l0.183,-0.27l0.184,-0.269l0.185,-0.267l0.186,-0.267l0.186,-0.266l0.188,-0.265l0.188,-0.264l0.189,-0.262l0.19,-0.262l0.191,-0.261l0.191,-0.26l0.192,-0.258l0.193,-0.258l0.194,-0.257l0.195,-0.255l0.195,-0.255l0.196,-0.253l0.197,-0.253l0.198,-0.251l0.199,-0.251l0.199,-0.249l0.2,-0.249l0.201,-0.247l0.201,-0.247l0.203,-0.245l0.203,-0.244l0.204,-0.244l0.204,-0.242l0.206,-0.241l0.206,-0.24l0.206,-0.239l0.208,-0.238l0.208,-0.237l0.209,-0.236l0.21,-0.235l0.21,-0.234l0.211,-0.233l0.212,-0.232l0.212,-0.231l0.214,-0.229l0.213,-0.229l0.215,-0.228l0.215,-0.226l0.216,-0.226l0.216,-0.224l0.218,-0.224l0.218,-0.222l0.218,-0.221l0.22,-0.221l0.219,-0.219l0.221,-0.218l0.221,-0.217l0.222,-0.216l0.222,-0.215l0.223,-0.214l0.224,-0.213l0.224,-0.212l0.225,-0.211l0.225,-0.21l0.226,-0.208l0.227,-0.208l0.227,-0.207l0.228,-0.205l0.229,-0.205l0.229,-0.203l0.229,-0.202l0.231,-0.202l0.23,-0.2l0.232,-0.199l0.232,-0.198l0.232,-0.198l0.233,-0.196l0.233,-0.195l0.235,-0.194l0.234,-0.193l0.235,-0.191l0.236,-0.191l0.236,-0.19l0.237,-0.189l0.237,-0.187l0.238,-0.187l0.238,-0.186l0.238,-0.184l0.24,-0.184l0.239,-0.182l0.24,-0.182l0.241,-0.18l0.241,-0.179l0.242,-0.179l0.242,-0.177l0.242,-0.176l0.243,-0.175l0.244,-0.175l0.243,-0.173l0.245,-0.172l0.245,-0.171l0.245,-0.17l0.245,-0.169l0.246,-0.168l0.246,-0.167l0.247,-0.166l0.248,-0.165l0.247,-0.164l0.248,-0.163l0.249,-0.162l0.248,-0.161l0.25,-0.159l0.249,-0.159l0.25,-0.158l0.25,-0.157l0.251,-0.156l0.251,-0.155l0.252,-0.153l0.251,-0.153l0.253,-0.152l0.252,-0.151l0.253,-0.15l0.253,-0.149l0.253,-0.148l0.254,-0.146l0.254,-0.146l0.255,-0.145l0.254,-0.144l0.256,-0.143l0.255,-0.142l0.256,-0.141l0.256,-0.14l0.256,-0.139l0.257,-0.139l0.256,-0.137l0.257,-0.136l0.258,-0.135l0.258,-0.134l0.258,-0.134l0.258,-0.132l0.258,-0.131l0.259,-0.131l0.259,-0.129l0.26,-0.129l0.273,-0.134l0.506,-0.246l0.52,-0.249l0.522,-0.245l0.523,-0.241l0.523,-0.238l0.525,-0.234l0.525,-0.23l0.525,-0.227l0.527,-0.223l0.527,-0.22l0.529,-0.216l0.528,-0.213l0.53,-0.209l0.53,-0.206l0.53,-0.202l0.532,-0.199l0.531,-0.195l0.533,-0.193l0.532,-0.188l0.534,-0.186l0.534,-0.182l0.534,-0.179l0.534,-0.175l0.536,-0.173l0.535,-0.169l0.536,-0.166l0.536,-0.163l0.536,-0.159l0.537,-0.157l0.537,-0.153l0.537,-0.151l0.538,-0.147l0.538,-0.145l0.537,-0.141l0.539,-0.139l0.538,-0.135l0.538,-0.133l0.539,-0.129l0.539,-0.127l0.538,-0.124l0.539,-0.121l0.539,-0.119l0.539,-0.115l0.539,-0.113l0.539,-0.11l0.539,-0.107l0.539,-0.105l0.539,-0.102l0.539,-0.099l0.539,-0.097l0.539,-0.094l0.539,-0.092l0.539,-0.089l0.538,-0.086l0.539,-0.084l0.538,-0.081l0.538,-0.079l0.538,-0.077l0.538,-0.074l0.538,-0.072l0.537,-0.069l0.537,-0.067l0.537,-0.065l0.537,-0.062l0.536,-0.06l0.536,-0.058l0.536,-0.055l0.536,-0.053l0.535,-0.051l0.535,-0.049l0.535,-0.047l0.534,-0.044l0.534,-0.042l0.533,-0.041l0.534,-0.038l0.532,-0.036l0.533,-0.034l0.532,-0.032l0.531,-0.029l0.531,-0.028l0.531,-0.026l0.53,-0.024l0.53,-0.022l0.529,-0.02l0.529,-0.018l0.528,-0.016l0.528,-0.015l0.527,-0.012l0.526,-0.011l0.526,-0.009l0.526,-0.007l0.525,-0.005l0.524,-0.003l0.524,-0.002l0.523,0l0.522,0.002l0.522,0.003l0.521,0.005l0.521,0.007l0.52,0.008l0.519,0.01l0.519,0.012l0.517,0.013l0.517,0.015l0.517,0.017l0.515,0.018l0.515,0.019l0.514,0.021l0.514,0.023l0.512,0.024l0.512,0.025l0.511,0.027l0.51,0.028l0.51,0.03l0.508,0.031l0.508,0.033l0.507,0.034l0.505,0.035l0.505,0.037l0.505,0.038l0.503,0.039l0.502,0.04l0.501,0.042l0.501,0.043l0.499,0.045l0.499,0.045l0.497,0.047l0.497,0.048l0.496,0.049l0.494,0.05l0.494,0.052l0.492,0.052l0.492,0.054l0.49,0.055l0.489,0.056l0.489,0.057l0.487,0.058l0.486,0.059l0.485,0.061l0.483,0.061l0.483,0.062l0.482,0.063l0.48,0.064l0.479,0.066l0.478,0.066l0.477,0.067l0.475,0.068l0.475,0.069l0.473,0.069l0.472,0.071l0.47,0.072l0.47,0.072l0.468,0.073l0.467,0.074l0.465,0.075l0.464,0.076l0.463,0.076l0.461,0.077l0.461,0.078l0.458,0.079l0.458,0.079l0.456,0.081l0.454,0.08l0.453,0.082l0.452,0.082l0.45,0.083l0.449,0.083l0.447,0.084l0.446,0.085l0.444,0.085l0.443,0.086l0.442,0.087l0.439,0.087l0.439,0.087l0.436,0.089l0.436,0.088l0.441,0.091l0.854,0.178l0.856,0.182l0.849,0.183l0.843,0.185l0.836,0.187l0.829,0.188l0.822,0.189l0.814,0.191l0.808,0.191l0.8,0.193l0.793,0.193l0.786,0.195l0.778,0.195l0.77,0.196l0.762,0.196l0.754,0.196l0.746,0.197l0.739,0.197l0.729,0.197l0.722,0.197l0.713,0.197l0.705,0.197l0.695,0.196l0.688,0.196l0.678,0.195l0.669,0.195l0.66,0.194l0.651,0.193l0.641,0.192l0.632,0.191l0.623,0.19l0.613,0.189l0.603,0.187l0.593,0.186l0.584,0.184l0.573,0.182l0.563,0.181l0.553,0.179l0.542,0.176l0.532,0.175l0.521,0.173l0.51,0.17l0.5,0.168l0.181,0.061l0.124,-0.074l0.428,-0.252l0.431,-0.249l0.433,-0.248l0.434,-0.246l0.437,-0.244l0.439,-0.242l0.44,-0.24l0.443,-0.238l0.445,-0.236l0.446,-0.234l0.449,-0.232l0.45,-0.229l0.453,-0.228l0.454,-0.226l0.457,-0.223l0.458,-0.222l0.461,-0.219l0.462,-0.217l0.464,-0.215l0.466,-0.213l0.468,-0.21l0.47,-0.209l0.473,-0.206l0.473,-0.204l0.476,-0.202l0.478,-0.199l0.48,-0.197l0.481,-0.195l0.484,-0.193l0.485,-0.19l0.487,-0.188l0.49,-0.186l0.49,-0.184l0.493,-0.181l0.495,-0.178l0.497,-0.177l0.498,-0.174l0.501,-0.171l0.502,-0.169l0.504,-0.167l0.506,-0.165l0.508,-0.162l0.509,-0.159l0.512,-0.157l0.513,-0.155l0.515,-0.152l0.517,-0.149l0.519,-0.148l0.52,-0.144l0.522,-0.143l0.524,-0.139l0.526,-0.137l0.528,-0.135l0.529,-0.132l0.532,-0.129l0.533,-0.127l0.534,-0.125l0.537,-0.122l0.538,-0.119l0.54,-0.117l0.542,-0.114l0.543,-0.111l0.546,-0.109l0.547,-0.106l0.548,-0.104l0.551,-0.101l0.552,-0.098l0.554,-0.096l0.556,-0.093l0.557,-0.09l0.559,-0.088l0.561,-0.085l0.562,-0.083l0.564,-0.079l0.566,-0.078l0.568,-0.074l0.569,-0.072l0.571,-0.068l0.573,-0.067l0.574,-0.063l0.576,-0.061l0.578,-0.058l0.579,-0.056l0.581,-0.052l0.583,-0.05l0.584,-0.047l0.586,-0.045l0.588,-0.041l0.589,-0.039l0.591,-0.036l0.593,-0.034l0.594,-0.03l0.596,-0.028l0.598,-0.025l0.6,-0.022l0.601,-0.02l0.602,-0.016l0.605,-0.014l0.606,-0.011l0.607,-0.008l0.61,-0.006l0.611,-0.002l0.612,0l0.615,0.003l0.616,0.006l0.606,0.009l0.64,0.011l0.632,0.013l0.631,0.014l0.628,0.016l0.627,0.018l0.625,0.019l0.623,0.021l0.621,0.022l0.619,0.024l0.618,0.026l0.616,0.027l0.614,0.029l0.612,0.031l0.611,0.032l0.609,0.034l0.607,0.035l0.605,0.037l0.603,0.038l0.602,0.04l0.6,0.042l0.598,0.043l0.597,0.045l0.595,0.047l0.593,0.048l0.591,0.049l0.589,0.051l0.588,0.053l0.586,0.054l0.585,0.056l0.582,0.057l0.581,0.059l0.579,0.061l0.578,0.062l0.576,0.063l0.574,0.065l0.572,0.067l0.571,0.068l0.569,0.07l0.567,0.071l0.566,0.072l0.564,0.075l0.562,0.075l0.561,0.078l0.558,0.078l0.558,0.081l0.555,0.081l0.554,0.084l0.552,0.084l0.551,0.087l0.549,0.087l0.547,0.09l0.546,0.09l0.544,0.092l0.542,0.094l0.36,0.063l0.221,-0.067l0.581,-0.175l0.609,-0.18l0.634,-0.184l0.651,-0.186l0.35,-0.099l0.347,-0.096l0.353,-0.098l0.36,-0.099l0.367,-0.099l0.372,-0.1l0.379,-0.101l0.385,-0.102l0.391,-0.102l0.398,-0.102l0.404,-0.104l0.41,-0.104l0.416,-0.104l0.422,-0.104l0.429,-0.105l0.434,-0.106l0.44,-0.105l0.447,-0.106l0.452,-0.106l0.458,-0.106l0.464,-0.107l0.469,-0.106l0.476,-0.106l0.481,-0.106l0.487,-0.106l0.492,-0.106l0.498,-0.106l0.503,-0.105l0.51,-0.106l0.514,-0.104l0.52,-0.105l0.525,-0.104l0.531,-0.103l0.536,-0.103l0.541,-0.103l0.547,-0.101l0.552,-0.101l0.556,-0.101l0.563,-0.099l0.567,-0.099l0.572,-0.098l0.577,-0.097l0.582,-0.096l0.587,-0.094l0.592,-0.094l0.596,-0.093l0.602,-0.092l0.606,-0.09l0.611,-0.089l0.615,-0.088l0.621,-0.086l0.624,-0.085l0.63,-0.083l0.634,-0.082l0.638,-0.08l0.643,-0.079l0.647,-0.077l0.652,-0.075l0.656,-0.074l0.66,-0.072l0.664,-0.07l0.669,-0.067l0.672,-0.066l0.677,-0.064l0.681,-0.062l0.685,-0.06l0.689,-0.057l0.693,-0.055l0.697,-0.053l0.7,-0.051l0.705,-0.048l0.708,-0.046l0.712,-0.043l0.716,-0.041l0.719,-0.038l0.723,-0.035l0.727,-0.033l0.73,-0.03l0.734,-0.027l0.737,-0.024l0.74,-0.022l0.744,-0.018l0.748,-0.015l0.75,-0.012l0.754,-0.009l0.757,-0.006l0.76,-0.003l0.753,0.001l0.394,0.001l0.383,0.003l0.385,0.003l0.385,0.004l0.386,0.005l0.386,0.006l0.388,0.007l0.388,0.008l0.389,0.008l0.389,0.01l0.391,0.01l0.391,0.012l0.392,0.012l0.392,0.013l0.393,0.014l0.394,0.015l0.395,0.016l0.395,0.017l0.396,0.018l0.396,0.019l0.398,0.02l0.398,0.021l0.398,0.022l0.4,0.022l0.399,0.024l0.401,0.025l0.401,0.026l0.402,0.027l0.403,0.028l0.403,0.029l0.403,0.03l0.405,0.031l0.404,0.033l0.406,0.033l0.406,0.034l0.407,0.036l0.407,0.036l0.408,0.038l0.408,0.039l0.409,0.04l0.41,0.041l0.41,0.042l0.411,0.043l0.411,0.045l0.412,0.045l0.412,0.047l0.413,0.048l0.413,0.049l0.414,0.05l0.414,0.052l0.415,0.053l0.415,0.054l0.416,0.055l0.417,0.056l0.417,0.058l0.417,0.058l0.418,0.06l0.418,0.062l0.419,0.062l0.419,0.064l0.419,0.065l0.42,0.067l0.421,0.067l0.421,0.069l0.421,0.071l0.422,0.071l0.422,0.073l0.423,0.074l0.423,0.076l0.423,0.077l0.424,0.078l0.424,0.08l0.424,0.081l0.425,0.082l0.426,0.084l0.425,0.085l0.426,0.086l0.426,0.088l0.427,0.09l0.427,0.09l0.427,0.093l0.428,0.093l0.428,0.095l0.428,0.097l0.428,0.098l0.429,0.099l0.429,0.101l0.43,0.103l0.429,0.103l0.43,0.106l0.43,0.107l0.431,0.108l0.431,0.11l0.43,0.111l0.432,0.113l0.431,0.115l0.432,0.116l0.432,0.118l0.431,0.119l0.433,0.12l0.432,0.123l0.433,0.124l0.433,0.125l0.432,0.127l0.433,0.129l0.434,0.13l0.433,0.132l0.434,0.134l0.433,0.135l0.434,0.137l0.434,0.139l0.434,0.14l0.434,0.142l0.434,0.143l0.435,0.146l0.434,0.146l0.434,0.149l0.435,0.15l0.435,0.153l0.434,0.153l0.435,0.156l0.435,0.157l0.434,0.159l0.435,0.161l0.435,0.162l0.435,0.164l0.435,0.167l0.434,0.167l0.435,0.17l0.435,0.171l0.435,0.174l0.434,0.175l0.435,0.177l0.434,0.178l0.435,0.181l0.434,0.182l0.434,0.184l0.435,0.186l0.434,0.188l0.434,0.19l0.434,0.192l0.434,0.193l0.433,0.195l0.433,0.198l0.434,0.199l0.433,0.201l0.433,0.203l0.433,0.205l0.433,0.207l0.432,0.209l0.432,0.211l0.432,0.212l0.432,0.215l0.432,0.217l0.431,0.218l0.431,0.221l0.431,0.222l0.431,0.225l0.43,0.226l0.43,0.229l0.429,0.23l0.43,0.233l0.429,0.234l0.429,0.237l0.428,0.239l0.428,0.24l0.428,0.243l0.428,0.245l0.426,0.246l0.427,0.249l0.427,0.251l0.425,0.253l0.426,0.255l0.425,0.258l0.425,0.259l0.424,0.261l0.423,0.263l0.424,0.266l0.423,0.268l0.422,0.269l0.422,0.272l0.422,0.274l0.421,0.276l0.42,0.279l0.42,0.28l0.419,0.283l0.419,0.284l0.418,0.287l0.418,0.289l0.417,0.291l0.417,0.294l0.416,0.296l0.415,0.297l0.415,0.3l0.414,0.302l0.414,0.304l0.413,0.307l0.412,0.309l0.412,0.311l0.411,0.313l0.41,0.315l0.41,0.317l0.409,0.32l0.408,0.322l0.408,0.324l0.406,0.327l0.407,0.329l0.405,0.331l0.405,0.333l0.404,0.335l0.403,0.338l0.402,0.34l0.402,0.342l0.401,0.345l0.399,0.346l0.4,0.349l0.398,0.351l0.398,0.354l0.397,0.356l0.395,0.358l0.395,0.36l0.394,0.363l0.394,0.365l0.392,0.367l0.391,0.37l0.391,0.372l0.39,0.374l0.389,0.376l0.388,0.379l0.387,0.381l0.385,0.384l0.386,0.386l0.384,0.388l0.383,0.39l0.382,0.393l0.381,0.395l0.38,0.397l0.379,0.4l0.378,0.402l0.377,0.404l0.376,0.407l0.375,0.409l0.374,0.412l0.374,0.414l0.371,0.416l0.371,0.418l0.37,0.421l0.368,0.423l0.368,0.426l0.366,0.428l0.366,0.43l0.364,0.433l0.363,0.435l0.362,0.437l0.361,0.44l0.36,0.442l0.358,0.444l0.357,0.447l0.356,0.45l0.372,0.472l0.208,0.269l0.222,0.292l0.218,0.293l0.214,0.295l0.212,0.295l0.207,0.297l0.204,0.297l0.201,0.299l0.199,0.301l0.194,0.3l0.191,0.3l0.189,0.304l0.184,0.303l0.182,0.303l0.18,0.307l0.175,0.305l0.173,0.306l0.17,0.308l0.168,0.308l0.164,0.308l0.161,0.309l0.159,0.311l0.156,0.31l0.153,0.31l0.151,0.313l0.148,0.312l0.146,0.313l0.143,0.313l0.14,0.314l0.139,0.315l0.135,0.315l0.134,0.315l0.13,0.317l0.129,0.316l0.126,0.317l0.125,0.318l0.122,0.318l0.119,0.319l0.118,0.32l0.115,0.318l0.113,0.321l0.112,0.321l0.109,0.321l0.108,0.322l0.105,0.322l0.103,0.322l0.101,0.323l0.1,0.326l0.098,0.323l0.095,0.325l0.095,0.326l0.092,0.325l0.09,0.326l0.089,0.327l0.087,0.329l0.085,0.327l0.083,0.328l0.082,0.329l0.08,0.33l0.079,0.331l0.077,0.33l0.075,0.331l0.074,0.333l0.072,0.332l0.071,0.333l0.069,0.334l0.068,0.335l0.066,0.334l0.064,0.335l0.064,0.337l0.061,0.336l0.061,0.338l0.059,0.338l0.057,0.339l0.056,0.339l0.055,0.339l0.053,0.341l0.052,0.342l0.051,0.341l0.049,0.342l0.048,0.344l0.047,0.345l0.045,0.343l0.045,0.345l0.042,0.347l0.042,0.346l0.04,0.347l0.039,0.347l0.038,0.35l0.037,0.35l0.035,0.35l0.034,0.349l0.033,0.352l0.032,0.353l0.031,0.352l0.029,0.354l0.028,0.355l0.027,0.355l0.026,0.356l0.025,0.357l0.023,0.356l0.023,0.358l0.021,0.36l0.02,0.36l0.019,0.359l0.018,0.362l0.017,0.362l0.016,0.363l0.015,0.362l0.013,0.365l0.013,0.365l0.011,0.365l0.01,0.367l0.01,0.368l0.008,0.367l0.007,0.369l0.006,0.37l0.005,0.371l0.004,0.37l0.003,0.372l0.002,0.373l0,0.373l0,0.375l-0.001,0.375l-0.002,0.376l-0.004,0.376l-0.004,0.378l-0.005,0.378l-0.007,0.38l-0.007,0.379l-0.008,0.38l-0.01,0.383l-0.01,0.382l-0.011,0.382l-0.013,0.384l-0.013,0.386l-0.014,0.384l-0.016,0.387l-0.016,0.387l-0.017,0.388l-0.018,0.389l-0.02,0.389l-0.02,0.389l-0.021,0.392l-0.022,0.393l-0.023,0.392l-0.024,0.393l-0.025,0.394l-0.026,0.395l-0.027,0.395l-0.028,0.397l-0.029,0.398l-0.029,0.398l-0.031,0.399l-0.032,0.4l-0.032,0.401l-0.034,0.401l-0.034,0.402l-0.036,0.402l-0.036,0.405l-0.037,0.404l-0.038,0.406l-0.04,0.406l-0.04,0.406l-0.041,0.408l-0.041,0.409l-0.043,0.409l-0.044,0.41l-0.045,0.411l-0.046,0.42l-0.093,0.817l-0.098,0.828l-0.101,0.831l-0.105,0.835l-0.108,0.838l-0.113,0.84l-0.115,0.844l-0.12,0.847l-0.123,0.85l-0.126,0.852l-0.13,0.855l-0.134,0.859l-0.137,0.861l-0.141,0.865l-0.144,0.867l-0.148,0.87l-0.151,0.873l-0.155,0.875l-0.158,0.879l-0.162,0.881l-0.165,0.884l-0.169,0.887l-0.173,0.889l-0.175,0.892l-0.18,0.895l-0.183,0.898l-0.186,0.9l-0.19,0.902l-0.193,0.905l-0.196,0.908l-0.2,0.91l-0.204,0.913l-0.207,0.915l-0.21,0.918l-0.214,0.92l-0.217,0.923l-0.221,0.924l-0.224,0.928l-0.227,0.929l-0.231,0.932l-0.234,0.934l-0.238,0.936l-0.241,0.939l-0.244,0.941l-0.248,0.942l-0.251,0.946l-0.255,0.947l-0.257,0.949l-0.262,0.951l-0.264,0.954l-0.268,0.955l-0.272,0.957l-0.274,0.959l-0.278,0.962l-0.282,0.963l-0.284,0.964l-0.288,0.967l-0.292,0.969l-0.295,0.97l-0.298,0.972l-0.301,0.974l-0.305,0.975l-0.308,0.977l-0.311,0.979l-0.315,0.98l-0.317,0.982l-0.322,0.983l-0.324,0.985l-0.328,0.987l-0.331,0.988l-0.334,0.989l-0.338,0.991l-0.341,0.992l-0.344,0.993l-0.348,0.995l-0.351,0.996l-0.354,0.997l-0.357,0.998l-0.361,1l-0.364,1l-0.367,1.002l-0.37,1.003l-0.374,1.004l-0.377,1.005l-0.38,1.006l-0.384,1.007l-0.386,1.008l-0.39,1.008l-0.393,1.01l-0.397,1.011l-0.4,1.011l-0.402,1.012l-0.407,1.013l-0.409,1.013l-0.413,1.014l-0.415,1.015l-0.419,1.016l-0.423,1.016l-0.425,1.016l-0.429,1.017l-0.432,1.018l-0.435,1.018l-0.438,1.019l-0.442,1.019l-0.444,1.019l-0.448,1.02l-0.452,1.02l-0.454,1.02l-0.458,1.02l-0.46,1.021l-0.464,1.021l-0.467,1.021l-0.471,1.021l-0.473,1.021l-0.477,1.021l-0.48,1.022l-0.483,1.021l-0.486,1.021l-0.489,1.021l-0.493,1.021l-0.496,1.021l-0.499,1.02l-0.502,1.021l-0.505,1.02l-0.509,1.02l-0.511,1.02l-0.515,1.019l-0.518,1.019l-0.521,1.019l-0.524,1.018l-0.528,1.017l-0.53,1.017l-0.534,1.017l-0.537,1.016l-0.54,1.015l-0.543,1.015l-0.547,1.015l-0.549,1.013l-0.553,1.013l-0.553,1.006l-0.282,0.511l-0.28,0.506l-0.281,0.505l-0.281,0.505l-0.282,0.505l-0.283,0.505l-0.284,0.504l-0.285,0.505l-0.285,0.504l-0.286,0.503l-0.287,0.503l-0.288,0.504l-0.288,0.503l-0.29,0.503l-0.29,0.502l-0.291,0.502l-0.291,0.502l-0.293,0.502l-0.293,0.502l-0.294,0.501l-0.295,0.5l-0.295,0.501l-0.297,0.5l-0.043,0.073l0.301,-0.009l0.313,-0.011l0.318,-0.012l0.323,-0.014l0.325,-0.015l0.331,-0.017l0.335,-0.018l0.339,-0.019l0.343,-0.022l0.347,-0.023l0.352,-0.024l0.355,-0.026l0.361,-0.028l0.364,-0.029l0.367,-0.031l0.373,-0.033l0.378,-0.035l0.381,-0.036l0.386,-0.038l0.389,-0.04l0.395,-0.042l0.399,-0.043l0.402,-0.045l0.408,-0.048l0.412,-0.049l0.416,-0.051l0.421,-0.053l0.425,-0.055l0.429,-0.057l0.433,-0.059l0.439,-0.061l0.443,-0.063l0.447,-0.065l0.451,-0.067l0.456,-0.07l0.462,-0.071l0.464,-0.074l0.47,-0.075l0.474,-0.078l0.479,-0.08l0.483,-0.083l0.488,-0.084l0.492,-0.087l0.497,-0.089l0.501,-0.091l0.506,-0.094l0.511,-0.096l0.516,-0.098l0.52,-0.101l0.525,-0.103l0.529,-0.106l0.534,-0.108l0.572,-0.117l0.312,-0.064l0.348,-0.069l0.347,-0.067l0.345,-0.064l0.344,-0.063l0.343,-0.061l0.343,-0.058l0.342,-0.056l0.342,-0.055l0.341,-0.052l0.339,-0.049l0.341,-0.048l0.342,-0.046l0.34,-0.042l0.338,-0.041l0.341,-0.038l0.342,-0.036l0.341,-0.033l0.342,-0.031l0.343,-0.029l0.343,-0.025l0.346,-0.023l0.346,-0.02l0.346,-0.017l0.349,-0.014l0.351,-0.011l0.352,-0.008l0.357,-0.005l0.357,-0.001l0.357,0.003l0.363,0.007Zm-242.907,-8.631l0.14,0.091l0.14,0.089l0.141,0.09l0.142,0.088l0.141,0.088l0.142,0.087l0.142,0.086l0.142,0.085l0.144,0.084l0.143,0.084l0.142,0.082l0.144,0.083l0.145,0.081l0.144,0.081l0.144,0.079l0.145,0.079l0.145,0.078l0.145,0.077l0.145,0.077l0.146,0.075l0.147,0.075l0.146,0.074l0.147,0.074l0.146,0.072l0.148,0.072l0.147,0.07l0.146,0.07l0.149,0.07l0.148,0.068l0.148,0.067l0.149,0.067l0.148,0.066l0.15,0.065l0.148,0.064l0.15,0.064l0.15,0.063l0.149,0.061l0.15,0.061l0.15,0.06l0.151,0.06l0.151,0.059l0.151,0.057l0.15,0.057l0.152,0.056l0.151,0.055l0.152,0.055l0.153,0.053l0.151,0.053l0.152,0.052l0.152,0.051l0.153,0.05l0.153,0.049l0.153,0.049l0.155,0.048l0.152,0.047l0.154,0.046l0.153,0.045l0.153,0.044l0.156,0.044l0.154,0.043l0.154,0.042l0.156,0.041l0.154,0.04l0.155,0.039l0.155,0.039l0.155,0.037l0.156,0.037l0.156,0.036l0.156,0.035l0.156,0.035l0.157,0.033l0.157,0.033l0.156,0.032l0.157,0.03l0.157,0.03l0.157,0.03l0.157,0.028l0.158,0.027l0.159,0.027l0.157,0.026l0.157,0.025l0.158,0.024l0.16,0.023l0.159,0.023l0.158,0.021l0.159,0.021l0.159,0.019l0.159,0.019l0.16,0.018l0.161,0.017l0.158,0.017l0.161,0.015l0.16,0.015l0.16,0.013l0.01,0.001l30.835,-26.298l-4.298,46.029l-0.009,0.108l-0.008,0.107l-0.007,0.105l-0.006,0.105l-0.006,0.105l-0.004,0.106l-0.003,0.106l-0.003,0.107l-0.001,0.108l-0.001,0.109l0,0.112l0.002,0.114l0.002,0.116l0.003,0.12l0.005,0.122l0.006,0.125l0.006,0.13l0.009,0.134l0.009,0.137l0.011,0.141l0.012,0.147l0.014,0.152l0.016,0.156l0.017,0.163l0.019,0.167l0.021,0.172l0.022,0.179l0.025,0.185l0.027,0.191l0.028,0.197l0.171,1.123l33.314,-46.332l8.518,3.947l-16.635,66.708l0.033,0.098l0.083,0.245l0.08,0.245l0.079,0.244l0.076,0.241l0.074,0.24l0.072,0.24l0.07,0.239l0.069,0.238l0.067,0.238l0.066,0.235l0.064,0.235l0.068,0.258l0.115,0.445l0.115,0.465l0.111,0.464l0.105,0.462l0.102,0.461l0.097,0.46l0.094,0.46l0.091,0.459l0.086,0.459l0.084,0.459l0.081,0.459l0.077,0.459l0.076,0.46l0.072,0.46l0.07,0.461l0.068,0.462l0.065,0.462l0.064,0.463l0.061,0.465l0.06,0.466l0.057,0.466l0.056,0.468l0.054,0.469l0.052,0.47l0.05,0.472l0.05,0.473l0.047,0.474l0.046,0.475l0.045,0.477l0.043,0.478l0.042,0.479l0.041,0.48l0.039,0.482l0.039,0.483l0.037,0.484l0.036,0.486l0.035,0.486l0.034,0.488l0.033,0.488l0.032,0.49l0.031,0.491l0.03,0.492l0.029,0.492l0.028,0.493l0.028,0.495l0.026,0.495l0.027,0.502l0.049,0.986l0.047,0.996l0.044,0.997l0.042,0.998l0.039,0.999l0.038,0.999l0.036,0.998l0.034,0.997l0.032,0.996l0.032,0.993l0.03,0.994l0.057,1.964l0.055,1.951l0.054,1.925l0.054,1.897l0.027,0.932l0.027,0.924l0.029,0.913l0.029,0.902l0.029,0.889l0.031,0.876l0.032,0.862l0.033,0.853l0.035,0.857l0.036,0.861l0.036,0.857l0.037,0.855l0.039,0.85l0.039,0.847l0.04,0.842l0.041,0.839l0.042,0.834l0.043,0.83l0.044,0.825l0.045,0.821l0.047,0.815l0.048,0.811l0.049,0.805l0.05,0.799l0.051,0.794l0.053,0.789l0.054,0.782l0.056,0.776l0.057,0.769l0.059,0.764l0.06,0.756l0.061,0.749l0.064,0.743l0.064,0.735l0.067,0.727l0.068,0.72l0.069,0.712l0.072,0.704l0.073,0.695l0.074,0.687l0.078,0.687l0.037,0.327l0.04,0.333l0.039,0.33l0.04,0.329l0.041,0.327l0.041,0.324l0.041,0.321l0.042,0.318l0.042,0.317l0.042,0.314l0.043,0.311l0.044,0.309l0.044,0.306l0.044,0.303l0.045,0.301l0.045,0.298l0.045,0.295l0.046,0.292l0.046,0.29l0.047,0.287l0.047,0.283l0.047,0.281l0.048,0.278l0.048,0.274l0.048,0.272l0.049,0.269l0.049,0.265l0.049,0.262l0.05,0.259l0.05,0.256l0.05,0.252l0.05,0.248l0.051,0.246l0.051,0.242l0.051,0.239l0.051,0.235l0.052,0.231l0.051,0.228l0.052,0.224l0.052,0.22l0.052,0.216l0.052,0.213l0.052,0.209l0.052,0.205l0.053,0.2l0.052,0.197l0.052,0.193l0.051,0.188l0.052,0.184l0.052,0.18l0.051,0.176l0.051,0.17l0.051,0.167l0.05,0.162l0.05,0.157l0.049,0.153l0.049,0.148l0.048,0.143l0.048,0.139l0.047,0.133l0.046,0.128l0.067,0.184l0.11,0.3l0.128,0.357l0.124,0.35l0.119,0.343l0.116,0.338l0.113,0.333l0.11,0.329l0.111,0.331l0.206,0.626l0.204,0.624l0.2,0.612l0.197,0.601l0.198,0.601l0.095,0.285l0.097,0.288l0.097,0.287l0.097,0.284l0.098,0.282l0.097,0.279l0.098,0.276l0.098,0.275l0.099,0.271l0.099,0.269l0.099,0.265l0.1,0.263l0.1,0.26l0.101,0.257l0.102,0.254l0.102,0.25l0.102,0.247l0.103,0.244l0.111,0.256l0.045,0.103l0.052,0.118l0.052,0.116l0.053,0.116l0.052,0.115l0.053,0.114l0.052,0.113l0.053,0.112l0.053,0.111l0.052,0.109l0.054,0.109l0.053,0.109l0.053,0.106l0.053,0.105l0.053,0.105l0.054,0.104l0.053,0.101l0.054,0.101l0.053,0.1l0.054,0.1l0.054,0.098l0.053,0.096l0.054,0.096l0.053,0.094l0.053,0.092l0.054,0.092l0.054,0.092l0.053,0.089l0.053,0.087l0.054,0.088l0.053,0.086l0.053,0.084l0.054,0.084l0.053,0.082l0.053,0.081l0.053,0.08l0.053,0.078l0.053,0.078l0.052,0.075l0.052,0.075l0.053,0.074l0.051,0.071l0.053,0.072l0.052,0.07l0.052,0.069l0.051,0.068l0.051,0.066l0.051,0.064l0.051,0.064l0.051,0.063l0.051,0.062l0.05,0.061l0.051,0.059l0.05,0.058l0.049,0.057l0.049,0.056l0.05,0.054l0.05,0.055l0.049,0.053l0.048,0.051l0.049,0.051l0.048,0.05l0.049,0.049l0.048,0.047l0.047,0.047l0.048,0.046l0.048,0.046l0.048,0.044l0.047,0.043l0.048,0.043l0.047,0.042l0.048,0.041l0.046,0.04l0.048,0.039l0.048,0.04l0.047,0.038l0.047,0.038l0.047,0.036l0.047,0.036l0.048,0.036l0.048,0.036l0.049,0.035l0.049,0.035l0.048,0.033l0.048,0.033l0.05,0.033l0.051,0.034l0.05,0.032l0.049,0.031l0.052,0.032l0.052,0.031l0.053,0.031l0.053,0.031l0.053,0.03l0.056,0.031l0.056,0.03l0.055,0.029l0.058,0.03l0.059,0.03l0.059,0.029l0.061,0.029l0.062,0.029l0.063,0.028l0.064,0.029l0.066,0.029l0.068,0.028l0.067,0.028l0.07,0.028l0.073,0.028l0.074,0.028l0.074,0.028l0.077,0.027l0.08,0.028l0.08,0.027l0.084,0.027l0.084,0.026l0.087,0.027l0.089,0.026l0.091,0.026l0.094,0.025l0.096,0.026l0.098,0.025l0.101,0.024l0.104,0.025l0.106,0.024l0.109,0.023l0.11,0.023l0.115,0.022l0.117,0.022l0.119,0.022l0.123,0.02l0.126,0.02l0.128,0.02l0.132,0.019l0.134,0.017l0.138,0.018l0.141,0.016l0.144,0.015l0.148,0.015l0.15,0.013l0.154,0.013l0.158,0.012l0.16,0.01l0.165,0.009l0.168,0.009l0.171,0.007l0.175,0.005l0.178,0.005l0.182,0.003l0.185,0.002l0.189,0l0.194,-0.001l0.196,-0.003l0.201,-0.005l0.204,-0.005l0.207,-0.008l0.212,-0.009l0.215,-0.011l0.219,-0.013l0.223,-0.015l0.227,-0.016l0.231,-0.019l0.234,-0.02l0.239,-0.023l0.242,-0.024l0.246,-0.027l0.25,-0.028l0.255,-0.031l0.258,-0.033l0.262,-0.036l0.266,-0.037l0.27,-0.04l0.274,-0.043l0.278,-0.045l0.282,-0.047l0.286,-0.05l0.29,-0.052l0.294,-0.055l0.298,-0.057l0.302,-0.06l0.306,-0.063l0.326,-0.069l0.638,-0.137l0.647,-0.142l0.638,-0.141l0.63,-0.141l0.621,-0.141l0.622,-0.144l0.294,-0.07l0.3,-0.071l0.299,-0.071l0.297,-0.072l0.294,-0.072l0.291,-0.072l0.289,-0.072l0.289,-0.073l0.285,-0.073l0.282,-0.073l0.28,-0.074l0.28,-0.074l0.275,-0.074l0.273,-0.074l0.272,-0.074l0.269,-0.075l0.267,-0.076l0.264,-0.075l0.262,-0.076l0.261,-0.077l0.258,-0.077l0.255,-0.077l0.253,-0.077l0.251,-0.078l0.248,-0.079l0.247,-0.078l0.243,-0.08l0.241,-0.079l0.24,-0.08l0.237,-0.081l0.234,-0.081l0.233,-0.081l0.23,-0.082l0.228,-0.082l0.225,-0.083l0.224,-0.083l0.221,-0.084l0.218,-0.084l0.217,-0.084l0.215,-0.086l0.212,-0.085l0.21,-0.086l0.208,-0.087l0.206,-0.087l0.203,-0.087l0.202,-0.089l0.2,-0.089l0.196,-0.089l0.196,-0.09l0.194,-0.09l0.191,-0.091l0.19,-0.091l0.187,-0.092l0.186,-0.093l0.184,-0.093l0.182,-0.094l0.18,-0.095l0.178,-0.095l0.177,-0.096l0.175,-0.097l0.173,-0.097l0.172,-0.098l0.171,-0.099l0.168,-0.099l0.166,-0.1l0.167,-0.101l0.164,-0.102l0.162,-0.102l0.162,-0.104l0.161,-0.105l0.158,-0.105l0.158,-0.107l0.157,-0.107l0.155,-0.108l0.154,-0.11l0.154,-0.111l0.152,-0.112l0.151,-0.112l0.151,-0.114l0.15,-0.116l0.149,-0.117l0.148,-0.118l0.147,-0.12l0.147,-0.121l0.146,-0.123l0.145,-0.124l0.145,-0.125l0.144,-0.128l0.144,-0.129l0.144,-0.132l0.143,-0.133l0.143,-0.134l0.142,-0.137l0.142,-0.139l0.157,-0.155l0.057,-0.057l0.071,-0.072l0.07,-0.073l0.07,-0.071l0.071,-0.074l0.072,-0.076l0.07,-0.074l0.07,-0.074l0.07,-0.076l0.071,-0.077l0.072,-0.078l0.069,-0.076l0.071,-0.079l0.07,-0.079l0.071,-0.08l0.071,-0.081l0.069,-0.08l0.071,-0.082l0.071,-0.083l0.07,-0.082l0.071,-0.085l0.071,-0.084l0.07,-0.086l0.071,-0.086l0.07,-0.085l0.071,-0.089l0.071,-0.088l0.07,-0.089l0.071,-0.09l0.07,-0.09l0.071,-0.091l0.07,-0.092l0.071,-0.094l0.071,-0.094l0.071,-0.094l0.071,-0.096l0.07,-0.095l0.071,-0.098l0.072,-0.099l0.071,-0.099l0.069,-0.098l0.072,-0.102l0.071,-0.101l0.071,-0.102l0.072,-0.104l0.07,-0.104l0.071,-0.105l0.072,-0.107l0.072,-0.108l0.07,-0.106l0.071,-0.11l0.072,-0.11l0.071,-0.11l0.071,-0.112l0.072,-0.113l0.071,-0.115l0.072,-0.115l0.071,-0.115l0.071,-0.117l0.072,-0.118l0.072,-0.12l0.071,-0.119l0.072,-0.121l0.072,-0.123l0.071,-0.123l0.072,-0.124l0.072,-0.126l0.07,-0.125l0.072,-0.128l0.072,-0.129l0.072,-0.131l0.072,-0.13l0.071,-0.132l0.072,-0.133l0.072,-0.135l0.071,-0.135l0.072,-0.136l0.072,-0.139l0.071,-0.138l0.071,-0.14l0.072,-0.141l0.072,-0.143l0.072,-0.144l0.071,-0.144l0.071,-0.146l0.072,-0.147l0.071,-0.148l0.072,-0.151l0.071,-0.151l0.071,-0.151l0.071,-0.153l0.072,-0.155l0.071,-0.156l0.071,-0.156l0.071,-0.159l0.071,-0.159l0.072,-0.162l0.071,-0.162l0.07,-0.163l0.071,-0.164l0.07,-0.166l0.071,-0.167l0.07,-0.168l0.072,-0.172l0.07,-0.17l0.064,-0.158l0.146,-0.363l0.14,-0.354l0.14,-0.359l0.139,-0.365l0.139,-0.37l0.138,-0.375l0.138,-0.382l0.138,-0.387l0.137,-0.391l0.136,-0.398l0.136,-0.403l0.135,-0.409l0.134,-0.414l0.134,-0.421l0.133,-0.425l0.133,-0.432l0.131,-0.437l0.131,-0.444l0.131,-0.449l0.129,-0.454l0.129,-0.461l0.128,-0.466l0.127,-0.473l0.126,-0.478l0.125,-0.485l0.125,-0.49l0.123,-0.497l0.123,-0.502l0.121,-0.508l0.121,-0.515l0.12,-0.521l0.118,-0.527l0.118,-0.533l0.116,-0.538l0.116,-0.546l0.114,-0.552l0.113,-0.557l0.112,-0.564l0.112,-0.571l0.109,-0.576l0.109,-0.583l0.107,-0.589l0.107,-0.596l0.105,-0.602l0.103,-0.608l0.103,-0.615l0.101,-0.621l0.1,-0.627l0.099,-0.635l0.097,-0.64l0.096,-0.647l0.095,-0.654l0.093,-0.66l0.092,-0.666l0.09,-0.674l0.09,-0.68l0.087,-0.686l0.087,-0.693l0.084,-0.7l0.084,-0.707l0.082,-0.713l0.08,-0.72l0.079,-0.727l0.078,-0.733l0.076,-0.74l0.074,-0.747l0.073,-0.754l0.072,-0.761l0.07,-0.767l0.068,-0.774l0.067,-0.782l0.065,-0.788l0.063,-0.795l0.062,-0.802l0.061,-0.809l0.058,-0.816l0.057,-0.823l0.056,-0.83l0.054,-0.837l0.052,-0.844l0.05,-0.852l0.049,-0.858l0.047,-0.866l0.045,-0.872l0.044,-0.88l0.042,-0.887l0.04,-0.894l0.038,-0.902l0.037,-0.908l0.035,-0.916l0.033,-0.924l0.032,-0.93l0.03,-0.938l0.027,-0.945l0.027,-0.953l0.024,-0.979l18.682,0.473l-18.556,-2.213l0.129,-1.08l0.122,-1.039l0.237,-2.026l0.225,-1.935l0.112,-0.946l0.11,-0.927l0.111,-0.912l0.111,-0.891l0.058,-0.452l0.057,-0.442l0.057,-0.439l0.059,-0.437l0.059,-0.436l0.061,-0.433l0.061,-0.431l0.063,-0.43l0.064,-0.429l0.066,-0.428l0.068,-0.426l0.07,-0.428l0.071,-0.428l0.075,-0.427l0.076,-0.427l0.08,-0.429l0.083,-0.43l0.086,-0.432l0.09,-0.435l0.094,-0.436l0.098,-0.439l0.103,-0.443l0.108,-0.445l0.114,-0.449l0.12,-0.456l0.119,-0.432l0.073,-0.256l0.068,-0.234l0.07,-0.232l0.072,-0.238l0.074,-0.237l0.076,-0.236l0.079,-0.241l0.08,-0.241l0.084,-0.245l0.087,-0.246l0.088,-0.245l0.091,-0.246l0.095,-0.252l0.098,-0.254l0.099,-0.251l0.104,-0.256l0.107,-0.257l0.111,-0.258l0.114,-0.261l0.118,-0.262l0.122,-0.265l0.126,-0.267l0.13,-0.267l0.135,-0.27l0.138,-0.269l0.142,-0.272l0.149,-0.275l0.152,-0.275l0.158,-0.277l0.163,-0.278l0.167,-0.279l0.174,-0.28l0.177,-0.279l0.183,-0.28l0.19,-0.283l0.196,-0.283l0.2,-0.281l0.207,-0.283l0.213,-0.284l0.218,-0.281l0.224,-0.281l0.229,-0.279l0.237,-0.279l0.243,-0.279l0.248,-0.276l0.255,-0.275l0.26,-0.273l0.266,-0.27l0.271,-0.266l0.276,-0.264l0.283,-0.262l0.286,-0.256l0.293,-0.254l0.299,-0.251l0.304,-0.247l0.306,-0.24l0.311,-0.237l0.317,-0.233l0.318,-0.226l0.322,-0.22l0.327,-0.217l0.331,-0.211l0.331,-0.205l0.333,-0.198l0.338,-0.193l0.336,-0.186l0.34,-0.181l0.342,-0.175l0.34,-0.168l0.346,-0.163l0.343,-0.156l0.342,-0.149l0.342,-0.144l0.342,-0.137l0.342,-0.131l0.341,-0.125l0.343,-0.121l0.339,-0.114l0.333,-0.106l0.337,-0.103l0.335,-0.097l0.33,-0.091l0.332,-0.087l0.325,-0.081l0.325,-0.077l0.325,-0.071l0.316,-0.067l0.319,-0.062l0.316,-0.059l0.311,-0.053l0.31,-0.05l0.305,-0.046l0.303,-0.042l0.304,-0.039l0.299,-0.035l0.292,-0.031l0.292,-0.028l0.293,-0.026l0.286,-0.022l0.284,-0.019l0.281,-0.017l0.278,-0.014l0.276,-0.012l0.274,-0.009l0.272,-0.007l0.27,-0.004l0.267,-0.003l0.262,0l0.261,0.001l0.26,0.003l0.26,0.006l0.254,0.007l0.253,0.008l0.254,0.01l0.249,0.012l0.247,0.013l0.246,0.014l0.246,0.016l0.242,0.017l0.241,0.019l0.241,0.019l0.262,0.023l0.279,0.027l-0.001,-0.001l-0.179,-0.185l-0.178,-0.185l-0.177,-0.189l-0.174,-0.188l-0.17,-0.186l-0.168,-0.189l-0.166,-0.189l-0.163,-0.188l-0.161,-0.19l-0.184,-0.219l-0.284,-0.349l-0.298,-0.379l-0.288,-0.379l-0.279,-0.379l-0.268,-0.378l-0.259,-0.377l-0.248,-0.374l-0.238,-0.372l-0.228,-0.371l-0.22,-0.369l-0.209,-0.363l-0.2,-0.361l-0.192,-0.36l-0.181,-0.352l-0.173,-0.348l-0.165,-0.346l-0.156,-0.341l-0.148,-0.334l-0.138,-0.326l-0.132,-0.323l-0.125,-0.319l-0.115,-0.309l-0.109,-0.301l-0.103,-0.298l-0.096,-0.292l-0.105,-0.336l-0.14,-0.472l-0.134,-0.504l-0.111,-0.456l-1.75,-8.015l4.761,-7.076l0.294,-0.439l0.294,-0.439l0.292,-0.439l0.293,-0.441l0.291,-0.44l0.291,-0.441l0.291,-0.442l0.289,-0.442l0.289,-0.442l0.289,-0.443l0.287,-0.444l0.287,-0.444l0.287,-0.445l0.286,-0.444l0.285,-0.446l0.284,-0.445l0.284,-0.447l0.284,-0.446l0.282,-0.447l0.282,-0.448l0.281,-0.448l0.281,-0.449l0.28,-0.448l0.279,-0.449l0.279,-0.45l0.278,-0.45l0.278,-0.45l0.276,-0.451l0.276,-0.451l0.276,-0.452l0.274,-0.452l0.274,-0.452l0.274,-0.452l0.272,-0.454l0.273,-0.453l0.271,-0.454l0.271,-0.454l0.27,-0.454l0.269,-0.455l0.269,-0.455l0.268,-0.456l0.268,-0.456l0.266,-0.456l0.266,-0.456l0.266,-0.457l0.264,-0.457l0.264,-0.457l0.264,-0.458l0.262,-0.458l0.262,-0.458l0.262,-0.459l0.261,-0.459l0.26,-0.459l0.259,-0.459l0.258,-0.46l0.258,-0.46l0.258,-0.46l0.256,-0.46l0.256,-0.461l0.255,-0.461l0.252,-0.455l0.51,-0.929l0.504,-0.924l0.502,-0.925l0.498,-0.926l0.496,-0.926l0.493,-0.928l0.491,-0.928l0.487,-0.928l0.485,-0.93l0.482,-0.93l0.479,-0.93l0.477,-0.931l0.473,-0.932l0.471,-0.932l0.468,-0.932l0.465,-0.933l0.462,-0.934l0.459,-0.933l0.457,-0.934l0.454,-0.934l0.45,-0.935l0.448,-0.934l0.445,-0.935l0.443,-0.935l0.439,-0.935l0.436,-0.934l0.434,-0.935l0.43,-0.935l0.428,-0.935l0.425,-0.934l0.422,-0.935l0.418,-0.934l0.417,-0.934l0.413,-0.934l0.41,-0.933l0.407,-0.933l0.404,-0.933l0.401,-0.932l0.398,-0.932l0.396,-0.931l0.392,-0.931l0.389,-0.931l0.387,-0.929l0.383,-0.929l0.38,-0.929l0.378,-0.927l0.374,-0.927l0.371,-0.926l0.369,-0.925l0.365,-0.925l0.362,-0.923l0.359,-0.922l0.357,-0.922l0.353,-0.92l0.35,-0.919l0.347,-0.919l0.344,-0.917l0.341,-0.916l0.338,-0.915l0.335,-0.913l0.331,-0.912l0.329,-0.911l0.325,-0.909l0.323,-0.909l0.319,-0.906l0.317,-0.905l0.313,-0.904l0.31,-0.902l0.307,-0.9l0.304,-0.899l0.3,-0.897l0.298,-0.896l0.294,-0.893l0.292,-0.892l0.288,-0.89l0.285,-0.888l0.282,-0.886l0.278,-0.885l0.276,-0.882l0.272,-0.88l0.269,-0.878l0.267,-0.876l0.262,-0.874l0.26,-0.871l0.257,-0.87l0.253,-0.867l0.25,-0.864l0.247,-0.863l0.244,-0.86l0.24,-0.857l0.238,-0.855l0.234,-0.853l0.231,-0.85l0.227,-0.847l0.225,-0.844l0.221,-0.842l0.218,-0.84l0.215,-0.836l0.211,-0.834l0.209,-0.83l0.205,-0.828l0.202,-0.825l0.198,-0.822l0.195,-0.819l0.192,-0.816l0.189,-0.812l0.186,-0.81l0.182,-0.806l0.179,-0.802l0.176,-0.8l0.172,-0.797l0.17,-0.793l0.165,-0.789l0.163,-0.786l0.159,-0.783l0.157,-0.778l0.152,-0.776l0.15,-0.771l0.146,-0.768l0.143,-0.764l0.14,-0.76l0.136,-0.757l0.133,-0.753l0.13,-0.748l0.126,-0.744l0.124,-0.741l0.119,-0.736l0.117,-0.732l0.113,-0.728l0.11,-0.724l0.107,-0.72l0.104,-0.714l0.1,-0.711l0.097,-0.706l0.093,-0.702l0.09,-0.697l0.087,-0.692l0.084,-0.688l0.081,-0.683l0.078,-0.688l0.036,-0.328l0.037,-0.336l0.035,-0.335l0.035,-0.333l0.035,-0.332l0.033,-0.332l0.032,-0.329l0.032,-0.329l0.031,-0.327l0.03,-0.327l0.029,-0.324l0.028,-0.323l0.028,-0.323l0.027,-0.321l0.026,-0.319l0.025,-0.318l0.024,-0.317l0.024,-0.316l0.023,-0.314l0.022,-0.312l0.021,-0.312l0.02,-0.31l0.02,-0.309l0.019,-0.307l0.018,-0.307l0.017,-0.303l0.016,-0.303l0.016,-0.302l0.015,-0.301l0.014,-0.299l0.013,-0.297l0.012,-0.296l0.012,-0.294l0.011,-0.293l0.01,-0.291l0.009,-0.29l0.009,-0.289l0.007,-0.287l0.007,-0.285l0.007,-0.284l0.005,-0.283l0.005,-0.28l0.004,-0.279l0.003,-0.278l0.002,-0.277l0.002,-0.274l0.001,-0.273l0,-0.271l-0.001,-0.27l-0.001,-0.268l-0.002,-0.267l-0.003,-0.265l-0.003,-0.263l-0.005,-0.261l-0.005,-0.26l-0.005,-0.259l-0.007,-0.256l-0.007,-0.254l-0.008,-0.254l-0.008,-0.251l-0.01,-0.249l-0.01,-0.249l-0.01,-0.245l-0.012,-0.244l-0.012,-0.243l-0.013,-0.241l-0.013,-0.239l-0.014,-0.236l-0.015,-0.235l-0.015,-0.235l-0.016,-0.231l-0.017,-0.23l-0.017,-0.228l-0.018,-0.225l-0.019,-0.224l-0.019,-0.224l-0.02,-0.219l-0.02,-0.218l-0.022,-0.217l-0.021,-0.215l-0.022,-0.212l-0.023,-0.21l-0.024,-0.208l-0.024,-0.207l-0.024,-0.205l-0.025,-0.202l-0.026,-0.2l-0.026,-0.2l-0.027,-0.195l-0.027,-0.193l-0.027,-0.193l-0.029,-0.19l-0.028,-0.188l-0.029,-0.185l-0.03,-0.184l-0.03,-0.181l-0.03,-0.179l-0.031,-0.177l-0.031,-0.175l-0.032,-0.173l-0.032,-0.169l-0.032,-0.168l-0.033,-0.167l-0.033,-0.164l-0.034,-0.16l-0.033,-0.159l-0.034,-0.157l-0.035,-0.154l-0.034,-0.152l-0.035,-0.149l-0.035,-0.147l-0.035,-0.145l-0.036,-0.143l-0.035,-0.14l-0.036,-0.138l-0.036,-0.134l-0.036,-0.132l-0.036,-0.131l-0.036,-0.128l-0.036,-0.125l-0.036,-0.123l-0.037,-0.121l-0.035,-0.116l-0.036,-0.115l-0.037,-0.113l-0.036,-0.111l-0.036,-0.107l-0.035,-0.105l-0.036,-0.102l-0.035,-0.099l-0.035,-0.098l-0.035,-0.094l-0.034,-0.092l-0.035,-0.089l-0.033,-0.087l-0.034,-0.084l-0.033,-0.081l-0.032,-0.079l-0.033,-0.076l-0.031,-0.073l-0.031,-0.07l-0.03,-0.068l-0.03,-0.066l-0.03,-0.063l-0.028,-0.06l-0.027,-0.057l-0.028,-0.055l-0.026,-0.052l-0.025,-0.049l-0.025,-0.047l-0.023,-0.045l-0.023,-0.041l-0.021,-0.038l-0.021,-0.037l-0.02,-0.035l-0.017,-0.029l-0.018,-0.03l-0.016,-0.026l-0.014,-0.023l-0.014,-0.022l-0.012,-0.019l-0.01,-0.015l-0.01,-0.014l-0.008,-0.012l-0.006,-0.009l-0.005,-0.007l-0.004,-0.005l-0.001,-0.002l-0.001,-0.001l-0.015,-0.019l-0.242,-0.308l-0.259,-0.327l-0.259,-0.324l-0.261,-0.323l-0.26,-0.32l-0.261,-0.318l-0.262,-0.317l-0.262,-0.314l-0.263,-0.312l-0.263,-0.31l-0.264,-0.308l-0.264,-0.306l-0.265,-0.305l-0.266,-0.301l-0.266,-0.301l-0.266,-0.298l-0.267,-0.296l-0.267,-0.294l-0.268,-0.292l-0.269,-0.291l-0.269,-0.288l-0.269,-0.287l-0.27,-0.284l-0.27,-0.283l-0.271,-0.281l-0.271,-0.279l-0.272,-0.277l-0.273,-0.275l-0.272,-0.273l-0.274,-0.272l-0.273,-0.269l-0.274,-0.268l-0.275,-0.266l-0.275,-0.264l-0.275,-0.262l-0.277,-0.261l-0.276,-0.258l-0.277,-0.257l-0.277,-0.256l-0.278,-0.253l-0.278,-0.252l-0.279,-0.249l-0.279,-0.248l-0.279,-0.247l-0.28,-0.245l-0.281,-0.243l-0.28,-0.241l-0.281,-0.24l-0.282,-0.238l-0.282,-0.236l-0.282,-0.234l-0.283,-0.233l-0.284,-0.232l-0.283,-0.229l-0.285,-0.228l-0.284,-0.226l-0.285,-0.225l-0.285,-0.223l-0.286,-0.222l-0.286,-0.22l-0.287,-0.218l-0.287,-0.217l-0.287,-0.215l-0.288,-0.213l-0.288,-0.212l-0.288,-0.211l-0.289,-0.208l-0.29,-0.208l-0.289,-0.206l-0.29,-0.204l-0.29,-0.202l-0.291,-0.202l-0.291,-0.199l-0.292,-0.198l-0.292,-0.197l-0.292,-0.195l-0.293,-0.194l-0.293,-0.192l-0.293,-0.191l-0.294,-0.189l-0.294,-0.188l-0.295,-0.187l-0.294,-0.184l-0.295,-0.184l-0.296,-0.182l-0.296,-0.181l-0.296,-0.179l-0.297,-0.178l-0.297,-0.176l-0.297,-0.175l-0.297,-0.174l-0.299,-0.172l-0.298,-0.171l-0.298,-0.169l-0.299,-0.168l-0.299,-0.167l-0.3,-0.165l-0.3,-0.164l-0.3,-0.163l-0.301,-0.161l-0.301,-0.16l-0.301,-0.158l-0.302,-0.158l-0.301,-0.155l-0.302,-0.155l-0.303,-0.153l-0.303,-0.152l-0.303,-0.151l-0.303,-0.149l-0.304,-0.148l-0.304,-0.147l-0.304,-0.146l-0.304,-0.144l-0.305,-0.143l-0.306,-0.141l-0.304,-0.141l-0.306,-0.139l-0.306,-0.138l-0.306,-0.136l-0.307,-0.136l-0.307,-0.134l-0.307,-0.133l-0.307,-0.131l-0.307,-0.131l-0.308,-0.129l-0.308,-0.128l-0.309,-0.127l-0.308,-0.125l-0.309,-0.124l-0.309,-0.124l-0.309,-0.122l-0.31,-0.12l-0.309,-0.12l-0.31,-0.118l-0.31,-0.117l-0.311,-0.116l-0.31,-0.115l-0.311,-0.114l-0.311,-0.112l-0.311,-0.112l-0.312,-0.11l-0.311,-0.109l-0.312,-0.108l-0.312,-0.106l-0.312,-0.106l-0.313,-0.105l-0.312,-0.103l-0.313,-0.102l-0.313,-0.101l-0.313,-0.1l-0.313,-0.099l-0.313,-0.098l-0.314,-0.096l-0.313,-0.096l-0.314,-0.094l-0.314,-0.093l-0.315,-0.093l-0.314,-0.091l-0.314,-0.09l-0.314,-0.089l-0.315,-0.088l-0.315,-0.087l-0.315,-0.085l-0.315,-0.085l-0.314,-0.084l-0.316,-0.082l-0.315,-0.082l-0.315,-0.08l-0.316,-0.08l-0.315,-0.078l-0.316,-0.077l-0.315,-0.077l-0.316,-0.075l-0.316,-0.074l-0.316,-0.073l-0.316,-0.073l-0.315,-0.071l-0.316,-0.07l-0.316,-0.069l-0.316,-0.068l-0.316,-0.068l-0.317,-0.066l-0.316,-0.065l-0.316,-0.064l-0.316,-0.063l-0.316,-0.063l-0.316,-0.061l-0.316,-0.06l-0.316,-0.06l-0.316,-0.058l-0.316,-0.057l-0.316,-0.057l-0.316,-0.055l-0.316,-0.055l-0.316,-0.054l-0.316,-0.052l-0.316,-0.052l-0.316,-0.051l-0.315,-0.05l-0.316,-0.049l-0.315,-0.048l-0.316,-0.047l-0.315,-0.046l-0.315,-0.045l-0.316,-0.045l-0.315,-0.043l-0.315,-0.043l-0.314,-0.042l-0.315,-0.04l-0.315,-0.04l-0.314,-0.04l-0.314,-0.038l-0.315,-0.037l-0.314,-0.037l-0.313,-0.035l-0.314,-0.035l-0.314,-0.034l-0.313,-0.033l-0.313,-0.032l-0.313,-0.031l-0.313,-0.031l-0.313,-0.03l-0.312,-0.028l-0.312,-0.028l-0.312,-0.028l-0.312,-0.026l-0.311,-0.026l-0.312,-0.024l-0.311,-0.024l-0.311,-0.024l-0.31,-0.022l-0.31,-0.022l-0.311,-0.02l-0.309,-0.02l-0.31,-0.02l-0.309,-0.018l-0.309,-0.018l-0.309,-0.017l-0.308,-0.016l-0.308,-0.015l-0.308,-0.015l-0.307,-0.014l-0.307,-0.013l-0.307,-0.013l-0.307,-0.011l-0.306,-0.011l-0.306,-0.011l-0.305,-0.009l-0.305,-0.009l-0.305,-0.008l-0.304,-0.007l-0.304,-0.007l-0.303,-0.006l-0.304,-0.005l-0.302,-0.005l-0.303,-0.004l-0.302,-0.003l-0.301,-0.003l-0.301,-0.002l-0.291,-0.001l-0.61,-0.001l-0.599,0.002l-0.596,0.005l-0.595,0.007l-0.593,0.01l-0.59,0.012l-0.589,0.014l-0.587,0.017l-0.584,0.02l-0.582,0.021l-0.58,0.024l-0.578,0.026l-0.576,0.028l-0.573,0.03l-0.57,0.033l-0.568,0.034l-0.566,0.037l-0.563,0.038l-0.561,0.041l-0.557,0.042l-0.555,0.045l-0.552,0.046l-0.55,0.047l-0.546,0.05l-0.544,0.051l-0.54,0.053l-0.538,0.055l-0.534,0.056l-0.531,0.058l-0.528,0.059l-0.525,0.061l-0.522,0.062l-0.518,0.063l-0.515,0.065l-0.511,0.066l-0.508,0.067l-0.504,0.069l-0.501,0.069l-0.497,0.071l-0.493,0.072l-0.49,0.073l-0.486,0.074l-0.482,0.075l-0.478,0.076l-0.474,0.076l-0.47,0.078l-0.466,0.078l-0.461,0.079l-0.458,0.08l-0.454,0.08l-0.449,0.081l-0.445,0.081l-0.44,0.082l-0.437,0.083l-0.431,0.083l-0.427,0.083l-0.423,0.084l-0.418,0.084l-0.413,0.084l-0.409,0.084l-0.403,0.085l-0.4,0.085l-0.394,0.084l-0.389,0.085l-0.384,0.085l-0.379,0.085l-0.374,0.084l-0.369,0.085l-0.364,0.084l-0.359,0.084l-0.353,0.084l-0.348,0.083l-0.342,0.083l-0.337,0.083l-0.332,0.082l-0.326,0.082l-0.32,0.081l-0.314,0.08l-0.309,0.08l-0.304,0.079l-0.297,0.079l-0.291,0.077l-0.286,0.077l-0.28,0.076l-0.273,0.075l-0.267,0.074l-0.261,0.073l-0.245,0.068l-0.501,0.144l-0.465,0.135l-0.439,0.129l-0.412,0.124l-0.384,0.118l-0.357,0.111l-0.327,0.103l-0.297,0.096l-0.266,0.087l-0.233,0.078l-0.042,0.014l-1.481,0.748l-6.711,1.24l-4.012,-0.826l-0.409,-0.083l-0.411,-0.082l-0.413,-0.081l-0.415,-0.079l-0.417,-0.079l-0.419,-0.078l-0.42,-0.077l-0.423,-0.075l-0.424,-0.075l-0.426,-0.074l-0.428,-0.072l-0.43,-0.072l-0.432,-0.07l-0.434,-0.07l-0.436,-0.068l-0.438,-0.067l-0.44,-0.066l-0.442,-0.065l-0.443,-0.064l-0.446,-0.063l-0.448,-0.062l-0.449,-0.06l-0.452,-0.06l-0.454,-0.058l-0.455,-0.057l-0.458,-0.056l-0.46,-0.055l-0.461,-0.054l-0.464,-0.052l-0.466,-0.051l-0.467,-0.051l-0.47,-0.049l-0.472,-0.048l-0.474,-0.046l-0.476,-0.046l-0.478,-0.044l-0.48,-0.043l-0.482,-0.042l-0.484,-0.04l-0.486,-0.04l-0.488,-0.038l-0.491,-0.036l-0.492,-0.036l-0.495,-0.034l-0.497,-0.034l-0.498,-0.031l-0.501,-0.031l-0.503,-0.029l-0.505,-0.028l-0.508,-0.027l-0.509,-0.025l-0.512,-0.024l-0.513,-0.023l-0.516,-0.022l-0.518,-0.02l-0.52,-0.019l-0.523,-0.017l-0.524,-0.016l-0.527,-0.015l-0.529,-0.014l-0.531,-0.012l-0.533,-0.01l-0.529,-0.01l-0.458,-0.006l-0.445,-0.004l-0.443,-0.003l-0.44,0l-0.438,0.002l-0.436,0.004l-0.433,0.006l-0.431,0.008l-0.429,0.009l-0.426,0.012l-0.424,0.014l-0.422,0.015l-0.419,0.018l-0.418,0.019l-0.415,0.022l-0.413,0.023l-0.41,0.025l-0.408,0.027l-0.406,0.029l-0.404,0.03l-0.402,0.033l-0.4,0.034l-0.397,0.036l-0.395,0.038l-0.393,0.039l-0.391,0.042l-0.389,0.043l-0.386,0.044l-0.385,0.047l-0.382,0.048l-0.38,0.05l-0.378,0.051l-0.376,0.053l-0.374,0.055l-0.372,0.057l-0.37,0.058l-0.368,0.059l-0.366,0.062l-0.364,0.062l-0.362,0.065l-0.359,0.066l-0.358,0.067l-0.356,0.07l-0.354,0.07l-0.352,0.072l-0.35,0.074l-0.348,0.075l-0.346,0.077l-0.344,0.078l-0.343,0.08l-0.34,0.081l-0.339,0.083l-0.337,0.084l-0.335,0.085l-0.333,0.087l-0.331,0.088l-0.33,0.09l-0.327,0.091l-0.326,0.092l-0.325,0.094l-0.322,0.095l-0.321,0.097l-0.319,0.098l-0.317,0.099l-0.315,0.101l-0.314,0.102l-0.312,0.103l-0.311,0.105l-0.309,0.106l-0.307,0.107l-0.305,0.108l-0.304,0.11l-0.302,0.111l-0.301,0.113l-0.299,0.113l-0.298,0.115l-0.296,0.116l-0.295,0.118l-0.293,0.118l-0.291,0.12l-0.29,0.121l-0.289,0.122l-0.286,0.124l-0.286,0.125l-0.284,0.125l-0.283,0.128l-0.281,0.128l-0.28,0.13l-0.278,0.13l-0.277,0.132l-0.275,0.133l-0.274,0.134l-0.273,0.136l-0.272,0.137l-0.27,0.137l-0.269,0.139l-0.267,0.14l-0.266,0.142l-0.265,0.142l-0.264,0.143l-0.262,0.145l-0.261,0.146l-0.26,0.147l-0.258,0.148l-0.258,0.149l-0.256,0.15l-0.255,0.152l-0.253,0.153l-0.253,0.153l-0.251,0.155l-0.25,0.156l-0.249,0.157l-0.248,0.158l-0.246,0.159l-0.246,0.161l-0.244,0.161l-0.243,0.163l-0.242,0.164l-0.241,0.164l-0.24,0.166l-0.239,0.167l-0.238,0.168l-0.236,0.169l-0.236,0.171l-0.234,0.171l-0.234,0.172l-0.232,0.174l-8.747,6.599l-9.904,-4.033l-0.256,-0.103l-0.188,-0.074l-0.252,-0.098l-0.304,-0.118l-0.356,-0.137l-0.406,-0.154l-0.454,-0.17l-0.504,-0.187l-0.55,-0.202l-0.606,-0.22l-0.307,-0.11l-0.326,-0.117l-0.338,-0.12l-0.349,-0.122l-0.359,-0.126l-0.371,-0.129l-0.38,-0.132l-0.392,-0.134l-0.401,-0.137l-0.412,-0.139l-0.422,-0.142l-0.431,-0.144l-0.442,-0.146l-0.451,-0.148l-0.461,-0.15l-0.471,-0.153l-0.479,-0.154l-0.489,-0.155l-0.498,-0.157l-0.507,-0.159l-0.516,-0.16l-0.524,-0.161l-0.533,-0.163l-0.541,-0.163l-0.55,-0.165l-0.558,-0.166l-0.566,-0.166l-0.574,-0.167l-0.582,-0.167l-0.589,-0.168l-0.597,-0.169l-0.604,-0.168l-0.612,-0.169l-0.618,-0.169l-0.626,-0.169l-0.633,-0.169l-0.639,-0.169l-0.646,-0.168l-0.653,-0.168l-0.659,-0.167l-0.665,-0.167l-0.671,-0.166l-0.677,-0.166l-0.683,-0.164l-0.689,-0.164l-0.695,-0.162l-0.699,-0.161l-0.706,-0.16l-0.71,-0.159l-0.715,-0.157l-0.721,-0.155l-0.725,-0.154l-0.738,-0.154l-0.358,-0.074l-0.368,-0.075l-0.369,-0.074l-0.37,-0.074l-0.371,-0.074l-0.372,-0.072l-0.373,-0.073l-0.374,-0.072l-0.375,-0.071l-0.375,-0.071l-0.377,-0.07l-0.378,-0.069l-0.379,-0.069l-0.38,-0.068l-0.38,-0.068l-0.382,-0.067l-0.382,-0.066l-0.383,-0.066l-0.384,-0.065l-0.385,-0.065l-0.386,-0.063l-0.386,-0.063l-0.387,-0.062l-0.388,-0.062l-0.389,-0.061l-0.389,-0.06l-0.39,-0.059l-0.39,-0.059l-0.392,-0.057l-0.392,-0.057l-0.392,-0.056l-0.393,-0.056l-0.394,-0.054l-0.394,-0.054l-0.395,-0.052l-0.395,-0.052l-0.396,-0.051l-0.396,-0.05l-0.397,-0.05l-0.397,-0.048l-0.398,-0.047l-0.398,-0.047l-0.398,-0.046l-0.399,-0.044l-0.4,-0.044l-0.399,-0.043l-0.4,-0.041l-0.4,-0.041l-0.401,-0.04l-0.401,-0.038l-0.401,-0.038l-0.401,-0.037l-0.401,-0.035l-0.402,-0.035l-0.402,-0.034l-0.402,-0.032l-0.402,-0.031l-0.403,-0.031l-0.402,-0.029l-0.403,-0.028l-0.402,-0.027l-0.403,-0.026l-0.403,-0.024l-0.403,-0.024l-0.402,-0.022l-0.403,-0.021l-0.403,-0.021l-0.403,-0.018l-0.402,-0.018l-0.403,-0.016l-0.402,-0.016l-0.402,-0.014l-0.403,-0.013l-0.402,-0.011l-0.401,-0.01l-0.402,-0.009l-0.402,-0.008l-0.401,-0.007l-0.401,-0.005l-0.4,-0.004l-0.401,-0.002l-0.4,-0.002l-0.4,0l-0.399,0.001l-0.399,0.003l-0.399,0.004l-0.398,0.005l-0.398,0.007l-0.397,0.008l-0.397,0.01l-0.397,0.01l-0.396,0.012l-0.395,0.014l-0.395,0.015l-0.395,0.016l-0.394,0.018l-0.393,0.019l-0.393,0.021l-0.392,0.022l-0.392,0.023l-0.39,0.025l-0.391,0.027l-0.389,0.028l-0.389,0.029l-0.388,0.031l-0.387,0.032l-0.387,0.033l-0.386,0.036l-0.385,0.036l-0.384,0.039l-0.384,0.039l-0.382,0.041l-0.382,0.043l-0.381,0.044l-0.38,0.046l-0.379,0.047l-0.378,0.049l-0.377,0.05l-0.376,0.052l-0.375,0.053l-0.375,0.055l-0.373,0.057l-0.372,0.058l-0.371,0.06l-0.371,0.061l-0.369,0.062l-0.368,0.065l-0.366,0.065l-0.366,0.068l-0.365,0.069l-0.363,0.07l-0.363,0.073l-0.361,0.073l-0.36,0.076l-0.359,0.077l-0.357,0.078l-0.357,0.08l-0.355,0.082l-0.354,0.083l-0.352,0.085l-0.352,0.087l-0.35,0.088l-0.348,0.089l-0.348,0.092l-0.346,0.093l-0.345,0.094l-0.343,0.096l-0.342,0.098l-0.341,0.1l-0.339,0.101l-0.338,0.102l-0.337,0.104l-0.335,0.106l-0.333,0.108l-0.333,0.109l-0.33,0.111l-0.33,0.112l-0.328,0.114l-0.326,0.116l-0.325,0.117l-0.324,0.119l-0.322,0.121l-0.32,0.122l-0.32,0.124l-0.317,0.125l-0.316,0.127l-0.315,0.129l-0.313,0.13l-0.312,0.133l-0.31,0.133l-0.308,0.136l-0.307,0.137l-0.306,0.139l-0.304,0.14l-0.302,0.142l-0.301,0.144l-0.314,0.152l-0.135,0.067l-0.149,0.073l-0.148,0.075l-0.148,0.074l-0.148,0.075l-0.147,0.076l-0.147,0.076l-0.147,0.076l-0.146,0.077l-0.145,0.077l-0.146,0.078l-0.145,0.078l-0.144,0.078l-0.145,0.079l-0.144,0.079l-0.143,0.08l-0.143,0.08l-0.143,0.081l-0.142,0.081l-0.142,0.081l-0.142,0.082l-0.141,0.083l-0.141,0.083l-0.14,0.083l-0.14,0.084l-0.14,0.084l-0.139,0.084l-0.139,0.085l-0.139,0.086l-0.138,0.086l-0.138,0.086l-0.138,0.087l-0.137,0.087l-0.136,0.088l-0.137,0.088l-0.136,0.089l-0.136,0.089l-0.135,0.09l-0.135,0.09l-0.134,0.09l-0.135,0.091l-0.133,0.091l-0.134,0.092l-0.133,0.093l-0.133,0.093l-0.132,0.093l-0.132,0.094l-0.132,0.094l-0.131,0.095l-0.131,0.095l-0.131,0.096l-0.13,0.096l-0.13,0.096l-0.13,0.098l-0.129,0.097l-0.129,0.098l-0.129,0.099l-0.128,0.099l-0.128,0.1l-0.127,0.1l-0.127,0.101l-0.127,0.101l-0.127,0.101l-0.126,0.103l-0.126,0.102l-0.125,0.103l-0.125,0.104l-0.125,0.104l-0.125,0.105l-0.124,0.105l-0.123,0.106l-0.124,0.106l-0.123,0.107l-0.123,0.108l-0.122,0.108l-0.123,0.108l-0.121,0.109l-0.122,0.11l-0.121,0.11l-0.121,0.111l-0.121,0.111l-0.12,0.112l-0.12,0.112l-0.119,0.113l-0.12,0.114l-0.118,0.114l-0.119,0.114l-0.118,0.116l-0.118,0.116l-0.118,0.116l-0.117,0.117l-0.117,0.118l-0.117,0.118l-0.117,0.119l-0.116,0.119l-0.116,0.12l-0.115,0.121l-0.115,0.121l-0.115,0.122l-0.115,0.123l-0.114,0.123l-0.114,0.123l-0.114,0.125l-0.113,0.125l-0.113,0.126l-0.113,0.126l-0.112,0.127l-0.112,0.128l-0.112,0.128l-0.112,0.129l-0.111,0.13l-0.111,0.13l-0.11,0.131l-0.111,0.131l-0.11,0.133l-0.109,0.133l-0.11,0.134l-0.109,0.134l-0.109,0.135l-0.108,0.136l-0.108,0.137l-0.108,0.137l-0.108,0.138l-0.107,0.138l-0.107,0.14l-0.107,0.14l-0.106,0.141l-0.106,0.141l-0.106,0.143l-0.106,0.143l-0.105,0.144l-0.105,0.145l-0.105,0.145l-0.104,0.146l-0.104,0.147l-0.103,0.148l-0.104,0.148l-0.103,0.149l-0.103,0.151l-0.102,0.15l-0.102,0.152l-0.102,0.153l-0.102,0.153l-0.101,0.154l-0.101,0.155l-0.1,0.156l-0.101,0.156l-0.1,0.157l-0.099,0.159l-0.1,0.159l-0.099,0.16l-0.099,0.16l-0.098,0.162l-0.098,0.162l-0.098,0.164l-0.097,0.164l-0.097,0.165l-0.097,0.166l-0.097,0.167l-0.096,0.167l-0.096,0.169l-0.095,0.169l-0.095,0.171l-0.095,0.171l-0.094,0.172l-0.095,0.173l-0.093,0.174l-0.094,0.175l-0.093,0.176l-0.093,0.177l-0.092,0.178l-0.092,0.178l-0.092,0.18l-0.091,0.181l-0.091,0.181l-0.091,0.183l-0.09,0.183l-0.09,0.184l-0.09,0.186l-0.089,0.186l-0.089,0.188l-0.088,0.188l-0.089,0.189l-0.087,0.19l-0.088,0.192l-0.087,0.192l-0.086,0.193l-0.087,0.195l-0.085,0.195l-0.086,0.196l-0.085,0.198l-0.085,0.198l-0.084,0.199l-0.084,0.201l-0.083,0.201l-0.083,0.203l-0.083,0.203l-0.082,0.205l-0.082,0.205l-0.082,0.207l-0.081,0.208l-0.08,0.209l-0.081,0.21l-0.079,0.211l-0.08,0.212l-0.079,0.213l-0.078,0.214l-0.078,0.215l-0.078,0.217l-0.077,0.217l-0.077,0.219l-0.076,0.219l-0.076,0.221l-0.075,0.222l-0.075,0.223l-0.075,0.224l-0.074,0.225l-0.073,0.227l-0.073,0.227l-0.073,0.229l-0.072,0.229l-0.072,0.231l-0.071,0.232l-0.071,0.233l-0.07,0.235l-0.07,0.235l-0.069,0.237l-0.069,0.237l-0.068,0.239l-0.068,0.24l-0.067,0.242l-0.067,0.242l-0.066,0.243l-0.066,0.245l-0.065,0.246l-0.064,0.247l-0.065,0.248l-0.063,0.25l-0.063,0.251l-0.063,0.251l-0.062,0.253l-0.061,0.254l-0.061,0.256l-0.061,0.257l-0.059,0.257l-0.06,0.259l-0.058,0.261l-0.059,0.261l-0.057,0.263l-0.057,0.264l-0.057,0.265l-0.056,0.266l-0.055,0.267l-0.055,0.269l-0.054,0.27l-0.053,0.271l-0.053,0.273l-0.053,0.274l-0.051,0.274l-0.052,0.277l-0.05,0.277l-0.05,0.279l-0.049,0.28l-0.049,0.281l-0.048,0.282l-0.048,0.284l-0.047,0.285l-0.046,0.286l-0.045,0.287l-0.045,0.289l-0.045,0.29l-0.043,0.291l-0.044,0.293l-0.042,0.294l-0.042,0.295l-0.041,0.296l-0.04,0.297l-0.04,0.299l-0.039,0.301l-0.039,0.301l-0.037,0.303l-0.038,0.304l-0.036,0.305l-0.036,0.307l-0.035,0.308l-0.034,0.309l-0.034,0.31l-0.033,0.312l-0.032,0.313l-0.032,0.314l-0.031,0.316l-0.03,0.317l-0.029,0.318l-0.029,0.32l-0.028,0.321l-0.027,0.322l-0.027,0.324l-0.026,0.325l-0.025,0.326l-0.025,0.327l-0.023,0.329l-0.023,0.33l-0.022,0.332l-0.022,0.333l-0.021,0.334l-0.02,0.335l-0.019,0.337l-0.018,0.338l-0.018,0.339l-0.017,0.341l-0.016,0.342l-0.015,0.344l-0.015,0.344l-0.014,0.347l-0.013,0.347l-0.012,0.349l-0.012,0.35l-0.01,0.351l-0.01,0.353l-0.009,0.355l-0.009,0.355l-0.007,0.357l-0.007,0.358l-0.006,0.36l-0.005,0.361l-0.004,0.362l-0.004,0.364l-0.002,0.365l-0.002,0.366l-0.001,0.368l0,0.369l0,0.371l0.002,0.371l0.002,0.374l0.003,0.374l0.004,0.376l0.005,0.378l0.006,0.378l0.006,0.38l0.008,0.382l0.008,0.383l0.009,0.384l0.01,0.385l0.011,0.387l0.011,0.389l0.013,0.389l0.014,0.391l0.014,0.393l0.015,0.394l0.016,0.395l0.017,0.397l0.018,0.398l0.019,0.399l0.019,0.392l0.006,0.124l0.006,0.104l0.017,0.281l0.02,0.29l0.024,0.315l0.027,0.338l0.032,0.361l0.035,0.383l0.039,0.404l0.043,0.423l0.047,0.444l0.051,0.462l0.054,0.48l0.059,0.498l0.062,0.515l0.067,0.532l0.07,0.549l0.074,0.565l0.078,0.58l0.081,0.596l0.086,0.611l0.089,0.625l0.093,0.64l0.097,0.654l0.1,0.668l0.104,0.682l0.108,0.695l0.111,0.709l0.115,0.721l0.119,0.734l0.122,0.746l0.126,0.759l0.129,0.77l0.133,0.783l0.136,0.794l0.14,0.805l0.144,0.817l0.147,0.827l0.15,0.839l0.154,0.849l0.158,0.859l0.16,0.87l0.164,0.879l0.168,0.89l0.171,0.899l0.174,0.908l0.178,0.918l0.181,0.927l0.184,0.936l0.188,0.944l0.191,0.953l0.194,0.962l0.197,0.969l0.201,0.978l0.204,0.986l0.207,0.993l0.21,1l0.214,1.008l0.216,1.015l0.22,1.022l0.223,1.029l0.226,1.036l0.229,1.041l0.233,1.049l0.235,1.054l0.238,1.06l0.242,1.066l0.244,1.071l0.248,1.077l0.25,1.082l0.254,1.087l0.256,1.092l0.26,1.097l0.262,1.101l0.265,1.106l0.269,1.11l0.271,1.114l0.274,1.117l0.277,1.122l0.279,1.125l0.283,1.128l0.285,1.131l0.288,1.135l0.291,1.137l0.294,1.14l0.296,1.143l0.3,1.145l0.302,1.147l0.304,1.148l0.308,1.151l0.31,1.153l0.312,1.153l0.315,1.156l0.318,1.156l0.321,1.157l0.323,1.158l0.326,1.159l0.328,1.159l0.331,1.159l0.333,1.159l0.336,1.16l0.338,1.159l0.341,1.159l0.343,1.158l0.346,1.157l0.348,1.156l0.35,1.155l0.353,1.154l0.355,1.153l0.357,1.151l0.36,1.149l0.362,1.147l0.365,1.144l0.368,1.148l0.182,0.565l0.185,0.57l0.185,0.569l0.186,0.568l0.186,0.568l0.187,0.566l0.187,0.566l0.188,0.566l0.189,0.564l0.189,0.564l0.189,0.563l0.19,0.561l0.191,0.561l0.191,0.56l0.191,0.56l0.192,0.558l0.193,0.557l0.193,0.556l0.194,0.555l0.194,0.554l0.194,0.553l0.195,0.552l0.196,0.551l0.196,0.549l0.197,0.549l0.197,0.547l0.197,0.546l0.198,0.545l0.198,0.544l0.199,0.542l0.2,0.541l0.199,0.539l0.201,0.538l0.2,0.537l0.202,0.536l0.201,0.534l0.202,0.532l0.202,0.532l0.203,0.529l0.204,0.528l0.203,0.527l0.204,0.525l0.205,0.523l0.205,0.522l0.205,0.52l0.206,0.519l0.206,0.517l0.207,0.515l0.206,0.513l0.208,0.512l0.207,0.51l0.208,0.508l0.209,0.506l0.208,0.504l0.209,0.503l0.21,0.5l0.209,0.499l0.21,0.497l0.211,0.495l0.21,0.492l0.211,0.491l0.212,0.489l0.211,0.486l0.212,0.485l0.213,0.482l0.212,0.48l0.213,0.478l0.213,0.476l0.213,0.474l0.214,0.471l0.213,0.469l0.214,0.467l0.215,0.464l0.214,0.463l0.215,0.459l0.215,0.458l0.215,0.454l0.215,0.453l0.216,0.45l0.215,0.447l0.216,0.445l0.216,0.443l0.216,0.439l0.216,0.437l0.217,0.435l0.216,0.432l0.217,0.429l0.217,0.426l0.216,0.424l0.217,0.421l0.217,0.418l0.217,0.415l0.217,0.412l0.217,0.41l0.217,0.406l0.217,0.404l0.217,0.4l0.217,0.398l0.217,0.395l0.217,0.391l0.217,0.389l0.217,0.385l0.216,0.382l0.217,0.379l0.216,0.376l0.216,0.373l0.216,0.369l0.216,0.366l0.216,0.363l0.215,0.359l0.216,0.356l0.215,0.353l0.214,0.349l0.215,0.345l0.214,0.342l0.214,0.339l0.213,0.336l0.213,0.331l0.213,0.328l0.212,0.324l0.211,0.321l0.212,0.317l0.21,0.313l0.211,0.31l0.209,0.305l0.209,0.302l0.209,0.298l0.207,0.294l0.208,0.291l0.206,0.286l0.205,0.282l0.205,0.278l0.204,0.274l0.204,0.271l0.202,0.266l0.201,0.262l0.201,0.258l0.199,0.254l0.198,0.249l0.198,0.246l0.196,0.241l0.195,0.237l0.194,0.232l0.192,0.229l0.192,0.224l0.189,0.219l0.189,0.216l0.187,0.211l0.186,0.206l0.183,0.202l0.183,0.198l0.18,0.193l0.18,0.189l0.177,0.183l0.175,0.18l0.174,0.175l0.171,0.17l0.169,0.166l0.168,0.162l0.165,0.157l0.176,0.165l0.067,0.061l0.082,0.075l0.079,0.072l0.078,0.07l0.079,0.071l0.077,0.068l0.077,0.068l0.077,0.067l0.075,0.065l0.075,0.064l0.074,0.063l0.075,0.063l0.074,0.061l0.071,0.059l0.072,0.058l0.071,0.058l0.07,0.056l0.07,0.056l0.069,0.054l0.067,0.052l0.068,0.053l0.068,0.051l0.065,0.05l0.064,0.048l0.064,0.048l0.064,0.046l0.062,0.045l0.063,0.045l0.061,0.044l0.06,0.042l0.059,0.041l0.058,0.04l0.058,0.039l0.057,0.039l0.056,0.037l0.054,0.035l0.054,0.035l0.054,0.035l0.052,0.033l0.051,0.032l0.05,0.031l0.05,0.03l0.048,0.029l0.048,0.029l0.046,0.027l0.047,0.027l0.044,0.025l0.043,0.024l0.044,0.024l0.042,0.023l0.04,0.022l0.039,0.021l0.039,0.02l0.039,0.02l0.037,0.019l0.034,0.017l0.034,0.017l0.035,0.017l0.033,0.016l0.032,0.015l0.029,0.013l0.03,0.014l0.028,0.012l0.028,0.012l0.028,0.012l0.024,0.01l0.024,0.01l0.024,0.01l0.022,0.009l0.022,0.008l0.02,0.008l0.016,0.006l0.007,-0.003l0.02,-0.009l0.022,-0.009l0.023,-0.011l0.026,-0.011l0.025,-0.012l0.026,-0.012l0.028,-0.014l0.029,-0.014l0.032,-0.016l0.032,-0.016l0.03,-0.016l0.035,-0.018l0.036,-0.019l0.036,-0.02l0.039,-0.021l0.038,-0.021l0.039,-0.023l0.043,-0.025l0.042,-0.025l0.044,-0.025l0.046,-0.028l0.045,-0.028l0.047,-0.029l0.05,-0.032l0.049,-0.032l0.051,-0.033l0.053,-0.035l0.053,-0.035l0.055,-0.037l0.055,-0.039l0.058,-0.04l0.059,-0.041l0.058,-0.042l0.06,-0.044l0.062,-0.045l0.063,-0.047l0.064,-0.048l0.065,-0.049l0.066,-0.052l0.068,-0.052l0.067,-0.053l0.069,-0.055l0.071,-0.058l0.072,-0.059l0.073,-0.06l0.074,-0.061l0.074,-0.063l0.076,-0.065l0.077,-0.066l0.077,-0.068l0.079,-0.069l0.08,-0.072l0.081,-0.073l0.081,-0.073l0.083,-0.077l0.084,-0.078l0.084,-0.079l0.086,-0.082l0.086,-0.082l0.087,-0.084l0.089,-0.086l0.09,-0.089l0.09,-0.089l0.09,-0.092l0.092,-0.093l0.093,-0.094l0.093,-0.097l0.094,-0.098l0.096,-0.101l0.096,-0.102l0.096,-0.103l0.098,-0.106l0.098,-0.107l0.099,-0.109l0.101,-0.111l0.1,-0.113l0.102,-0.115l0.101,-0.115l0.103,-0.118l0.104,-0.121l0.104,-0.122l0.105,-0.123l0.106,-0.126l0.122,-0.146l0.906,-1.087l0.922,-1.103l0.92,-1.097l0.918,-1.09l0.914,-1.082l0.911,-1.074l0.907,-1.067l0.903,-1.058l0.899,-1.05l0.893,-1.04l0.888,-1.032l0.882,-1.021l0.876,-1.011l0.869,-1.001l0.862,-0.99l0.855,-0.979l0.847,-0.968l0.838,-0.955l0.831,-0.944l0.821,-0.93l0.811,-0.918l0.802,-0.905l0.791,-0.891l0.781,-0.877l0.77,-0.862l0.758,-0.848l0.746,-0.833l0.735,-0.818l0.721,-0.801l0.708,-0.786l0.695,-0.769l0.681,-0.752l0.667,-0.735l0.652,-0.718l0.637,-0.699l0.621,-0.681l0.605,-0.663l0.592,-0.646l1.124,-1.226l1.058,-1.148l0.983,-1.065l0.907,-0.979l0.827,-0.889l0.744,-0.798l0.657,-0.703l0.567,-0.605l0.477,-0.508l0.649,-0.688l11.018,-11.632l13.271,8.768l0.14,0.092Z"/></g><path d="M402.395,271.23c-50.302,10.376 -53.76,-6.655 -53.76,-6.655c53.111,-78.808 75.313,-178.843 56.153,-203.326c-52.27,-66.785 -142.752,-35.2 -144.262,-34.38l-0.486,0.087c-9.938,-2.063 -21.06,-3.292 -33.56,-3.496c-22.761,-0.373 -40.026,5.967 -53.127,15.902c0,0 -161.411,-66.495 -153.904,83.63c1.597,31.938 45.776,241.657 98.471,178.312c19.26,-23.163 37.869,-42.748 37.869,-42.748c9.243,6.14 20.308,9.272 31.908,8.147l0.901,-0.765c-0.28,2.876 -0.152,5.689 0.361,9.019c-13.575,15.167 -9.586,17.83 -36.723,23.416c-27.459,5.659 -11.328,15.734 -0.796,18.367c12.768,3.193 42.307,7.716 62.266,-20.224l-0.796,3.188c5.319,4.26 9.054,27.711 8.428,48.969c-0.626,21.259 -1.044,35.854 3.147,47.254c4.191,11.4 8.368,37.05 44.042,29.406c29.809,-6.388 45.256,-22.942 47.405,-50.555c1.525,-19.631 4.976,-16.729 5.194,-34.28l2.768,-8.309c3.192,-26.611 0.507,-35.196 18.872,-31.203l4.463,0.392c13.517,0.615 31.208,-2.174 41.591,-7c22.358,-10.376 35.618,-27.7 13.573,-23.148l0.002,0Z" style="fill:#336791;fill-rule:nonzero;"/><path d="M215.866,286.484c-1.385,49.516 0.348,99.377 5.193,111.495c4.848,12.118 15.223,35.688 50.9,28.045c29.806,-6.39 40.651,-18.756 45.357,-46.051c3.466,-20.082 10.148,-75.854 11.005,-87.281" style="fill:none;stroke:#fff;stroke-width:12.47px;"/><path d="M173.104,38.256c0,0 -161.521,-66.016 -154.012,84.109c1.597,31.938 45.779,241.664 98.473,178.316c19.256,-23.166 36.671,-41.335 36.671,-41.335" style="fill:none;stroke:#fff;stroke-width:12.47px;"/><path d="M260.349,26.207c-5.591,1.753 89.848,-34.889 144.087,34.417c19.159,24.484 -3.043,124.519 -56.153,203.329" style="fill:none;stroke:#fff;stroke-width:12.47px;"/><path d="M348.282,263.953c0,0 3.461,17.036 53.764,6.653c22.04,-4.552 8.776,12.774 -13.577,23.155c-18.345,8.514 -59.474,10.696 -60.146,-1.069c-1.729,-30.355 21.647,-21.133 19.96,-28.739c-1.525,-6.85 -11.979,-13.573 -18.894,-30.338c-6.037,-14.633 -82.796,-126.849 21.287,-110.183c3.813,-0.789 -27.146,-99.002 -124.553,-100.599c-97.385,-1.597 -94.19,119.762 -94.19,119.762" style="fill:none;stroke:#fff;stroke-width:12.47px;stroke-linejoin:bevel;"/><path d="M188.604,274.334c-13.577,15.166 -9.584,17.829 -36.723,23.417c-27.459,5.66 -11.326,15.733 -0.797,18.365c12.768,3.195 42.307,7.718 62.266,-20.229c6.078,-8.509 -0.036,-22.086 -8.385,-25.547c-4.034,-1.671 -9.428,-3.765 -16.361,3.994l0,0Z" style="fill:none;stroke:#fff;stroke-width:12.47px;"/><path d="M187.715,274.069c-1.368,-8.917 2.93,-19.528 7.536,-31.942c6.922,-18.626 22.893,-37.255 10.117,-96.339c-9.523,-44.029 -73.396,-9.163 -73.436,-3.193c-0.039,5.968 2.889,30.26 -1.067,58.548c-5.162,36.913 23.488,68.132 56.479,64.938" style="fill:none;stroke:#fff;stroke-width:12.47px;"/><g><path d="M172.517,141.7c-0.288,2.039 3.733,7.48 8.976,8.207c5.234,0.73 9.714,-3.522 9.998,-5.559c0.284,-2.039 -3.732,-4.285 -8.977,-5.015c-5.237,-0.731 -9.719,0.333 -9.996,2.367l-0.001,0Z" style="fill:#fff;fill-rule:nonzero;"/><path d="M179.461,137.025l0.247,0.003l0.249,0.006l0.251,0.009l0.253,0.011l0.254,0.013l0.256,0.017l0.257,0.019l0.259,0.022l0.26,0.024l0.262,0.028l0.263,0.03l0.264,0.033l0.265,0.035l0.265,0.039l0.263,0.04l0.261,0.043l0.26,0.045l0.257,0.048l0.255,0.05l0.253,0.052l0.251,0.054l0.249,0.056l0.246,0.059l0.244,0.06l0.241,0.063l0.239,0.064l0.236,0.067l0.234,0.069l0.231,0.07l0.229,0.072l0.225,0.075l0.223,0.076l0.22,0.078l0.218,0.08l0.214,0.082l0.211,0.083l0.209,0.086l0.205,0.087l0.202,0.089l0.199,0.091l0.196,0.093l0.193,0.095l0.19,0.096l0.186,0.099l0.183,0.1l0.18,0.103l0.177,0.104l0.169,0.104l0.089,0.057l0.085,0.054l0.083,0.056l0.083,0.056l0.082,0.056l0.081,0.057l0.081,0.058l0.079,0.058l0.078,0.059l0.078,0.06l0.077,0.06l0.076,0.061l0.075,0.062l0.074,0.063l0.073,0.063l0.072,0.065l0.072,0.065l0.07,0.066l0.069,0.067l0.069,0.068l0.067,0.068l0.067,0.07l0.065,0.071l0.065,0.072l0.063,0.074l0.062,0.074l0.061,0.076l0.06,0.077l0.059,0.078l0.058,0.079l0.056,0.081l0.055,0.083l0.053,0.084l0.052,0.085l0.051,0.087l0.048,0.089l0.047,0.09l0.046,0.092l0.043,0.094l0.042,0.096l0.039,0.096l0.037,0.099l0.035,0.101l0.032,0.102l0.029,0.104l0.027,0.105l0.024,0.108l0.022,0.108l0.017,0.11l0.015,0.111l0.012,0.112l0.008,0.113l0.004,0.113l0.001,0.115l-0.003,0.115l-0.007,0.115l-0.01,0.115l-0.014,0.113l-0.017,0.108l-0.019,0.105l-0.021,0.103l-0.024,0.101l-0.026,0.098l-0.028,0.098l-0.031,0.096l-0.031,0.094l-0.034,0.093l-0.035,0.093l-0.037,0.091l-0.038,0.09l-0.039,0.089l-0.042,0.088l-0.042,0.088l-0.044,0.086l-0.046,0.087l-0.046,0.085l-0.048,0.085l-0.049,0.085l-0.051,0.084l-0.052,0.083l-0.053,0.084l-0.054,0.082l-0.055,0.083l-0.057,0.082l-0.058,0.082l-0.059,0.081l-0.061,0.081l-0.061,0.081l-0.063,0.081l-0.064,0.08l-0.065,0.081l-0.066,0.08l-0.068,0.079l-0.069,0.079l-0.069,0.08l-0.071,0.079l-0.073,0.078l-0.073,0.078l-0.074,0.078l-0.076,0.078l-0.077,0.077l-0.078,0.078l-0.079,0.076l-0.08,0.077l-0.081,0.076l-0.083,0.076l-0.083,0.075l-0.085,0.075l-0.086,0.075l-0.087,0.075l-0.088,0.073l-0.089,0.074l-0.09,0.073l-0.091,0.073l-0.093,0.072l-0.093,0.071l-0.095,0.072l-0.095,0.07l-0.097,0.07l-0.098,0.07l-0.098,0.069l-0.1,0.068l-0.101,0.068l-0.102,0.067l-0.103,0.066l-0.104,0.066l-0.105,0.065l-0.107,0.065l-0.107,0.063l-0.108,0.063l-0.109,0.062l-0.11,0.061l-0.112,0.061l-0.112,0.06l-0.113,0.058l-0.114,0.058l-0.115,0.057l-0.117,0.056l-0.117,0.056l-0.118,0.054l-0.119,0.053l-0.12,0.052l-0.121,0.051l-0.122,0.05l-0.123,0.049l-0.124,0.048l-0.124,0.046l-0.126,0.046l-0.127,0.044l-0.127,0.043l-0.128,0.042l-0.13,0.04l-0.13,0.039l-0.131,0.038l-0.132,0.037l-0.133,0.035l-0.133,0.033l-0.135,0.032l-0.135,0.031l-0.136,0.029l-0.137,0.028l-0.138,0.026l-0.138,0.025l-0.139,0.023l-0.14,0.021l-0.141,0.019l-0.142,0.018l-0.142,0.016l-0.142,0.015l-0.144,0.012l-0.144,0.011l-0.145,0.009l-0.146,0.007l-0.146,0.005l-0.147,0.003l-0.147,0.001l-0.148,-0.001l-0.148,-0.003l-0.149,-0.005l-0.149,-0.007l-0.15,-0.009l-0.151,-0.011l-0.15,-0.014l-0.152,-0.015l-0.151,-0.018l-0.151,-0.02l-0.151,-0.022l-0.151,-0.025l-0.151,-0.026l-0.149,-0.028l-0.149,-0.03l-0.147,-0.032l-0.147,-0.035l-0.146,-0.035l-0.146,-0.038l-0.144,-0.04l-0.143,-0.041l-0.143,-0.043l-0.141,-0.045l-0.141,-0.046l-0.139,-0.048l-0.139,-0.049l-0.138,-0.051l-0.136,-0.053l-0.136,-0.054l-0.135,-0.055l-0.134,-0.057l-0.133,-0.059l-0.132,-0.059l-0.131,-0.061l-0.129,-0.062l-0.129,-0.064l-0.128,-0.065l-0.127,-0.066l-0.126,-0.067l-0.124,-0.068l-0.124,-0.069l-0.123,-0.071l-0.121,-0.071l-0.121,-0.072l-0.12,-0.074l-0.119,-0.075l-0.117,-0.075l-0.116,-0.076l-0.116,-0.077l-0.114,-0.079l-0.114,-0.079l-0.112,-0.079l-0.111,-0.081l-0.111,-0.081l-0.109,-0.082l-0.108,-0.083l-0.107,-0.084l-0.106,-0.084l-0.105,-0.085l-0.103,-0.085l-0.103,-0.086l-0.102,-0.087l-0.1,-0.087l-0.1,-0.088l-0.098,-0.088l-0.097,-0.089l-0.096,-0.089l-0.096,-0.09l-0.094,-0.09l-0.092,-0.091l-0.092,-0.091l-0.091,-0.091l-0.089,-0.092l-0.089,-0.092l-0.087,-0.092l-0.086,-0.093l-0.085,-0.093l-0.084,-0.093l-0.083,-0.093l-0.081,-0.094l-0.081,-0.094l-0.079,-0.094l-0.078,-0.095l-0.077,-0.094l-0.076,-0.095l-0.074,-0.094l-0.074,-0.095l-0.072,-0.095l-0.071,-0.095l-0.07,-0.096l-0.069,-0.095l-0.067,-0.095l-0.066,-0.096l-0.065,-0.095l-0.064,-0.095l-0.063,-0.096l-0.061,-0.095l-0.061,-0.096l-0.059,-0.096l-0.057,-0.095l-0.057,-0.096l-0.055,-0.095l-0.054,-0.096l-0.053,-0.095l-0.051,-0.096l-0.05,-0.096l-0.049,-0.095l-0.048,-0.096l-0.046,-0.096l-0.045,-0.096l-0.044,-0.095l-0.042,-0.097l-0.041,-0.096l-0.039,-0.096l-0.038,-0.097l-0.037,-0.096l-0.035,-0.097l-0.034,-0.098l-0.032,-0.098l-0.031,-0.098l-0.029,-0.099l-0.028,-0.099l-0.026,-0.1l-0.024,-0.1l-0.022,-0.101l-0.02,-0.103l-0.019,-0.103l-0.016,-0.104l-0.014,-0.106l-0.012,-0.106l-0.009,-0.108l-0.007,-0.11l-0.004,-0.112l0,-0.113l0.003,-0.115l0.006,-0.116l0.011,-0.119l0.234,-1.907l0.559,0l0.012,-0.017l0.066,-0.08l0.067,-0.078l0.069,-0.076l0.07,-0.075l0.071,-0.072l0.073,-0.07l0.073,-0.068l0.074,-0.066l0.076,-0.064l0.076,-0.063l0.077,-0.06l0.078,-0.059l0.079,-0.058l0.079,-0.056l0.08,-0.055l0.081,-0.053l0.082,-0.051l0.082,-0.051l0.083,-0.049l0.084,-0.047l0.084,-0.047l0.085,-0.045l0.086,-0.044l0.086,-0.044l0.087,-0.042l0.088,-0.041l0.088,-0.04l0.089,-0.039l0.09,-0.038l0.09,-0.037l0.091,-0.036l0.092,-0.035l0.092,-0.034l0.093,-0.034l0.093,-0.033l0.095,-0.032l0.094,-0.031l0.096,-0.03l0.096,-0.029l0.102,-0.03l0.191,-0.054l0.198,-0.053l0.201,-0.049l0.203,-0.046l0.206,-0.044l0.209,-0.041l0.211,-0.039l0.214,-0.035l0.217,-0.033l0.218,-0.031l0.222,-0.028l0.223,-0.025l0.226,-0.022l0.229,-0.021l0.231,-0.017l0.232,-0.015l0.236,-0.012l0.237,-0.01l0.239,-0.007l0.242,-0.005l0.243,-0.002l0.246,0Zm-0.432,4.157l-0.196,0.003l-0.193,0.006l-0.191,0.008l-0.188,0.01l-0.185,0.012l-0.182,0.014l-0.178,0.015l-0.175,0.018l-0.172,0.019l-0.168,0.021l-0.165,0.023l-0.16,0.025l-0.157,0.026l-0.152,0.028l-0.149,0.029l-0.143,0.03l-0.14,0.032l-0.134,0.033l-0.13,0.034l-0.13,0.037l-0.056,0.017l-0.059,0.018l-0.059,0.018l-0.056,0.019l-0.055,0.018l-0.054,0.019l-0.053,0.019l-0.051,0.019l-0.049,0.019l-0.049,0.02l-0.046,0.019l-0.046,0.019l-0.044,0.019l-0.042,0.019l-0.04,0.019l-0.039,0.019l-0.038,0.019l-0.035,0.018l-0.035,0.018l-0.032,0.018l-0.031,0.018l-0.029,0.017l-0.028,0.017l-0.026,0.017l-0.024,0.015l-0.022,0.016l-0.021,0.014l-0.004,0.003l0.002,0.006l0.01,0.034l0.011,0.035l0.013,0.038l0.013,0.039l0.015,0.042l0.017,0.043l0.017,0.045l0.019,0.046l0.021,0.048l0.021,0.049l0.023,0.051l0.025,0.052l0.025,0.053l0.027,0.054l0.029,0.055l0.029,0.057l0.031,0.057l0.032,0.058l0.034,0.06l0.034,0.06l0.036,0.06l0.038,0.062l0.038,0.062l0.04,0.063l0.04,0.064l0.042,0.063l0.044,0.065l0.044,0.065l0.046,0.066l0.046,0.066l0.048,0.066l0.049,0.066l0.05,0.067l0.051,0.068l0.052,0.067l0.053,0.068l0.055,0.067l0.055,0.068l0.056,0.068l0.058,0.068l0.058,0.069l0.059,0.068l0.061,0.068l0.061,0.068l0.062,0.068l0.063,0.068l0.064,0.068l0.065,0.067l0.066,0.068l0.067,0.067l0.067,0.067l0.069,0.067l0.069,0.066l0.07,0.066l0.071,0.066l0.071,0.065l0.073,0.065l0.073,0.065l0.074,0.064l0.075,0.064l0.075,0.063l0.076,0.062l0.077,0.063l0.077,0.061l0.078,0.061l0.079,0.06l0.079,0.06l0.08,0.059l0.08,0.058l0.082,0.058l0.081,0.057l0.082,0.056l0.083,0.055l0.083,0.055l0.084,0.054l0.084,0.052l0.085,0.052l0.085,0.052l0.086,0.05l0.086,0.049l0.087,0.049l0.086,0.047l0.088,0.047l0.087,0.045l0.088,0.045l0.089,0.043l0.089,0.043l0.089,0.041l0.089,0.041l0.089,0.039l0.09,0.038l0.09,0.037l0.091,0.036l0.09,0.035l0.091,0.034l0.092,0.032l0.091,0.032l0.091,0.03l0.092,0.029l0.092,0.028l0.092,0.026l0.092,0.025l0.092,0.024l0.093,0.023l0.093,0.022l0.092,0.02l0.093,0.019l0.093,0.017l0.094,0.017l0.093,0.014l0.094,0.014l0.094,0.013l0.093,0.011l0.093,0.009l0.093,0.008l0.092,0.007l0.092,0.006l0.092,0.004l0.092,0.003l0.091,0.002l0.091,0.001l0.092,-0.001l0.091,-0.002l0.09,-0.003l0.091,-0.004l0.09,-0.006l0.091,-0.007l0.089,-0.007l0.09,-0.009l0.09,-0.011l0.089,-0.011l0.089,-0.012l0.089,-0.014l0.089,-0.014l0.088,-0.016l0.089,-0.017l0.088,-0.017l0.087,-0.019l0.088,-0.02l0.087,-0.021l0.087,-0.022l0.086,-0.023l0.087,-0.023l0.086,-0.025l0.085,-0.026l0.085,-0.027l0.085,-0.027l0.085,-0.029l0.084,-0.029l0.084,-0.031l0.083,-0.031l0.083,-0.032l0.083,-0.033l0.082,-0.033l0.082,-0.035l0.081,-0.035l0.081,-0.036l0.08,-0.037l0.08,-0.037l0.079,-0.039l0.079,-0.039l0.078,-0.039l0.077,-0.041l0.077,-0.04l0.077,-0.042l0.076,-0.042l0.075,-0.043l0.074,-0.043l0.074,-0.044l0.073,-0.045l0.073,-0.044l0.072,-0.046l0.071,-0.046l0.07,-0.046l0.07,-0.047l0.069,-0.047l0.068,-0.047l0.067,-0.048l0.067,-0.048l0.065,-0.049l0.065,-0.049l0.064,-0.049l0.063,-0.049l0.063,-0.05l0.061,-0.049l0.06,-0.05l0.06,-0.05l0.058,-0.05l0.058,-0.05l0.057,-0.051l0.055,-0.05l0.055,-0.05l0.054,-0.05l0.052,-0.051l0.052,-0.05l0.05,-0.049l0.05,-0.05l0.048,-0.05l0.047,-0.049l0.046,-0.05l0.045,-0.048l0.043,-0.049l0.043,-0.048l0.041,-0.048l0.04,-0.047l0.039,-0.047l0.038,-0.046l0.036,-0.046l0.036,-0.045l0.033,-0.045l0.033,-0.043l0.031,-0.043l0.03,-0.043l0.028,-0.041l0.028,-0.04l0.026,-0.04l0.024,-0.038l0.023,-0.037l0.022,-0.037l0.02,-0.034l0.019,-0.034l0.017,-0.032l0.016,-0.03l0.015,-0.029l0.013,-0.027l0.006,-0.014l-0.01,-0.014l-0.015,-0.018l-0.016,-0.02l-0.017,-0.021l-0.019,-0.022l-0.021,-0.023l-0.022,-0.024l-0.023,-0.024l-0.025,-0.026l-0.026,-0.026l-0.029,-0.027l-0.029,-0.028l-0.031,-0.028l-0.032,-0.029l-0.034,-0.029l-0.035,-0.03l-0.037,-0.031l-0.039,-0.03l-0.039,-0.032l-0.041,-0.031l-0.043,-0.032l-0.044,-0.033l-0.045,-0.032l-0.047,-0.033l-0.048,-0.033l-0.049,-0.033l-0.051,-0.034l-0.052,-0.034l-0.05,-0.031l-0.115,-0.071l-0.115,-0.068l-0.121,-0.069l-0.125,-0.069l-0.13,-0.068l-0.135,-0.069l-0.139,-0.068l-0.144,-0.068l-0.147,-0.068l-0.152,-0.067l-0.156,-0.066l-0.16,-0.066l-0.164,-0.064l-0.167,-0.064l-0.172,-0.063l-0.174,-0.062l-0.178,-0.061l-0.182,-0.06l-0.185,-0.058l-0.188,-0.058l-0.19,-0.056l-0.194,-0.054l-0.197,-0.054l-0.2,-0.051l-0.202,-0.05l-0.205,-0.049l-0.208,-0.047l-0.21,-0.045l-0.212,-0.044l-0.214,-0.042l-0.217,-0.04l-0.219,-0.038l-0.221,-0.037l-0.223,-0.034l-0.225,-0.032l-0.225,-0.031l-0.223,-0.027l-0.222,-0.026l-0.221,-0.023l-0.219,-0.021l-0.217,-0.018l-0.216,-0.016l-0.214,-0.014l-0.213,-0.011l-0.21,-0.009l-0.208,-0.007l-0.206,-0.005l-0.203,-0.003l-0.202,0l-0.199,0.002Z" style="fill:#fff;"/></g><path d="M331.941,137.543c0.284,2.039 -3.732,7.48 -8.976,8.207c-5.238,0.73 -9.718,-3.522 -10.005,-5.559c-0.277,-2.039 3.74,-4.285 8.979,-5.015c5.239,-0.73 9.718,0.333 10.002,2.368l0,-0.001Z" style="fill:#fff;fill-rule:nonzero;stroke:#fff;stroke-width:2.08px;stroke-linecap:butt;stroke-linejoin:miter;"/><path d="M350.676,123.432c0.863,15.994 -3.445,26.888 -3.988,43.914c-0.804,24.748 11.799,53.074 -7.191,81.435" style="fill:none;stroke:#fff;stroke-width:12.47px;"/></g></svg>