<?xml version="1.0" encoding="UTF-8" standalone="no"?><!DOCTYPE svg PUBLIC "-//W3C//DTD SVG 1.1//EN" "http://www.w3.org/Graphics/SVG/1.1/DTD/svg11.dtd"><svg width="100%" height="100%" viewBox="0 0 84 85" version="1.1" xmlns="http://www.w3.org/2000/svg" xmlns:xlink="http://www.w3.org/1999/xlink" xml:space="preserve" style="fill-rule:evenodd;clip-rule:evenodd;stroke-linejoin:round;stroke-miterlimit:1.41421;"><path id="path1948" d="M41.189,0.001c-3.438,0.016 -6.721,0.309 -9.609,0.82c-8.51,1.503 -10.055,4.65 -10.055,10.453l0,7.664l20.109,0l0,2.555l-20.109,0l-7.547,0c-5.844,0 -10.962,3.513 -12.562,10.195c-1.847,7.66 -1.929,12.44 0,20.438c1.429,5.953 4.843,10.195 10.687,10.195l6.914,0l0,-9.187c0,-6.638 5.743,-12.493 12.563,-12.493l20.086,0c5.591,0 10.054,-4.603 10.054,-10.218l0,-19.149c0,-5.45 -4.597,-9.543 -10.054,-10.453c-3.455,-0.575 -7.039,-0.836 -10.477,-0.82Zm-10.875,6.164c2.077,0 3.774,1.724 3.774,3.844c0,2.112 -1.697,3.82 -3.774,3.82c-2.085,0 -3.773,-1.708 -3.773,-3.82c0,-2.12 1.688,-3.844 3.773,-3.844Z" style="fill:url(#_Linear1);fill-rule:nonzero;"/><path id="path1950" d="M64.228,21.493l0,8.93c0,6.923 -5.869,12.75 -12.562,12.75l-20.086,0c-5.502,0 -10.055,4.708 -10.055,10.218l0,19.149c0,5.45 4.739,8.655 10.055,10.218c6.365,1.872 12.469,2.21 20.086,0c5.062,-1.465 10.054,-4.415 10.054,-10.218l0,-7.664l-20.086,0l0,-2.555l30.141,0c5.844,0 8.022,-4.077 10.055,-10.195c2.099,-6.299 2.01,-12.357 0,-20.438c-1.445,-5.818 -4.203,-10.195 -10.055,-10.195l-7.547,0Zm-11.297,48.492c2.085,0 3.774,1.708 3.774,3.82c0,2.12 -1.689,3.844 -3.774,3.844c-2.077,0 -3.773,-1.724 -3.773,-3.844c0,-2.112 1.696,-3.82 3.773,-3.82Z" style="fill:url(#_Linear2);fill-rule:nonzero;"/><defs><linearGradient id="_Linear1" x1="0" y1="0" x2="1" y2="0" gradientUnits="userSpaceOnUse" gradientTransform="matrix(45.9946,39.9542,-39.9542,45.9946,6.5634e-08,5.70148e-08)"><stop offset="0%" style="stop-color:#5a9fd4;stop-opacity:1"/><stop offset="100%" style="stop-color:#306998;stop-opacity:1"/></linearGradient><linearGradient id="_Linear2" x1="0" y1="0" x2="1" y2="0" gradientUnits="userSpaceOnUse" gradientTransform="matrix(-16.4247,-23.4624,23.4624,-16.4247,52.448,73.161)"><stop offset="0%" style="stop-color:#ffd43b;stop-opacity:1"/><stop offset="100%" style="stop-color:#ffe873;stop-opacity:1"/></linearGradient></defs></svg>