<?xml version="1.0" encoding="UTF-8" standalone="no"?><!DOCTYPE svg PUBLIC "-//W3C//DTD SVG 1.1//EN" "http://www.w3.org/Graphics/SVG/1.1/DTD/svg11.dtd"><svg width="100%" height="100%" viewBox="0 0 149 149" version="1.1" xmlns="http://www.w3.org/2000/svg" xmlns:xlink="http://www.w3.org/1999/xlink" xml:space="preserve" style="fill-rule:evenodd;clip-rule:evenodd;stroke-linejoin:round;stroke-miterlimit:1.41421;"><g id="Layer-1"><clipPath id="_clip1"><path d="M30.285,148.185l109.852,-7.455l8.46,-110.767l-33.472,67.845l-84.84,50.377Z"/></clipPath><g clip-path="url(#_clip1)"><path d="M53.77,189.648l-45.446,-80.235l140.273,-79.45l45.446,80.235l-140.273,79.45Z" style="fill:url(#_Linear2);fill-rule:nonzero;"/></g><clipPath id="_clip3"><path d="M105.157,109.448l35.16,31.207l-9.442,-65.168l-25.718,33.961Z"/></clipPath><g clip-path="url(#_clip3)"><path d="M140.317,140.655l-38.682,-25.958l27.221,-40.564l38.682,25.958l-27.221,40.564Z" style="fill:url(#_Linear4);fill-rule:nonzero;"/></g><clipPath id="_clip5"><path d="M30.652,148.043l109.793,-7.388l-69.173,-5.43l-40.62,12.818Z"/></clipPath><g clip-path="url(#_clip5)"><path d="M102.936,196.55l-72.284,-48.507l37.509,-55.895l72.284,48.507l-37.509,55.895Z" style="fill:url(#_Linear6);fill-rule:nonzero;"/></g><clipPath id="_clip7"><path d="M10.005,99.578l20.745,48.48l17.28,-56.61l-38.025,8.13Z"/></clipPath><g clip-path="url(#_clip7)"><path d="M48.03,91.448l8.109,52.703l-38.367,5.904l-8.11,-52.704l38.368,-5.903Z" style="fill:url(#_Linear8);fill-rule:nonzero;"/></g><clipPath id="_clip9"><path d="M43.747,90.008l61.403,19.627l-15.9,-62.28l-45.503,42.653Z"/></clipPath><g clip-path="url(#_clip9)"><path d="M101.652,46.666l3.498,62.969l-60.127,3.34l-3.498,-62.969l60.127,-3.34Z" style="fill:url(#_Linear10);fill-rule:nonzero;"/></g><clipPath id="_clip11"><path d="M90,51.825l54.99,-3.592l-43.013,-35.13l-11.977,38.722Z"/></clipPath><g clip-path="url(#_clip11)"><path d="M135.057,5.427l9.933,42.806l-52.971,12.291l-9.933,-42.806l52.971,-12.291Z" style="fill:url(#_Linear12);fill-rule:nonzero;"/></g><clipPath id="_clip13"><path d="M83.617,0.39l41.258,0.188l-25.297,13.98l-15.961,-14.168Z"/></clipPath><g clip-path="url(#_clip13)"><path d="M83.617,0.39l32.931,-16.466l8.86,17.719l-32.932,16.465l-8.859,-17.718Z" style="fill:url(#_Linear14);fill-rule:nonzero;"/></g><clipPath id="_clip15"><path d="M2.025,76.215l-2.025,42.352l10.597,-19.327l-8.572,-23.025Z"/></clipPath><g clip-path="url(#_clip15)"><path d="M8.236,75.595l4.168,41.733l-12.404,1.239l-4.168,-41.733l12.404,-1.239Z" style="fill:url(#_Linear16);fill-rule:nonzero;"/></g><path d="M1.455,75.487l8.625,24.466l37.477,-8.408l42.788,-39.765l12.075,-38.355l-19.013,-13.425l-32.325,12.097c-10.185,9.473 -29.947,28.215 -30.66,28.568c-0.704,0.36 -13.05,23.693 -18.967,34.822Z" style="fill:#fff;"/><clipPath id="_clip17"><path d="M31.74,31.537c22.072,-21.884 50.527,-34.815 61.447,-23.797c10.913,11.018 -0.66,37.792 -22.732,59.67c-22.073,21.877 -50.175,35.52 -61.088,24.502c-10.92,-11.009 0.3,-38.497 22.373,-60.375Z"/></clipPath><g clip-path="url(#_clip17)"><path d="M-9.922,73.559l83.213,-85.567l38.645,37.583l-83.213,85.566l-38.645,-37.582Z" style="fill:url(#_Linear18);fill-rule:nonzero;"/></g><clipPath id="_clip19"><path d="M30.75,148.035l17.145,-56.79l56.94,18.292c-20.588,19.306 -43.485,35.625 -74.085,38.498Z"/></clipPath><g clip-path="url(#_clip19)"><path d="M91.625,163.059l-60.875,-15.024l14.196,-57.518l60.875,15.025l-14.196,57.517Z" style="fill:url(#_Linear20);fill-rule:nonzero;"/></g><clipPath id="_clip21"><path d="M90.42,51.668l14.617,57.899c17.198,-18.082 32.633,-37.522 40.193,-61.567l-54.81,3.668Z"/></clipPath><g clip-path="url(#_clip21)"><path d="M105.587,110.06l-37.433,-33.55l48.505,-54.118l37.432,33.55l-48.504,54.118Z" style="fill:url(#_Linear22);fill-rule:nonzero;"/></g><clipPath id="_clip23"><path d="M145.08,48.293c5.85,-17.655 7.2,-42.983 -20.385,-47.685l-22.635,12.502l43.02,35.183Z"/></clipPath><g clip-path="url(#_clip23)"><path d="M139.687,53.337l-37.627,-40.227l30.676,-28.694l37.627,40.227l-30.676,28.694Z" style="fill:url(#_Linear24);fill-rule:nonzero;"/></g><path d="M0,118.312c0.81,29.138 21.832,29.573 30.787,29.828l-20.685,-48.308l-10.102,18.48Z" style="fill:#9e1209;"/><path d="M90.502,51.758c13.215,8.122 39.848,24.434 40.388,24.735c0.84,0.472 11.482,-17.948 13.897,-28.358l-54.285,3.623Z" style="fill:url(#_Radial25);"/><path d="M47.872,91.245l22.92,44.22c13.553,-7.35 24.165,-16.305 33.885,-25.898l-56.805,-18.322Z" style="fill:url(#_Radial26);"/><clipPath id="_clip27"><path d="M10.012,99.892l-3.247,38.67c6.127,8.371 14.557,9.098 23.4,8.446c-6.398,-15.923 -19.178,-47.76 -20.153,-47.116Z"/></clipPath><g clip-path="url(#_clip27)"><path d="M10.926,152.678l-14.485,-49.143l19.239,-5.671l14.485,49.144l-19.239,5.67Z" style="fill:url(#_Linear28);fill-rule:nonzero;"/></g><clipPath id="_clip29"><path d="M101.925,13.207l45.532,6.39c-2.43,-10.297 -9.892,-16.942 -22.612,-19.019l-22.92,12.629Z"/></clipPath><g clip-path="url(#_clip29)"><path d="M111.635,-8.791l40.468,17.864l-9.71,21.998l-40.468,-17.864l9.71,-21.998Z" style="fill:url(#_Linear30);fill-rule:nonzero;"/></g></g><defs><linearGradient id="_Linear2" x1="0" y1="0" x2="1" y2="0" gradientUnits="userSpaceOnUse" gradientTransform="matrix(-31.35,-55.35,55.35,-31.35,130.553,161.659)"><stop offset="0%" style="stop-color:#fb7655;stop-opacity:1"/><stop offset="100%" style="stop-color:#900;stop-opacity:1"/></linearGradient><linearGradient id="_Linear4" x1="0" y1="0" x2="1" y2="0" gradientUnits="userSpaceOnUse" gradientTransform="matrix(-40.4017,-27.1119,27.1119,-40.4017,146.171,115.167)"><stop offset="0%" style="stop-color:#871101;stop-opacity:1"/><stop offset="100%" style="stop-color:#911209;stop-opacity:1"/></linearGradient><linearGradient id="_Linear6" x1="0" y1="0" x2="1" y2="0" gradientUnits="userSpaceOnUse" gradientTransform="matrix(-40.4017,-27.1119,27.1119,-40.4017,113.845,163.337)"><stop offset="0%" style="stop-color:#871101;stop-opacity:1"/><stop offset="100%" style="stop-color:#911209;stop-opacity:1"/></linearGradient><linearGradient id="_Linear8" x1="0" y1="0" x2="1" y2="0" gradientUnits="userSpaceOnUse" gradientTransform="matrix(6.26324,40.7047,-40.7047,6.26324,29.0222,95.5437)"><stop offset="0%" style="stop-color:#fff;stop-opacity:1"/><stop offset="21%" style="stop-color:#e6795a;stop-opacity:1"/><stop offset="100%" style="stop-color:#a60003;stop-opacity:1"/></linearGradient><linearGradient id="_Linear10" x1="0" y1="0" x2="1" y2="0" gradientUnits="userSpaceOnUse" gradientTransform="matrix(2.30775,41.5425,-41.5425,2.30775,72.0992,57.5332)"><stop offset="0%" style="stop-color:#fff;stop-opacity:1"/><stop offset="21%" style="stop-color:#e57857;stop-opacity:1"/><stop offset="56%" style="stop-color:#be1a0d;stop-opacity:1"/><stop offset="100%" style="stop-color:#a80d00;stop-opacity:1"/></linearGradient><linearGradient id="_Linear12" x1="0" y1="0" x2="1" y2="0" gradientUnits="userSpaceOnUse" gradientTransform="matrix(6.90827,29.7713,-29.7713,6.90827,110.328,19.1426)"><stop offset="0%" style="stop-color:#fff;stop-opacity:1"/><stop offset="18%" style="stop-color:#e36140;stop-opacity:1"/><stop offset="100%" style="stop-color:#a80d00;stop-opacity:1"/></linearGradient><linearGradient id="_Linear14" x1="0" y1="0" x2="1" y2="0" gradientUnits="userSpaceOnUse" gradientTransform="matrix(29.7705,-14.8853,14.8853,29.7705,89.2321,8.65686)"><stop offset="0%" style="stop-color:#fff;stop-opacity:1"/><stop offset="53%" style="stop-color:#c92315;stop-opacity:1"/><stop offset="100%" style="stop-color:#bf0905;stop-opacity:1"/></linearGradient><linearGradient id="_Linear16" x1="0" y1="0" x2="1" y2="0" gradientUnits="userSpaceOnUse" gradientTransform="matrix(2.45027,24.5325,-24.5325,2.45027,2.92785,85.1664)"><stop offset="0%" style="stop-color:#fff;stop-opacity:1"/><stop offset="31%" style="stop-color:#de4024;stop-opacity:1"/><stop offset="100%" style="stop-color:#bf190b;stop-opacity:1"/></linearGradient><linearGradient id="_Linear18" x1="0" y1="0" x2="1" y2="0" gradientUnits="userSpaceOnUse" gradientTransform="matrix(115.181,-118.438,118.438,115.181,-13.9204,116.332)"><stop offset="0%" style="stop-color:#bd0012;stop-opacity:1"/><stop offset="6%" style="stop-color:#f8e4e6;stop-opacity:1"/><stop offset="9%" style="stop-color:#fff;stop-opacity:1"/><stop offset="15%" style="stop-color:#fff;stop-opacity:1"/><stop offset="18%" style="stop-color:#f5dbd7;stop-opacity:1"/><stop offset="25%" style="stop-color:#d35949;stop-opacity:1"/><stop offset="28%" style="stop-color:#bb2817;stop-opacity:1"/><stop offset="31%" style="stop-color:#961609;stop-opacity:1"/><stop offset="34%" style="stop-color:#850d01;stop-opacity:1"/><stop offset="100%" style="stop-color:#e82609;stop-opacity:1"/></linearGradient><linearGradient id="_Linear20" x1="0" y1="0" x2="1" y2="0" gradientUnits="userSpaceOnUse" gradientTransform="matrix(-34.6905,-8.56191,8.56191,-34.6905,74.3075,128.275)"><stop offset="0%" style="stop-color:#8c0c01;stop-opacity:1"/><stop offset="100%" style="stop-color:#a80d0e;stop-opacity:1"/></linearGradient><linearGradient id="_Linear22" x1="0" y1="0" x2="1" y2="0" gradientUnits="userSpaceOnUse" gradientTransform="matrix(-30.8204,-27.6234,27.6234,-30.8204,133.894,86.6353)"><stop offset="0%" style="stop-color:#7e110b;stop-opacity:1"/><stop offset="100%" style="stop-color:#9e0c00;stop-opacity:1"/></linearGradient><linearGradient id="_Linear24" x1="0" y1="0" x2="1" y2="0" gradientUnits="userSpaceOnUse" gradientTransform="matrix(-15.3525,-16.413,16.413,-15.3525,145.217,35.9524)"><stop offset="0%" style="stop-color:#79130d;stop-opacity:1"/><stop offset="100%" style="stop-color:#9e120b;stop-opacity:1"/></linearGradient><radialGradient id="_Radial25" cx="0" cy="0" r="1" gradientUnits="userSpaceOnUse" gradientTransform="matrix(37.77,0,0,37.77,107.872,59.5426)"><stop offset="0%" style="stop-color:#a80d00;stop-opacity:1"/><stop offset="100%" style="stop-color:#7e0e08;stop-opacity:1"/></radialGradient><radialGradient id="_Radial26" cx="0" cy="0" r="1" gradientUnits="userSpaceOnUse" gradientTransform="matrix(50.2102,0,0,50.2102,55.5674,109.312)"><stop offset="0%" style="stop-color:#a30c00;stop-opacity:1"/><stop offset="100%" style="stop-color:#800e08;stop-opacity:1"/></radialGradient><linearGradient id="_Linear28" x1="0" y1="0" x2="1" y2="0" gradientUnits="userSpaceOnUse" gradientTransform="matrix(-12.5116,-42.4477,42.4477,-12.5116,20.0032,148.004)"><stop offset="0%" style="stop-color:#8b2114;stop-opacity:1"/><stop offset="100%" style="stop-color:#b3100c;stop-opacity:1"/></linearGradient><linearGradient id="_Linear30" x1="0" y1="0" x2="1" y2="0" gradientUnits="userSpaceOnUse" gradientTransform="matrix(28.05,12.3818,-12.3818,28.05,115.982,7.34876)"><stop offset="0%" style="stop-color:#b31000;stop-opacity:1"/><stop offset="100%" style="stop-color:#791c12;stop-opacity:1"/></linearGradient></defs></svg>