<?xml version="1.0" encoding="UTF-8" standalone="no"?><!DOCTYPE svg PUBLIC "-//W3C//DTD SVG 1.1//EN" "http://www.w3.org/Graphics/SVG/1.1/DTD/svg11.dtd"><svg width="100%" height="100%" viewBox="0 0 106 100" version="1.1" xmlns="http://www.w3.org/2000/svg" xmlns:xlink="http://www.w3.org/1999/xlink" xml:space="preserve" style="fill-rule:evenodd;clip-rule:evenodd;stroke-linejoin:round;stroke-miterlimit:1.41421;"><g><path d="M41.974,9.058c1.583,-5.722 7.62,-9.765 13.53,-8.955c6.218,0.57 11.355,6.375 11.168,12.615c0.105,2.745 -1.163,5.228 -2.453,7.553c7.305,6.87 14.625,13.725 21.953,20.572c2.82,-1.98 6.27,-3.345 9.757,-2.61c5.94,0.87 10.545,6.773 9.9,12.75c-0.352,5.85 -5.595,10.86 -11.46,10.943c-2.985,0.24 -5.715,-1.148 -8.137,-2.723c-7.335,6.855 -14.648,13.725 -21.975,20.588c2.94,4.327 3.345,10.365 0.21,14.707c-3.585,5.505 -11.685,7.185 -17.145,3.518c-4.808,-2.903 -6.848,-9.038 -5.415,-14.37c-6.938,-3.233 -13.898,-6.413 -20.843,-9.623c-2.302,3.159 -5.85,5.663 -9.915,5.475c-5.985,0.105 -11.332,-5.302 -11.137,-11.287c-0.128,-5.67 4.68,-10.86 10.335,-11.183c2.332,-0.315 4.552,0.6 6.682,1.418c2.183,-2.828 4.358,-5.663 6.54,-8.49c-2.175,-2.82 -4.335,-5.648 -6.517,-8.453c-5.273,3.008 -12.63,1.283 -15.555,-4.155c-3.563,-5.767 -0.45,-14.16 6,-16.215c4.995,-1.935 10.642,0.473 13.529,4.778c6.961,-3.21 13.928,-6.413 20.881,-9.645c-0.39,-2.378 -0.728,-4.868 0.067,-7.208Zm9.105,-5.88c-4.575,1.358 -7.665,6.345 -6.787,11.055c0.72,5.168 6.045,9.083 11.197,8.19c5.505,-0.637 9.608,-6.51 8.25,-11.902c-1.027,-5.535 -7.327,-9.203 -12.66,-7.343Zm-28.95,25.215c0.39,2.198 0.383,4.44 0.023,6.645c3.225,1.403 6.442,2.813 9.667,4.215c4.47,-5.835 8.97,-11.655 13.44,-17.49c-0.75,-1.005 -1.507,-2.01 -2.25,-3.022c-6.952,3.24 -13.927,6.412 -20.88,9.652Zm25.245,-4.942c-4.327,5.647 -8.67,11.28 -13.012,16.912c2.827,1.238 5.655,2.483 8.482,3.713c2.588,-4.283 7.44,-7.313 12.563,-6.615c5.857,0.48 10.417,5.527 11.257,11.19c5.108,0.015 10.215,0 15.323,0.007c0.525,-2.04 1.29,-4.005 2.302,-5.857c-7.305,-6.863 -14.617,-13.703 -21.93,-20.55c-4.245,3.382 -10.252,3.915 -14.985,1.2Zm-26.392,14.017c-0.593,0.795 -1.185,1.583 -1.785,2.37c2.025,2.633 4.042,5.265 6.067,7.898c1.62,-2.085 3.233,-4.178 4.838,-6.278c-3.038,-1.335 -6.083,-2.655 -9.12,-3.99Zm69.84,2.415c-4.665,1.365 -7.958,6.248 -7.41,11.085c0.375,5.7 5.992,10.313 11.662,9.548c5.955,-0.473 10.575,-6.675 9.263,-12.518c-0.975,-6 -7.748,-10.095 -13.515,-8.115Zm-40.418,0.908c-4.485,1.702 -7.2,6.93 -5.955,11.58c1.133,5.062 6.675,8.565 11.738,7.312c5.392,-1.042 9.06,-7.095 7.417,-12.352c-1.372,-5.513 -7.98,-8.805 -13.2,-6.54Zm-23.422,9.165c1.89,2.46 3.787,4.92 5.685,7.38c3.045,-1.335 6.09,-2.648 9.127,-3.998c-0.345,-2.242 -0.337,-4.522 0.023,-6.757c-3.045,-1.343 -6.098,-2.663 -9.15,-3.99c-1.898,2.452 -3.795,4.905 -5.685,7.365Zm29.152,12.48c-5.347,1.042 -10.642,-2.033 -13.327,-6.578c-2.813,1.23 -5.625,2.46 -8.438,3.69c4.343,5.67 8.708,11.325 13.065,16.988c4.748,-2.693 10.763,-2.175 14.993,1.267c7.289,-6.855 14.602,-13.687 21.9,-20.535c-1.02,-1.875 -1.793,-3.862 -2.355,-5.91c-5.093,-0.007 -10.193,-0.015 -15.285,0c-0.87,5.393 -4.995,10.283 -10.553,11.078Zm-36.982,-2.31c0.6,0.772 1.2,1.552 1.807,2.325c3.045,-1.328 6.09,-2.663 9.135,-4.005c-1.597,-2.1 -3.21,-4.185 -4.83,-6.27c-2.04,2.647 -4.072,5.302 -6.112,7.95Zm2.985,4.762c0.382,2.205 0.39,4.448 0.022,6.66c6.953,3.233 13.928,6.405 20.873,9.638c0.757,-0.998 1.522,-1.988 2.287,-2.978c-4.515,-5.835 -9.007,-11.692 -13.5,-17.535c-3.232,1.403 -6.457,2.798 -9.682,4.215Zm29.812,12.81c-4.065,0.84 -7.35,4.485 -7.725,8.625c-0.772,5.565 4.05,11.018 9.668,10.95c5.505,0.27 10.455,-4.815 10.072,-10.312c-0.06,-5.94 -6.255,-10.717 -12.015,-9.263Z" style="fill-rule:nonzero;"/></g></svg>