<?xml version="1.0" encoding="UTF-8" standalone="no"?><!DOCTYPE svg PUBLIC "-//W3C//DTD SVG 1.1//EN" "http://www.w3.org/Graphics/SVG/1.1/DTD/svg11.dtd"><svg width="100%" height="100%" viewBox="0 0 1274 1451" version="1.1" xmlns="http://www.w3.org/2000/svg" xmlns:xlink="http://www.w3.org/1999/xlink" xml:space="preserve" style="fill-rule:evenodd;clip-rule:evenodd;stroke-linejoin:round;stroke-miterlimit:1.41421;"><path d="M0,0l1273.06,0l-113.791,1301.51l-519.184,149.354l-533.41,-149.354l-106.678,-1301.51Z" style="fill:#1673ba;"/><path d="M640.441,125.991l0,1198.82l428.834,-123.362l94.028,-1075.46l-522.862,0Z" style="fill:#1b88c7;"/><path d="M248.919,434.044l384.056,-0.21l-376.941,163.578l21.335,149.354l554.744,0l-21.335,213.359l-187.6,35.272l-168.006,-42.381l-14.222,-120.903l-156.466,0l21.335,248.924l334.269,92.457l320.043,-99.572l42.706,-489.816l-342.546,0l371.862,-152.115l0,-154.622l-804.569,0l21.335,156.675Z" style="fill:#fff;"/></svg>