<?xml version="1.0" standalone="no"?><!DOCTYPE svg PUBLIC "-//W3C//DTD SVG 1.1//EN" "http://www.w3.org/Graphics/SVG/1.1/DTD/svg11.dtd"><svg width="100%" height="100%" viewBox="0 0 835 835" version="1.1" xmlns="http://www.w3.org/2000/svg" xmlns:xlink="http://www.w3.org/1999/xlink" xml:space="preserve" style="fill-rule:evenodd;clip-rule:evenodd;stroke-linejoin:round;stroke-miterlimit:1.41421;"><path d="M788.009,0l-741.975,0c-25.431,0 -46.034,20.603 -46.034,46.031l0,741.982c0,25.421 20.603,46.031 46.034,46.031l399.453,0l0,-322.985l-108.69,0l0,-125.875l108.69,0l0,-92.828c0,-107.728 65.794,-166.387 161.897,-166.387c46.032,0 85.594,3.428 97.129,4.959l0,112.581l-66.657,0.032c-52.262,0 -62.381,24.834 -62.381,61.278l0,80.365l124.644,0l-16.232,125.875l-108.412,0l0,322.985l212.534,0c25.422,0 46.032,-20.61 46.032,-46.031l0,-741.982c0,-25.428 -20.61,-46.031 -46.032,-46.031Z" style="fill:#3b5a9b;fill-rule:nonzero;"/></svg>