<?xml version="1.0" encoding="UTF-8" standalone="no"?><!DOCTYPE svg PUBLIC "-//W3C//DTD SVG 1.1//EN" "http://www.w3.org/Graphics/SVG/1.1/DTD/svg11.dtd"><svg width="100%" height="100%" viewBox="0 0 705 800" version="1.1" xmlns="http://www.w3.org/2000/svg" xmlns:xlink="http://www.w3.org/1999/xlink" xml:space="preserve" style="fill-rule:evenodd;clip-rule:evenodd;stroke-linejoin:round;stroke-miterlimit:1.41421;"><path d="M64.153,719.556l-64.153,-719.556l704.938,0l-64.222,719.444l-288.678,80.031l-287.885,-79.919Z" style="fill:#e44e26;fill-rule:nonzero;"/><path d="M352.469,738.303l233.265,-64.672l54.882,-614.797l-288.147,0l0,679.469Z" style="fill:#f16529;fill-rule:nonzero;"/><path d="M352.469,325.706l-116.778,0l-8.066,-90.368l124.844,0l0,-88.254l-0.303,0l-220.988,0l2.113,23.679l21.69,243.193l197.488,0l0,-88.25Z" style="fill:#ebebec;fill-rule:nonzero;"/><path d="M352.469,554.903l-0.388,0.103l-98.284,-26.537l-6.284,-70.385l-47.757,0l-40.834,0l12.366,138.566l180.775,50.188l0.406,-0.119l0,-91.816Z" style="fill:#ebebec;fill-rule:nonzero;"/><path d="M352.166,325.706l0,88.25l108.668,0l-10.243,114.457l-98.425,26.565l0,91.816l180.915,-50.144l1.328,-14.909l20.741,-232.338l2.153,-23.697l-23.781,0l-181.356,0Z" style="fill:#fff;fill-rule:nonzero;"/><path d="M352.166,147.084l0,88.254l213.165,0l1.769,-19.838l4.022,-44.737l2.112,-23.679l-221.068,0Z" style="fill:#fff;fill-rule:nonzero;"/></svg>