<?xml version="1.0" encoding="UTF-8" standalone="no"?><!DOCTYPE svg PUBLIC "-//W3C//DTD SVG 1.1//EN" "http://www.w3.org/Graphics/SVG/1.1/DTD/svg11.dtd"><svg width="100%" height="100%" viewBox="0 0 39 39" version="1.1" xmlns="http://www.w3.org/2000/svg" xmlns:xlink="http://www.w3.org/1999/xlink" xml:space="preserve" style="fill-rule:evenodd;clip-rule:evenodd;stroke-linejoin:round;stroke-miterlimit:1.41421;"><rect x="0" y="0" width="38.44" height="38.44"/><rect x="3.316" y="31.232" width="14.415" height="2.402" style="fill:#fff;"/><g><path d="M5.355,11.178c0.635,0.028 1.255,-0.202 1.719,-0.636c0.443,-0.475 0.667,-1.115 0.617,-1.763l0,-3.974l-1.727,0l0,3.965c0.01,0.048 0.015,0.098 0.015,0.147c0,0.397 -0.325,0.726 -0.722,0.73c-0.402,-0.026 -0.768,-0.243 -0.985,-0.582l-1.118,1.056c0.507,0.702 1.337,1.1 2.201,1.057Z" style="fill:#fff;fill-rule:nonzero;"/><path d="M13.178,9.593l-3.366,0l0,-0.993l3.008,0l0,-1.369l-3.008,0l0,-0.958l3.321,0l0,-1.468l-5.039,0l0,6.265l5.084,0l0,-1.477Z" style="fill:#fff;fill-rule:nonzero;"/><path d="M15.403,11.07l1.736,0l0,-4.743l1.88,0l0,-1.522l-5.487,0l0,1.522l1.871,0l0,4.743Z" style="fill:#fff;fill-rule:nonzero;"/><path d="M7.673,15.524c0.588,-0.208 0.98,-0.773 0.967,-1.396l0,-0.018c0.009,-0.381 -0.136,-0.749 -0.403,-1.021c-0.473,-0.404 -1.088,-0.604 -1.709,-0.554l-3.213,0l0,6.265l3.231,0c1.494,0 2.372,-0.654 2.372,-1.728l0,-0.018c0.017,-0.743 -0.513,-1.395 -1.245,-1.53l0,0Zm-2.667,-1.593l1.137,0c0.51,0 0.788,0.188 0.788,0.537l0,0.018c0,0.367 -0.305,0.546 -0.833,0.546l-1.092,0l0,-1.101Zm2.175,2.9c0,0.367 -0.295,0.573 -0.832,0.573l-1.343,0l0,-1.155l1.325,0c0.582,0 0.85,0.224 0.85,0.564l0,0.018l0,0Z" style="fill:#fff;fill-rule:nonzero;"/><path d="M16.767,12.49l-2.341,5.557l-0.98,-1.431c0.8,-0.299 1.321,-1.081 1.289,-1.933l0,-0.018c0.026,-0.542 -0.176,-1.071 -0.555,-1.459c-0.562,-0.489 -1.298,-0.731 -2.04,-0.671l-2.963,0l0,6.265l1.736,0l0,-1.898l0.77,0l1.262,1.898l1.996,0l0,0l0.984,0l0.448,-1.128l2.425,0l0.448,1.128l1.862,0l-2.668,-6.31l-1.673,0Zm-3.768,2.309c-0.017,0.42 -0.366,0.756 -0.787,0.756c-0.048,0 -0.096,-0.004 -0.144,-0.013l-1.155,0l0,-1.513l1.146,0c0.052,-0.01 0.105,-0.016 0.158,-0.016c0.424,0 0.774,0.344 0.782,0.768l0,0.018Zm3.884,1.522l0.707,-1.773l0.698,1.773l-1.405,0l0,0Z" style="fill:#fff;fill-rule:nonzero;"/><rect x="21.313" y="12.535" width="1.736" height="6.265" style="fill:#fff;"/><path d="M27.677,15.846l-2.578,-3.311l-1.62,0l0,6.265l1.718,0l0,-3.437l2.686,3.437l1.512,0l0,-6.265l-1.718,0l0,3.311Z" style="fill:#fff;fill-rule:nonzero;"/><path d="M32.646,14.897c-0.878,-0.196 -1.092,-0.322 -1.092,-0.608l0,-0.018c0,-0.233 0.205,-0.403 0.626,-0.403c0.634,0.02 1.247,0.236 1.754,0.618l0.869,-1.226c-0.734,-0.573 -1.648,-0.868 -2.578,-0.833c-1.504,0 -2.426,0.842 -2.426,2.005l0,0.018c0,1.28 1.03,1.656 2.363,1.96c0.859,0.206 1.065,0.34 1.065,0.609l0,0.018c0,0.268 -0.25,0.429 -0.725,0.429c-0.743,-0.01 -1.46,-0.276 -2.031,-0.752l-0.967,1.155c0.819,0.693 1.863,1.062 2.936,1.038c1.521,0 2.533,-0.761 2.533,-2.04l0,-0.018c0,-1.173 -0.895,-1.638 -2.327,-1.952Z" style="fill:#fff;fill-rule:nonzero;"/></g></svg>