<?xml version="1.0" standalone="no"?><!DOCTYPE svg PUBLIC "-//W3C//DTD SVG 1.1//EN" "http://www.w3.org/Graphics/SVG/1.1/DTD/svg11.dtd"><svg width="100%" height="100%" viewBox="0 0 113 113" version="1.1" xmlns="http://www.w3.org/2000/svg" xmlns:xlink="http://www.w3.org/1999/xlink" xml:space="preserve" style="fill-rule:evenodd;clip-rule:evenodd;stroke-linejoin:round;stroke-miterlimit:1.41421;"><path d="M104.172,0l-95.875,0c-4.578,0 -8.297,3.634 -8.297,8.112l0,96.272c0,4.478 3.719,8.116 8.297,8.116l95.875,0c4.587,0 8.325,-3.638 8.325,-8.116l0,-96.272c0,-4.478 -3.738,-8.112 -8.325,-8.112Z" style="fill:#007bb6;fill-rule:nonzero;"/><path d="M25.022,15.491c5.337,0 9.672,4.334 9.672,9.675c0,5.34 -4.335,9.675 -9.672,9.675c-5.359,0 -9.678,-4.335 -9.678,-9.675c0,-5.341 4.319,-9.675 9.678,-9.675ZM16.666,42.178l16.703,0l0,53.684l-16.703,0l0,-53.684Z" style="fill:#fff;fill-rule:nonzero;"/><path d="M43.838,42.178l15.993,0l0,7.338l0.228,0c2.225,-4.219 7.669,-8.672 15.788,-8.672c16.894,0 20.016,11.115 20.016,25.575l0,29.443l-16.685,0l0,-26.106c0,-6.225 -0.106,-14.234 -8.669,-14.234c-8.681,0 -10.006,6.784 -10.006,13.787l0,26.553l-16.665,0l0,-53.684Z" style="fill:#fff;fill-rule:nonzero;"/></svg>