<?xml version="1.0" encoding="UTF-8" standalone="no"?><!DOCTYPE svg PUBLIC "-//W3C//DTD SVG 1.1//EN" "http://www.w3.org/Graphics/SVG/1.1/DTD/svg11.dtd"><svg width="100%" height="100%" viewBox="0 0 14 14" version="1.1" xmlns="http://www.w3.org/2000/svg" xmlns:xlink="http://www.w3.org/1999/xlink" xml:space="preserve" style="fill-rule:evenodd;clip-rule:evenodd;stroke-linejoin:round;stroke-miterlimit:1.41421;"><path d="M2.715,5.842c1.08,2.123 2.82,3.855 4.943,4.943l1.65,-1.65c0.202,-0.202 0.502,-0.27 0.764,-0.18c0.841,0.277 1.748,0.428 2.678,0.428c0.413,-0.001 0.75,0.337 0.75,0.749l0,2.618c0,0.412 -0.337,0.75 -0.75,0.75c-7.043,0 -12.75,-5.708 -12.75,-12.75c0,-0.413 0.338,-0.75 0.75,-0.75l2.625,0c0.413,0 0.75,0.337 0.75,0.75c0,0.937 0.15,1.837 0.428,2.677c0.082,0.263 0.022,0.555 -0.188,0.765l-1.65,1.65Z" style="fill:#607d8b;fill-rule:nonzero;"/></svg>