<?xml version="1.0" standalone="no"?><!DOCTYPE svg PUBLIC "-//W3C//DTD SVG 1.1//EN" "http://www.w3.org/Graphics/SVG/1.1/DTD/svg11.dtd"><svg width="100%" height="100%" viewBox="0 0 750 1000" version="1.1" xmlns="http://www.w3.org/2000/svg" xmlns:xlink="http://www.w3.org/1999/xlink" xml:space="preserve" style="fill-rule:evenodd;clip-rule:evenodd;stroke-linejoin:round;stroke-miterlimit:1.41421;"><g id="peau"><path d="M499.814,511.43c-35.369,175.239 -226.103,173.732 -254.846,2.286l-7.006,-5.478l-4.794,-6.05l-3.619,-9.023l-4.213,-8.49l-5.606,-13.409l-0.697,-11.157l-3.405,-6.902l-3.117,-9.449l1.407,-33.447l9.48,-120.793l90.869,-60.321l110.184,5.321l71.932,18.807l19.815,61.077l-7.755,90.116l10.091,-1.306l6.928,4.543l-1.262,12.293l0,10.619l-0.139,15.664l-2.958,8.602l-1.263,10.803l-9.724,22.567l-1.263,7.089l-4.953,12.522l-4.086,3.516Z" style="fill:#c78d7a;"/><path d="M265.406,574.717c54.743,93.559 160.524,82.994 210.036,1.429l1.974,25.267l6.83,63.79l-2.129,62.243l-70.475,56.372l-69.616,3.144l-78.014,-65.116l-11.817,-88.494l7.013,-13.44l6.198,-45.195Z" style="fill:#bb7e6b;"/></g><g id="chemise"><path d="M-0.004,743.986l225.652,-93.17l6.196,-7.606l10.957,-20.166l19.599,-26.457l-5.033,23.246l7.325,56.77l33.213,53.518l30.677,19.859l17.014,2.696l17.647,8.841l6.518,14.734l22.206,1.399l26.784,-6.856l15.64,-12.645l9.273,-9.589l20.463,-29.063l12,-17.277l2.229,-37.418l2.566,-20.386l-1.223,-37.242l31.447,58.24l181.729,92.407l57.816,36.051l0.229,206.693l-752.001,0.593l1.077,-257.172Z" style="fill:#4f3e62;"/><g id="col"><path d="M262.419,596.503l-2.02,23.423l2.515,29.562l1.587,16.561l5.017,14.881l15.799,26.892l13.91,18.842l29.422,23.028l-1.131,2.669l-32.54,32.824l-33.181,30.499l-4.275,-7.677l-9.198,-34.035l-9.948,-18.092l-9.628,-23.267l-5.254,-24.349l-2.433,-23.622l0.727,-18.375l5.673,-14.32l7.967,-19.668l9.868,-17.136l10.262,-15.194l6.861,-3.446Z" style="fill:#423651;"/><path d="M477.495,602.17l2.865,29.292l-2.501,25.195l-2.095,12.549l0.486,12.643l-0.999,19.874l-8.534,11.063l-11.036,15.283l-19.476,28.362l-2.762,8.983l8.175,4.679l8.266,8.049l9.834,15.742l16.715,24.604l16.824,16.654l5.264,-5.531l6.613,-16.715l8.267,-29.408l1.991,-19.781l-0.875,-19.147l0,-22.161l0.595,-22.727l-1.323,-19.069l-4.279,-15.645l-9.227,-21.785l-12.251,-25.928l-7.406,-12.839l-3.131,-2.236Z" style="fill:#423651;"/></g></g><path id="cheveux" d="M507.758,429.534l-9.588,-8.54l-0.886,-14.26l-0.395,-12.947l-2.105,-15.617l1.047,-13.802l-2.078,-11.749l-2.053,-9.686l-0.908,-13.302l1.9,-14.985l2.082,-14.45l-6.284,-10.08l-9.307,-13.04l-10.017,-7.932l-14.081,-2.568l-22.568,0.823l-21.735,2.83l-22.631,-3.204l-29.821,2.537l-25.431,-6.272l-19.857,1.473l-18.384,0.726l-21.858,8.339l-10.82,1.738l-9.736,9.961l-9.862,12.426l-0.114,9.565l2.201,24.687l-0.136,28.112l0.759,29.587l-1.419,25.96l-1.333,25.069l-8.657,-2.052l-2.363,-13.685l-7.384,-5.966l-4.978,-7.244l-8.782,-7.716l-1.87,-9.432l-2.354,-11.636l-1.537,-15.574l0,-21.56l1.337,-14.584l0.473,-16.027l3.149,-14.787l1.78,-18.312l4.412,-13.647l6.457,-13.999l2.62,-17.882l3.762,-7.364l7.384,-5.632l5.512,-10.043l7.245,-6.142l5.495,-11.619l14.295,-5.039l8.505,-4.69l9.411,-9.431l5.199,-4.568l4.095,-4.687l11.951,0.454l11.183,-3.427l10.22,-4.726l11.164,-7.068l16.066,-2.206l13.526,0.945l13.804,0.945l13.822,2.205l16.778,7.857l13.98,0l10.043,2.678l13.999,8.19l14.491,9.431l7.087,8.172l11.461,8.663l8.643,8.82l5.356,8.607l8.153,12.72l3.445,11.969l10.2,10.239l7.323,19.389l5.041,20.735l2.205,24.532l0.631,15.438l4.233,13.506l-6.616,18.53l4.235,12.876l-1.103,13.529l-10.691,11.044l-9.975,4.182l-8.443,23.69Z" style="fill:#41342b;"/><path d="M443.122,380.78c33.569,0.959 48.11,16.258 45.361,41.092c-2.052,18.535 -20.326,41.093 -45.361,41.093c-26.345,0 -43.896,-17.874 -45.139,-41.093c-1.277,-23.859 10.703,-42.076 45.139,-41.092ZM303.143,380.709c-33.569,0.96 -48.11,16.258 -45.36,41.093c2.051,18.535 20.325,41.093 45.36,41.093c26.345,0 43.896,-17.874 45.139,-41.093c1.277,-23.86 -10.703,-42.076 -45.139,-41.093ZM365.869,388.026l14.527,0.07c3.619,-0.438 7.347,-0.309 11.47,1.882c1.638,0.144 3.264,-0.119 4.879,-0.719c23.016,-16.997 53.107,-16.878 93.073,-3.187l14.134,2.923l3.67,0.361l4.153,11.856l-6.358,-0.04l-6.083,3.968l-3.726,4.796c-3.919,21.758 -11.39,56.583 -52.671,57.792c-35.624,1.043 -55.219,-35.105 -55.634,-60.19c3.146,-5.419 2.738,-9.427 -5.128,-10.475l-18.085,-0.07c-7.866,1.047 -8.274,5.056 -5.127,10.475c-0.416,25.084 -20.01,61.233 -55.635,60.19c-41.281,-1.209 -48.752,-36.034 -52.671,-57.793l-3.726,-4.795l-6.083,-3.969l-6.358,0.041l4.153,-11.856l3.671,-0.361l14.133,-2.923c39.966,-13.691 70.057,-13.81 93.073,3.187c1.616,0.6 3.241,0.863 4.879,0.719c4.123,-2.191 7.851,-2.32 11.47,-1.882Z" style="fill:#331b17;"/></svg>