<?xml version="1.0" encoding="UTF-8" standalone="no"?><!DOCTYPE svg PUBLIC "-//W3C//DTD SVG 1.1//EN" "http://www.w3.org/Graphics/SVG/1.1/DTD/svg11.dtd"><svg width="100%" height="100%" viewBox="0 0 90 86" version="1.1" xmlns="http://www.w3.org/2000/svg" xmlns:xlink="http://www.w3.org/1999/xlink" xml:space="preserve" style="fill-rule:evenodd;clip-rule:evenodd;stroke-linejoin:round;stroke-miterlimit:1.41421;"><path d="M32.22,29.64c4.29,-9.855 8.34,-19.815 12.698,-29.64c4.23,9.87 8.385,19.77 12.629,29.632c10.74,0.96 21.488,1.816 32.236,2.768c-8.145,7.095 -16.298,14.175 -24.428,21.285c2.415,10.545 4.928,21.075 7.343,31.627c-9.263,-5.632 -18.526,-11.257 -27.81,-16.852c-9.286,5.595 -18.563,11.205 -27.811,16.86c2.408,-10.553 4.928,-21.083 7.343,-31.635c-8.13,-7.11 -16.29,-14.183 -24.42,-21.293c10.732,-0.937 21.48,-1.815 32.22,-2.752Z" style="fill:#ffc107;fill-rule:nonzero;"/></svg>