<?xml version="1.0" standalone="no"?><!DOCTYPE svg PUBLIC "-//W3C//DTD SVG 1.1//EN" "http://www.w3.org/Graphics/SVG/1.1/DTD/svg11.dtd"><svg width="100%" height="100%" viewBox="0 0 274 223" version="1.1" xmlns="http://www.w3.org/2000/svg" xmlns:xlink="http://www.w3.org/1999/xlink" xml:space="preserve" style="fill-rule:evenodd;clip-rule:evenodd;stroke-linejoin:round;stroke-miterlimit:1.41421;"><g><path d="M273.39,27.123c-10.059,4.461 -20.869,7.477 -32.215,8.832c11.581,-6.941 20.473,-17.933 24.662,-31.031c-10.837,6.428 -22.841,11.096 -35.617,13.611c-10.232,-10.901 -24.809,-17.713 -40.941,-17.713c-30.977,0 -56.091,25.114 -56.091,56.088c0,4.397 0.497,8.677 1.453,12.783c-46.616,-2.339 -87.945,-24.669 -115.609,-58.604c-4.828,8.284 -7.594,17.919 -7.594,28.198c0,19.459 9.902,36.627 24.952,46.686c-9.194,-0.291 -17.843,-2.815 -25.405,-7.016c-0.004,0.235 -0.005,0.469 -0.005,0.705c0,27.176 19.334,49.847 44.993,54.998c-4.707,1.282 -9.662,1.967 -14.777,1.967c-3.614,0 -7.128,-0.351 -10.553,-1.006c7.138,22.284 27.852,38.5 52.396,38.953c-19.197,15.043 -43.381,24.01 -69.66,24.01c-4.527,0 -8.992,-0.265 -13.379,-0.783c24.822,15.914 54.304,25.199 85.979,25.199c103.169,0 159.585,-85.467 159.585,-159.586c0,-2.431 -0.054,-4.85 -0.162,-7.256c10.957,-7.908 20.468,-17.787 27.988,-29.035Z" style="fill:#5ca7dc;fill-rule:nonzero;"/></g></svg>