<?xml version="1.0" encoding="UTF-8" standalone="no"?><!DOCTYPE svg PUBLIC "-//W3C//DTD SVG 1.1//EN" "http://www.w3.org/Graphics/SVG/1.1/DTD/svg11.dtd"><svg width="100%" height="100%" viewBox="0 0 273 274" version="1.1" xmlns="http://www.w3.org/2000/svg" xmlns:xlink="http://www.w3.org/1999/xlink" xml:space="preserve" style="fill-rule:evenodd;clip-rule:evenodd;stroke-linejoin:round;stroke-miterlimit:1.41421;"><path d="M125,21.469c49.219,-7.532 98.531,-14.625 147.844,-21.469c0.031,43.219 0,86.406 0.031,129.625c-49.281,0.188 -98.563,0.937 -147.875,1.094c-0.031,-36.438 -0.031,-72.844 0,-109.25Z" style="fill:#2f76bc;fill-rule:nonzero;"/><path d="M0,38.906c37.062,-5.719 74.281,-10.656 111.5,-15.312c0.031,35.844 0.031,71.656 0.063,107.5c-37.188,-0.031 -74.376,0.531 -111.563,0.437l0,-92.625Z" style="fill:#2f76bc;fill-rule:nonzero;"/><path d="M0,142.813c37.156,-0.125 74.313,0.468 111.469,0.406c0,35.937 0.094,71.875 0.031,107.812c-37.125,-5.5 -74.313,-10.312 -111.5,-15.343l0,-92.875Z" style="fill:#2f76bc;fill-rule:nonzero;"/><path d="M124.781,144.25c49.375,0 98.719,0 148.063,0c0.062,43.094 0,86.188 0,129.313c-49.219,-7.376 -98.532,-14.219 -147.844,-20.907c-0.063,-36.125 -0.156,-72.25 -0.219,-108.406Z" style="fill:#2f76bc;fill-rule:nonzero;"/></svg>